<?xml version="1.0" encoding="utf-8"?>
<!-- Generator: Adobe Illustrator 26.0.1, SVG Export Plug-In . SVG Version: 6.00 Build 0)  -->
<svg version="1.1" id="Layer_1" xmlns="http://www.w3.org/2000/svg" xmlns:xlink="http://www.w3.org/1999/xlink" x="0px" y="0px"
	 viewBox="0 0 792 227.3" style="enable-background:new 0 0 792 227.3;" xml:space="preserve">
<style type="text/css">
	.st0{fill:#142049;}
	.st1{fill:#FFFFFF;}
	.st2{fill:#0296CD;}
	.st3{fill:#6CC071;}
	.st4{fill:#C7C8CA;}
</style>
<g>
	<path class="st0" d="M51.9,85.3c0-1,0-1.9,0.1-3c-27.4,7.1-47.3,28.3-47.3,53.3c0,16.3,8.4,30.9,21.9,41.2
		c-0.3,4.3-2.4,10.6-10.8,16.9c9.2,0.2,17.1-4.5,23-9.6c9.9,4.7,21.3,7.4,33.5,7.4c26.7,0,49.8-12.8,60.7-31.4
		C87.3,156.4,51.9,124,51.9,85.3z"/>
	<g>
		<path class="st1" d="M72.8,104.3c3.2,0,5.9-2.7,5.8-5.9c0-3.2-2.7-5.9-5.9-5.8c-3.2,0-5.9,2.7-5.8,5.9
			C67,101.7,69.6,104.3,72.8,104.3"/>
		<path class="st1" d="M96.8,131.5c-1.9,0-3.5,1.1-4.3,2.7L73,134.3l0,4.3l19.5-0.1c0.8,1.6,2.4,2.7,4.3,2.7c2.7,0,4.9-2.2,4.9-4.9
			C101.7,133.7,99.5,131.5,96.8,131.5"/>
		<path class="st1" d="M78.7,113.3c0.9,2,2.9,3.4,5.2,3.4c3.1,0,5.6-2.5,5.6-5.6c0-3.1-2.5-5.6-5.6-5.6c-2.3,0-4.4,1.4-5.2,3.4
			l-5.8,0.6l0,3.1L78.7,113.3z"/>
		<path class="st1" d="M86.6,125.9c0.9,1.7,2.6,2.8,4.6,2.8c2.9,0,5.3-2.3,5.3-5.2c0-2.9-2.4-5.2-5.3-5.2c-2.1,0-3.9,1.3-4.7,3.1
			L72.9,122l0,3.5L86.6,125.9z"/>
		<path class="st1" d="M84.2,150.5c0.5,1.1,1.6,1.8,2.9,1.8c1.8,0,3.3-1.5,3.3-3.3s-1.5-3.2-3.3-3.2c-1.3,0-2.4,0.8-2.9,1.8
			l-11.1-0.3l0,3.6L84.2,150.5z"/>
		<path class="st1" d="M76.3,163.1c0.4,0.8,1.3,1.3,2.2,1.3c1.4,0,2.6-1.2,2.6-2.6c0-1.4-1.2-2.6-2.6-2.6c-0.9,0-1.8,0.5-2.2,1.3
			l-3.2-0.3l0,3.2L76.3,163.1z"/>
		<path class="st1" d="M73.2,180.4c3.2,0,5.9-2.7,5.8-5.9c0-3.2-2.7-5.9-5.9-5.9c-3.2,0-5.9,2.7-5.8,5.9
			C67.3,177.8,70,180.4,73.2,180.4"/>
		<path class="st1" d="M73,134.3l-19.5,0.1c-0.8-1.6-2.5-2.7-4.4-2.7c-2.7,0-4.8,2.2-4.8,4.9s2.2,4.8,4.8,4.8c1.9,0,3.6-1.1,4.4-2.7
			l19.5-0.1l0-2.1L73,134.3z"/>
		<path class="st1" d="M67.6,108.7c-1.4,0-2.6,1.2-2.6,2.6c0,1.4,1.2,2.6,2.6,2.6c1,0,1.8-0.5,2.3-1.3l3,0.3l0-3.1l-3,0.3
			C69.4,109.2,68.6,108.6,67.6,108.7"/>
		<path class="st1" d="M59.7,120.6c-1.8,0-3.2,1.5-3.2,3.3c0,1.8,1.5,3.2,3.3,3.2c1.3,0,2.4-0.8,2.9-1.8l10.3,0.3l0-3.5l-10.3,0.4
			C62.1,121.3,61,120.6,59.7,120.6"/>
		<path class="st1" d="M54.9,144.1c-2.9,0-5.3,2.4-5.3,5.2c0,2.9,2.4,5.2,5.3,5.2c2.1,0,3.8-1.2,4.7-3l13.5-0.5l0-3.6L59.6,147
			C58.7,145.3,56.9,144,54.9,144.1"/>
		<path class="st1" d="M62.5,156.3c-3.1,0-5.6,2.5-5.5,5.6c0,3.1,2.5,5.6,5.6,5.6c2.3,0,4.3-1.4,5.2-3.4l5.4-0.6l0-3.2l-5.4-0.6
			C66.8,157.7,64.8,156.3,62.5,156.3"/>
	</g>
	<g>
		<path class="st2" d="M244.4,155.8h10.2c1.9,0,3.8,0.1,5.7,0.3s3.6,0.7,5.1,1.5s2.7,1.9,3.7,3.3c0.9,1.4,1.4,3.4,1.4,5.9
			c0,2.9-0.9,5.3-2.7,7.1s-4.2,3-7.4,3.4l11.4,18.4h-5.8l-10.9-18h-6.1v18h-4.8L244.4,155.8L244.4,155.8z M249.1,173.5h4.2
			c1.3,0,2.7,0,4.1-0.1s2.7-0.3,3.9-0.7c1.2-0.4,2.2-1.1,2.9-1.9s1.2-2.2,1.2-3.8c0-1.4-0.3-2.6-0.9-3.4s-1.3-1.5-2.2-2
			s-2-0.8-3.1-0.9s-2.3-0.2-3.5-0.2h-6.7L249.1,173.5L249.1,173.5z"/>
		<path class="st2" d="M292.7,155.8h25.2v4.4h-20.4v12.6h19v4.4h-19v14.2h21.4v4.4h-26.2V155.8z"/>
		<path class="st2" d="M340,155.8h11.9c1.9,0,3.6,0.2,5.3,0.5c1.7,0.4,3.2,1,4.5,1.8c1.3,0.9,2.3,2,3.1,3.4s1.2,3.2,1.2,5.2
			c0,2.2-0.4,4-1.2,5.4c-0.8,1.4-1.9,2.6-3.2,3.4s-2.7,1.4-4.3,1.8s-3,0.5-4.4,0.5h-8v18H340L340,155.8L340,155.8z M344.8,173.5h8
			c2.4,0,4.3-0.5,5.8-1.6s2.2-2.7,2.2-5s-0.8-3.9-2.2-5c-1.5-1.1-3.4-1.6-5.8-1.6h-8V173.5z"/>
		<path class="st2" d="M444.9,164.1c-1.2-1.6-2.7-2.8-4.5-3.6s-3.6-1.2-5.5-1.2c-2.2,0-4.3,0.4-6.1,1.4c-1.9,0.9-3.5,2.1-4.8,3.6
			c-1.4,1.5-2.4,3.3-3.2,5.3c-0.8,2-1.1,4.1-1.1,6.3c0,2.3,0.4,4.5,1.1,6.5s1.8,3.8,3.1,5.3c1.3,1.5,2.9,2.7,4.8,3.5
			c1.9,0.9,3.9,1.3,6.2,1.3c2.5,0,4.6-0.5,6.6-1.4c1.9-1,3.6-2.4,5-4.2l3.6,3c-1.8,2.4-4,4.2-6.5,5.3s-5.4,1.7-8.6,1.7
			c-2.9,0-5.5-0.5-8-1.6s-4.6-2.5-6.5-4.4s-3.3-4.1-4.3-6.6c-1-2.6-1.5-5.4-1.5-8.4c0-2.9,0.5-5.7,1.5-8.2s2.4-4.8,4.2-6.7
			s4-3.4,6.5-4.5c2.5-1.1,5.2-1.6,8.2-1.6c2.7,0,5.3,0.5,7.8,1.5c2.5,1,4.6,2.6,6.3,4.8L444.9,164.1z"/>
		<path class="st2" d="M489,196.9c-3,0-5.9-0.5-8.4-1.6s-4.8-2.5-6.6-4.4c-1.9-1.9-3.3-4.1-4.4-6.7c-1-2.6-1.5-5.4-1.5-8.4
			c0-3,0.5-5.8,1.5-8.4c1-2.6,2.5-4.8,4.4-6.7c1.9-1.9,4.1-3.3,6.6-4.4c2.5-1.1,5.3-1.6,8.4-1.6c3,0,5.9,0.5,8.4,1.6
			c2.5,1.1,4.8,2.5,6.6,4.4c1.9,1.9,3.3,4.1,4.4,6.7c1,2.6,1.6,5.4,1.6,8.4c0,3-0.5,5.8-1.6,8.4c-1,2.6-2.5,4.8-4.4,6.7
			c-1.9,1.9-4.1,3.3-6.6,4.4S492.1,196.9,489,196.9z M489,192.5c2.3,0,4.5-0.4,6.4-1.3c1.9-0.9,3.6-2.1,5-3.6s2.5-3.3,3.2-5.3
			c0.8-2,1.2-4.2,1.2-6.5s-0.4-4.5-1.2-6.5c-0.8-2-1.9-3.8-3.2-5.3s-3.1-2.7-5-3.6s-4.1-1.3-6.4-1.3s-4.5,0.4-6.4,1.3
			c-1.9,0.9-3.6,2.1-5,3.6s-2.5,3.3-3.2,5.3c-0.8,2-1.2,4.2-1.2,6.5c0,2.3,0.4,4.5,1.2,6.5c0.8,2,1.9,3.8,3.2,5.3s3.1,2.7,5,3.6
			C484.6,192,486.7,192.5,489,192.5z"/>
		<path class="st2" d="M531.4,155.8h6l23.2,33.2h0.1v-33.2h4.8v40h-6l-23.2-33.2h-0.1v33.2h-4.8V155.8z"/>
		<path class="st2" d="M589.2,155.8h6l23.2,33.2h0.1v-33.2h4.8v40h-6L594,162.6h-0.1v33.2h-4.8V155.8z"/>
		<path class="st2" d="M647,155.8h25.2v4.4h-20.4v12.6h19v4.4h-19v14.2h21.4v4.4H647V155.8z"/>
		<path class="st2" d="M722.3,164.1c-1.2-1.6-2.7-2.8-4.5-3.6c-1.8-0.8-3.6-1.2-5.5-1.2c-2.2,0-4.3,0.4-6.1,1.4
			c-1.9,0.9-3.5,2.1-4.8,3.6c-1.4,1.5-2.4,3.3-3.2,5.3c-0.8,2-1.1,4.1-1.1,6.3c0,2.3,0.4,4.5,1.1,6.5s1.8,3.8,3.1,5.3
			c1.3,1.5,2.9,2.7,4.8,3.5c1.9,0.9,3.9,1.3,6.2,1.3c2.5,0,4.6-0.5,6.6-1.4s3.6-2.4,5-4.2l3.6,3c-1.8,2.4-4,4.2-6.5,5.3
			c-2.5,1.1-5.4,1.7-8.6,1.7c-2.9,0-5.5-0.5-8-1.6c-2.5-1.1-4.7-2.5-6.5-4.4s-3.3-4.1-4.3-6.6s-1.5-5.4-1.5-8.4
			c0-2.9,0.5-5.7,1.5-8.2s2.4-4.8,4.2-6.7s4-3.4,6.5-4.5c2.5-1.1,5.2-1.6,8.2-1.6c2.7,0,5.3,0.5,7.8,1.5s4.6,2.6,6.3,4.8
			L722.3,164.1z"/>
		<path class="st2" d="M774.7,160.2h-13.2v35.6h-4.8v-35.6h-13.2v-4.4h31.2L774.7,160.2L774.7,160.2z"/>
	</g>
	<g>
		<path class="st3" d="M72.3,79.7c-5,0-9.9,0.5-14.6,1.3c-0.1,1.4-0.2,2.8-0.2,4.3c0,36.8,34.5,66.9,78.3,69.3
			c2.6-5.9,4-12.4,4-19.1C139.8,104.7,109.6,79.7,72.3,79.7z"/>
	</g>
	<path class="st2" d="M198.4,136.5c16.7-12.7,27.2-30.9,27.2-51.2c0-38.4-37.6-69.5-84.1-69.5c-44.7,0-81.2,28.8-83.9,65.2
		c-0.1,1.4-0.2,2.8-0.2,4.3c0,36.8,34.6,66.9,78.3,69.3c1.9,0.1,3.8,0.2,5.8,0.2c15.2,0,29.4-3.4,41.7-9.2
		c7.3,6.4,17.1,12.1,28.6,11.9C201.4,149.6,198.7,141.8,198.4,136.5z"/>
	<g>
		<path class="st4" d="M204.9,196.9c-0.1-0.3-0.2-0.6-0.3-0.8c4.8-3.9,7.6-8.8,7.6-14c0-13-17.3-23.6-38.7-23.6
			s-38.7,10.5-38.7,23.6c0,13,17.3,23.6,38.7,23.6c6.5,0,12.6-1,18-2.7c1.7,1.6,4.5,2.2,7.5,1.5C203,203.3,205.7,200,204.9,196.9z
			 M207.6,202.5c-1.7,0-3,1.4-3,3s1.4,3,3,3s3-1.4,3-3S209.2,202.5,207.6,202.5z"/>
		<g>
			<path class="st1" d="M161.3,189.4c0-1.2,0.8-2.1,2-2.1s2,0.9,2,2.1c0,1.2-0.8,2.1-2,2.1C162.1,191.5,161.3,190.6,161.3,189.4z"/>
			<path class="st1" d="M171.5,189.4c0-1.2,0.8-2.1,2-2.1s2,0.9,2,2.1c0,1.2-0.8,2.1-2,2.1C172.3,191.5,171.5,190.6,171.5,189.4z"/>
			<path class="st1" d="M181.7,189.4c0-1.2,0.8-2.1,2-2.1s2,0.9,2,2.1c0,1.2-0.8,2.1-2,2.1C182.5,191.5,181.7,190.6,181.7,189.4z"/>
		</g>
	</g>
	<path class="st1" d="M276.8,115.2l-25.8-47.6l0.3,60.3c0,2.2-1.8,4-4,4.1c-2.2,0-4.1-1.8-4.1-4l-0.4-76.3c0-2.2,1.8-4,4-4.1
		c1.8,0,3.1,1.1,3.7,2.3l29.9,55.4l29.5-55.7c0.5-0.9,1.5-2.3,3.7-2.3c2.2,0,4,1.8,4.1,4l0.4,76.3c0,2.2-1.8,4.1-4,4.1
		c-2.2,0-4-1.8-4.1-4l-0.3-60.3l-25.5,47.8c-0.9,1.6-2.2,2.3-3.7,2.3C279.2,117.5,277.6,116.9,276.8,115.2"/>
	<path class="st1" d="M333.3,57.8c0-3.5,1.7-4.9,4.6-4.9s4.7,1.3,4.7,4.9c0,2.9-1.7,4.7-4.6,4.7C335,62.4,333.3,60.7,333.3,57.8
		 M342.2,127.6c0,2.2-1.7,3.9-3.9,3.9c-2.2,0-3.9-1.7-3.9-3.9l-0.2-49.8c0-2.2,1.7-3.9,3.9-3.9c2.2,0,3.9,1.7,3.9,3.9L342.2,127.6z"
		/>
	<path class="st1" d="M379.4,73c10.9-0.1,16.9,5.7,18.9,8.4c0.6,0.8,0.9,1.5,0.9,2.3c0,2.1-1.6,3.6-3.5,3.6c-1.2,0-2.1-0.5-2.9-1.4
		c-1.9-2.1-5.2-5.7-13.3-5.7c-11.3,0.1-17.2,7.3-17.2,22.4c0.1,15.3,6.1,22.4,17.4,22.3c7.1,0,11.4-3.2,14.2-5.3
		c0.9-0.6,1.5-0.9,2.3-0.9c2,0,3.6,1.6,3.6,3.5c0,1.1-0.4,2-1.6,3.1c-2.7,2.2-8.5,6.7-18.5,6.7c-15.8,0.1-25.3-9.3-25.4-29.4
		C354.2,82.4,363.6,73.1,379.4,73"/>
	<path class="st1" d="M419.8,82.9c2.4-5.7,8.5-9.8,17-9.9c2.1,0,3.8,1.7,3.8,3.8c0,2.1-1.7,3.8-3.8,3.8c-11.3,0.1-17,7.9-16.9,19.2
		l0.1,27.4c0,2.2-1.7,3.9-3.9,3.9c-2.2,0-3.9-1.7-3.9-3.9l-0.2-49.8c0-2.2,1.7-3.9,3.9-3.9s3.9,1.7,3.9,3.9L419.8,82.9z"/>
	<path class="st1" d="M493.7,101.9c0.1,20.1-9.7,29.6-25.6,29.7c-15.8,0.1-25.8-9.3-25.9-29.4c-0.1-20.1,9.8-29.5,25.6-29.5
		C483.8,72.5,493.6,81.8,493.7,101.9 M485.8,101.9c-0.1-15.4-6.6-22.3-17.9-22.2c-11.3,0.1-17.7,6.9-17.7,22.4
		c0.1,15.7,6.6,22.4,17.9,22.3C479.4,124.4,485.9,117.6,485.8,101.9"/>
	<path class="st1" d="M564.5,113.8L564.4,96L544,96.1c-2.1,0-3.8-1.7-3.8-3.8c0-2.1,1.7-3.8,3.8-3.8l24.8-0.1c2,0,3.8,1.7,3.8,3.8
		l0.1,21.4c0,1.5-0.5,2.7-1.6,4.1c-5.8,6.9-14.4,13.6-29.2,13.6c-23.8,0.1-38.3-12.6-38.4-42.7c-0.1-29,14.2-43.1,38-43.2
		c11.6,0,21.8,4.9,27.6,12.9c0.6,0.9,0.9,1.7,0.9,2.6c0,2.2-1.7,3.9-3.9,3.9c-1.1,0-2.2-0.3-3.2-1.6c-4.2-5.7-12.1-10.2-21.4-10.2
		c-18.9,0.1-29.6,11.5-29.5,35.5c0.1,25.5,11,35.2,29.8,35.2C553.2,123.7,560.5,118.8,564.5,113.8"/>
	<path class="st1" d="M608.7,71.9c19.6-0.1,23.5,15.4,23.5,23.8c0,3.6,0,7.8-4.9,7.9l-35.8,0.2c0.1,12.1,7.1,19.9,18.6,19.9
		c7.1,0,11.3-2.8,14.7-5.3c0.7-0.5,1.2-0.7,2.2-0.8c2,0,3.6,1.6,3.6,3.5c0,1.3-0.6,2.1-1.3,2.8c-1.8,1.8-8.2,6.9-19.1,6.9
		c-16.3,0.1-26.5-8.8-26.6-29.4C583.5,82.6,592.7,72,608.7,71.9 M608.7,79c-10.7,0.1-16.5,6.9-17.2,17.8l33-0.2
		C624.4,87.9,621.3,79,608.7,79"/>
	<path class="st1" d="M688.2,93.2l0.2,32.7c0,2.2-1.7,3.9-3.9,3.9s-3.9-1.7-3.9-3.9l-0.1-31.1c0-9.7-2.9-16.3-14.8-16.2
		c-12.1,0.1-16.3,7.4-16.2,17.2l0.1,30.3c0,2.2-1.7,3.9-3.9,3.9c-2.2,0-3.9-1.7-3.9-3.9l-0.2-49.7c0-2.2,1.7-3.9,3.9-3.9
		c2.2,0,3.9,1.7,4,3.9l0,3.9c2.3-4.7,8.3-8.6,16.2-8.7C684.4,71.6,688.1,82.8,688.2,93.2"/>
	<path class="st1" d="M773.6,108.1c-1.2,0-2.2-0.5-3-1.6l-11.5-17.1l-11.4,17.2c-0.7,1-1.8,1.6-2.9,1.6c-1.9,0-3.6-1.6-3.6-3.5
		c0-0.7,0.2-1.4,0.6-2l13-19.4l-13-18.9c-0.4-0.6-0.6-1.3-0.6-2c0-1.8,1.6-3.6,3.5-3.6c1.2,0,2.3,0.5,3,1.6l11.3,16.7l11.1-16.8
		c0.7-1,1.8-1.6,2.9-1.6c1.8,0,3.5,1.6,3.5,3.5c0,0.7-0.2,1.4-0.6,2l-12.8,19l13.3,19.2c0.4,0.6,0.6,1.3,0.6,2
		C777.2,106.4,775.6,108.1,773.6,108.1"/>
	<path class="st1" d="M715.2,59.7l-9,0c-2.5,0-4.4,2-4.4,4.4l0.2,39.2c0,2.4,2,4.4,4.5,4.4l9,0c11.2-0.1,18.8-7.6,18.7-18.7l0-10.8
		C734,67.1,726.4,59.7,715.2,59.7 M726.9,89.2c0,7.2-4.1,11.6-11.4,11.6l-6.3,0L709,66.6l6.3,0c7.3,0,11.5,4.3,11.5,11.5L726.9,89.2
		z"/>
	<path class="st2" d="M776.5,121.9l-73.7,0.3c-1.7,0-3.1,1.4-3.1,3.1c0,1.7,1.4,3.1,3.1,3.1l73.7-0.4c1.7,0,3.1-1.4,3.1-3.1
		C779.5,123.3,778.2,121.9,776.5,121.9"/>
	<g>
		<path class="st1" d="M143,44.6c4.1,0,7.4-3.4,7.4-7.5s-3.4-7.5-7.5-7.4c-4.1,0-7.4,3.4-7.4,7.5C135.5,41.3,138.9,44.6,143,44.6"/>
		<path class="st1" d="M173.3,79.1c-2.4,0-4.4,1.4-5.4,3.4l-24.7,0.1l0,5.4l24.7-0.1c1,2,3.1,3.4,5.5,3.4c3.4,0,6.2-2.8,6.2-6.2
			C179.6,81.8,176.8,79.1,173.3,79.1"/>
		<path class="st1" d="M150.4,56c1.1,2.5,3.7,4.3,6.6,4.3c3.9,0,7.1-3.2,7-7.1c0-3.9-3.2-7.1-7.1-7c-3,0-5.5,1.8-6.6,4.3l-7.3,0.8
			l0,4L150.4,56z"/>
		<path class="st1" d="M160.5,72c1.1,2.1,3.3,3.6,5.9,3.6c3.7,0,6.7-3,6.7-6.6c0-3.6-3.1-6.6-6.8-6.6c-2.7,0-5,1.7-6,4L143.1,67
			l0,4.5L160.5,72z"/>
		<path class="st1" d="M157.4,103.2c0.7,1.4,2.1,2.3,3.7,2.3c2.3,0,4.2-1.9,4.2-4.1c0-2.3-1.9-4.1-4.2-4.1c-1.6,0-3,1-3.7,2.3
			l-14.1-0.4l0,4.5L157.4,103.2z"/>
		<path class="st1" d="M147.4,119.1c0.6,1,1.6,1.7,2.8,1.7c1.8,0,3.3-1.5,3.3-3.3c0-1.8-1.5-3.2-3.3-3.2c-1.2,0-2.2,0.7-2.8,1.7
			l-4.1-0.4l0,4.1L147.4,119.1z"/>
		<path class="st1" d="M143.5,141.1c4.1,0,7.4-3.4,7.4-7.5c0-4.1-3.4-7.4-7.5-7.4c-4.1,0-7.4,3.4-7.4,7.5
			C136,137.8,139.4,141.1,143.5,141.1"/>
		<path class="st1" d="M143.2,82.6l-24.7,0.1c-1-2-3.1-3.4-5.6-3.4c-3.4,0-6.1,2.8-6.1,6.2c0,3.4,2.8,6.1,6.2,6.1
			c2.4,0,4.5-1.4,5.6-3.4l24.7-0.1l0-2.7L143.2,82.6z"/>
		<path class="st1" d="M136.4,50.1c-1.8,0-3.2,1.5-3.2,3.3s1.5,3.2,3.3,3.2c1.2,0,2.3-0.7,2.9-1.7l3.8,0.4l0-4l-3.8,0.4
			C138.7,50.8,137.6,50.1,136.4,50.1"/>
		<path class="st1" d="M126.3,65.2c-2.3,0-4.1,1.9-4.1,4.1c0,2.3,1.9,4.1,4.1,4.1c1.7,0,3-1,3.7-2.3l13.1,0.4l0-4.5l-13.1,0.5
			C129.4,66.1,127.9,65.2,126.3,65.2"/>
		<path class="st1" d="M120.2,95c-3.7,0-6.7,3-6.7,6.6c0,3.6,3.1,6.6,6.8,6.6c2.6,0,4.9-1.6,5.9-3.8l17.1-0.7l0-4.5l-17.1-0.5
			C125.1,96.5,122.8,95,120.2,95"/>
		<path class="st1" d="M129.8,110.5c-3.9,0-7.1,3.2-7,7.1c0,3.9,3.2,7.1,7.1,7c3,0,5.5-1.8,6.6-4.3l6.9-0.8l0-4.1l-6.9-0.7
			C135.4,112.3,132.8,110.5,129.8,110.5"/>
	</g>
</g>
</svg>
