<?xml version="1.0" encoding="utf-8"?>
<!-- Generator: Adobe Illustrator 25.0.0, SVG Export Plug-In . SVG Version: 6.00 Build 0)  -->
<svg version="1.1" id="Layer_1" xmlns="http://www.w3.org/2000/svg" xmlns:xlink="http://www.w3.org/1999/xlink" x="0px" y="0px"
	 viewBox="0 0 792 227.33" style="enable-background:new 0 0 792 227.33;" xml:space="preserve">
<style type="text/css">
	.st0{fill:#142049;}
	.st1{fill:#FFFFFF;}
	.st2{fill:#0296CD;}
	.st3{fill:#6CC071;}
	.st4{fill:#C7C8CA;}
	.st5{fill:#231F20;}
</style>
<g>
	<path class="st0" d="M51.88,85.28c0-0.96,0.03-1.95,0.09-3.01c-27.39,7.13-47.26,28.28-47.26,53.28c0,16.29,8.44,30.95,21.89,41.16
		c-0.28,4.27-2.44,10.55-10.84,16.91c9.21,0.18,17.1-4.47,22.97-9.58c9.89,4.69,21.33,7.38,33.55,7.38
		c26.69,0,49.75-12.8,60.72-31.38C87.31,156.4,51.88,123.97,51.88,85.28z"/>
	<g>
		<path class="st1" d="M72.85,104.31c3.24-0.01,5.87-2.66,5.85-5.91c-0.02-3.24-2.66-5.87-5.91-5.85c-3.25,0.01-5.87,2.66-5.85,5.9
			C66.96,101.71,69.61,104.33,72.85,104.31"/>
		<path class="st1" d="M96.75,131.51c-1.89,0.01-3.5,1.11-4.29,2.7L73,134.31l0.02,4.3l19.46-0.09c0.8,1.58,2.43,2.67,4.32,2.66
			c2.72-0.01,4.91-2.19,4.9-4.86C101.68,133.66,99.47,131.5,96.75,131.51"/>
		<path class="st1" d="M78.65,113.34c0.88,1.99,2.9,3.38,5.25,3.37c3.07-0.01,5.56-2.53,5.55-5.6c-0.01-3.08-2.52-5.56-5.6-5.55
			c-2.34,0.01-4.36,1.42-5.21,3.42l-5.75,0.64l0.02,3.14L78.65,113.34z"/>
		<path class="st1" d="M86.63,125.91c0.87,1.69,2.61,2.84,4.63,2.83c2.93-0.01,5.29-2.35,5.28-5.23c-0.01-2.87-2.4-5.19-5.33-5.18
			c-2.12,0.01-3.94,1.3-4.74,3.13l-13.53,0.51l0.02,3.54L86.63,125.91z"/>
		<path class="st1" d="M84.16,150.52c0.53,1.08,1.63,1.83,2.91,1.82c1.83,0,3.3-1.47,3.29-3.26c-0.01-1.79-1.5-3.23-3.32-3.23
			c-1.28,0.01-2.38,0.76-2.9,1.84l-11.08-0.31l0.01,3.55L84.16,150.52z"/>
		<path class="st1" d="M76.33,163.07c0.45,0.77,1.27,1.3,2.23,1.3c1.44-0.01,2.61-1.17,2.6-2.58c0-1.42-1.19-2.56-2.63-2.56
			c-0.95,0.01-1.78,0.54-2.22,1.32l-3.2-0.32l0.02,3.21L76.33,163.07z"/>
		<path class="st1" d="M73.25,180.36c3.25-0.01,5.87-2.66,5.85-5.91c-0.02-3.24-2.66-5.87-5.91-5.86c-3.25,0.02-5.87,2.66-5.85,5.91
			C67.35,177.76,70,180.38,73.25,180.36"/>
		<path class="st1" d="M73,134.31l-19.47,0.09c-0.82-1.58-2.47-2.67-4.4-2.66c-2.67,0.01-4.82,2.19-4.81,4.86
			c0.01,2.67,2.19,4.82,4.85,4.81c1.92-0.01,3.57-1.12,4.37-2.7l19.47-0.1l-0.01-2.15L73,134.31z"/>
		<path class="st1" d="M67.62,108.65c-1.42,0.01-2.56,1.16-2.56,2.58c0.01,1.42,1.17,2.56,2.58,2.56c0.98-0.01,1.82-0.54,2.27-1.33
			l2.98,0.31l-0.01-3.14l-2.98,0.33C69.45,109.17,68.6,108.64,67.62,108.65"/>
		<path class="st1" d="M59.68,120.57c-1.79,0.01-3.23,1.47-3.23,3.26c0.01,1.79,1.47,3.24,3.26,3.23c1.3-0.01,2.4-0.76,2.94-1.83
			l10.31,0.29l-0.02-3.54l-10.3,0.39C62.09,121.3,60.97,120.56,59.68,120.57"/>
		<path class="st1" d="M54.86,144.05c-2.92,0.02-5.29,2.36-5.28,5.24c0.01,2.87,2.4,5.19,5.33,5.18c2.07-0.01,3.85-1.25,4.67-3.01
			l13.5-0.51l-0.02-3.55l-13.5-0.38C58.71,145.26,56.93,144.03,54.86,144.05"/>
		<path class="st1" d="M62.45,156.3c-3.07,0.01-5.56,2.53-5.55,5.6c0.01,3.08,2.53,5.57,5.6,5.55c2.35-0.01,4.35-1.42,5.21-3.42
			l5.42-0.6l-0.01-3.21l-5.43-0.55C66.82,157.68,64.79,156.29,62.45,156.3"/>
	</g>
	<g>
		<path class="st2" d="M244.36,155.84h10.23c1.92,0,3.83,0.11,5.74,0.34s3.61,0.72,5.12,1.47c1.51,0.75,2.73,1.86,3.68,3.31
			c0.94,1.45,1.41,3.42,1.41,5.91c0,2.94-0.89,5.31-2.66,7.12c-1.77,1.81-4.22,2.96-7.35,3.45l11.36,18.43h-5.82l-10.86-17.98h-6.11
			v17.98h-4.75V155.84z M249.11,173.48h4.24c1.32,0,2.69-0.04,4.1-0.11c1.41-0.07,2.71-0.32,3.9-0.73c1.19-0.41,2.17-1.06,2.94-1.95
			c0.77-0.89,1.16-2.16,1.16-3.82c0-1.43-0.28-2.58-0.85-3.45c-0.57-0.87-1.31-1.54-2.23-2.01c-0.92-0.47-1.96-0.78-3.11-0.93
			c-1.15-0.15-2.31-0.23-3.48-0.23h-6.67V173.48z"/>
		<path class="st2" d="M292.7,155.84h25.16v4.41h-20.41v12.55h19.05v4.41h-19.05v14.25h21.43v4.41H292.7V155.84z"/>
		<path class="st2" d="M340.02,155.84h11.87c1.85,0,3.61,0.18,5.29,0.54c1.68,0.36,3.17,0.96,4.47,1.81
			c1.3,0.85,2.34,1.98,3.11,3.39c0.77,1.41,1.16,3.16,1.16,5.23c0,2.19-0.42,4-1.24,5.43c-0.83,1.43-1.89,2.56-3.19,3.39
			c-1.3,0.83-2.72,1.41-4.27,1.75c-1.55,0.34-3.02,0.51-4.41,0.51h-8.03v17.98h-4.75V155.84z M344.77,173.48h8.03
			c2.37,0,4.31-0.54,5.8-1.61c1.49-1.07,2.23-2.74,2.23-5c0-2.26-0.75-3.93-2.23-5c-1.49-1.07-3.42-1.61-5.8-1.61h-8.03V173.48z"/>
		<path class="st2" d="M444.9,164.09c-1.21-1.62-2.7-2.84-4.47-3.65c-1.77-0.81-3.62-1.22-5.54-1.22c-2.22,0-4.27,0.45-6.13,1.36
			c-1.87,0.9-3.48,2.12-4.83,3.65c-1.36,1.53-2.41,3.3-3.17,5.31c-0.75,2.02-1.13,4.12-1.13,6.3c0,2.34,0.38,4.51,1.13,6.53
			c0.75,2.02,1.8,3.77,3.14,5.26c1.34,1.49,2.94,2.67,4.81,3.53c1.87,0.87,3.93,1.3,6.19,1.3c2.45,0,4.64-0.48,6.56-1.44
			c1.92-0.96,3.6-2.35,5.03-4.16l3.56,3c-1.81,2.41-3.99,4.18-6.53,5.31c-2.54,1.13-5.42,1.7-8.62,1.7c-2.86,0-5.54-0.53-8.03-1.58
			c-2.49-1.05-4.65-2.52-6.47-4.38s-3.26-4.08-4.3-6.64c-1.04-2.56-1.55-5.37-1.55-8.42c0-2.94,0.5-5.69,1.5-8.25
			c1-2.56,2.4-4.79,4.21-6.67c1.81-1.88,3.96-3.37,6.45-4.47c2.49-1.09,5.22-1.64,8.2-1.64c2.71,0,5.32,0.49,7.83,1.47
			c2.51,0.98,4.61,2.58,6.3,4.81L444.9,164.09z"/>
		<path class="st2" d="M489.05,196.88c-3.05,0-5.85-0.53-8.4-1.58s-4.75-2.52-6.62-4.38c-1.87-1.87-3.32-4.09-4.35-6.67
			c-1.04-2.58-1.55-5.38-1.55-8.4c0-3.02,0.52-5.81,1.55-8.4c1.04-2.58,2.49-4.81,4.35-6.67c1.87-1.87,4.07-3.33,6.62-4.38
			c2.54-1.05,5.34-1.58,8.4-1.58c3.05,0,5.85,0.53,8.4,1.58c2.54,1.06,4.75,2.52,6.62,4.38c1.87,1.87,3.32,4.09,4.35,6.67
			c1.04,2.58,1.56,5.38,1.56,8.4c0,3.02-0.52,5.81-1.56,8.4c-1.04,2.58-2.49,4.81-4.35,6.67c-1.87,1.87-4.07,3.33-6.62,4.38
			S492.11,196.88,489.05,196.88z M489.05,192.47c2.34,0,4.48-0.43,6.42-1.3c1.94-0.87,3.61-2.05,5-3.56
			c1.39-1.51,2.48-3.27,3.25-5.29c0.77-2.02,1.16-4.17,1.16-6.47c0-2.3-0.39-4.46-1.16-6.47c-0.77-2.02-1.86-3.78-3.25-5.29
			c-1.39-1.51-3.06-2.69-5-3.56c-1.94-0.87-4.08-1.3-6.42-1.3s-4.48,0.43-6.42,1.3c-1.94,0.87-3.61,2.05-5,3.56
			c-1.39,1.51-2.48,3.27-3.25,5.29c-0.77,2.02-1.16,4.18-1.16,6.47c0,2.3,0.39,4.46,1.16,6.47c0.77,2.02,1.86,3.78,3.25,5.29
			c1.39,1.51,3.06,2.7,5,3.56C484.58,192.04,486.71,192.47,489.05,192.47z"/>
		<path class="st2" d="M531.4,155.84h5.99l23.18,33.24h0.11v-33.24h4.75v40.03h-5.99l-23.18-33.24h-0.11v33.24h-4.75V155.84z"/>
		<path class="st2" d="M589.18,155.84h5.99l23.18,33.24h0.11v-33.24h4.75v40.03h-5.99l-23.18-33.24h-0.11v33.24h-4.75V155.84z"/>
		<path class="st2" d="M646.96,155.84h25.16v4.41h-20.41v12.55h19.05v4.41h-19.05v14.25h21.43v4.41h-26.18V155.84z"/>
		<path class="st2" d="M722.33,164.09c-1.21-1.62-2.7-2.84-4.47-3.65c-1.77-0.81-3.62-1.22-5.54-1.22c-2.22,0-4.27,0.45-6.13,1.36
			c-1.87,0.9-3.48,2.12-4.83,3.65c-1.36,1.53-2.41,3.3-3.17,5.31c-0.75,2.02-1.13,4.12-1.13,6.3c0,2.34,0.38,4.51,1.13,6.53
			c0.75,2.02,1.8,3.77,3.14,5.26c1.34,1.49,2.94,2.67,4.81,3.53c1.87,0.87,3.93,1.3,6.19,1.3c2.45,0,4.64-0.48,6.56-1.44
			c1.92-0.96,3.6-2.35,5.03-4.16l3.56,3c-1.81,2.41-3.99,4.18-6.53,5.31c-2.54,1.13-5.42,1.7-8.62,1.7c-2.86,0-5.54-0.53-8.03-1.58
			c-2.49-1.05-4.65-2.52-6.47-4.38s-3.26-4.08-4.3-6.64c-1.04-2.56-1.55-5.37-1.55-8.42c0-2.94,0.5-5.69,1.5-8.25
			c1-2.56,2.4-4.79,4.21-6.67c1.81-1.88,3.96-3.37,6.45-4.47c2.49-1.09,5.22-1.64,8.2-1.64c2.71,0,5.32,0.49,7.83,1.47
			c2.51,0.98,4.61,2.58,6.3,4.81L722.33,164.09z"/>
		<path class="st2" d="M774.74,160.25h-13.23v35.62h-4.75v-35.62h-13.23v-4.41h31.21V160.25z"/>
	</g>
	<g>
		<path class="st3" d="M72.27,79.68c-5.01,0-9.89,0.46-14.59,1.32c-0.1,1.42-0.17,2.84-0.17,4.28c0,36.78,34.55,66.87,78.28,69.33
			c2.61-5.95,4.04-12.37,4.04-19.06C139.82,104.7,109.58,79.68,72.27,79.68z"/>
	</g>
	<path class="st2" d="M198.39,136.49c16.74-12.71,27.23-30.94,27.23-51.21c0-38.39-37.64-69.51-84.06-69.51
		c-44.69,0-81.21,28.84-83.89,65.23c-0.1,1.42-0.17,2.84-0.17,4.28c0,36.78,34.55,66.87,78.28,69.33c1.91,0.11,3.84,0.18,5.78,0.18
		c15.2,0,29.44-3.35,41.74-9.18c7.3,6.35,17.12,12.15,28.58,11.92C201.42,149.62,198.74,141.81,198.39,136.49z"/>
	<g>
		<path class="st4" d="M204.87,196.93c-0.08-0.3-0.19-0.57-0.33-0.84c4.76-3.92,7.58-8.76,7.58-14.01
			c0-13.01-17.31-23.55-38.66-23.55s-38.66,10.54-38.66,23.55c0,13.01,17.31,23.55,38.66,23.55c6.51,0,12.65-0.99,18.03-2.72
			c1.66,1.6,4.54,2.25,7.5,1.48C203.04,203.32,205.67,199.98,204.87,196.93z M207.58,202.49c-1.67,0-3.03,1.36-3.03,3.03
			s1.36,3.03,3.03,3.03c1.67,0,3.03-1.36,3.03-3.03S209.25,202.49,207.58,202.49z"/>
		<g>
			<path class="st1" d="M161.27,189.42c0-1.23,0.83-2.09,1.99-2.09c1.16,0,1.96,0.86,1.96,2.09c0,1.2-0.76,2.09-1.99,2.09
				C162.07,191.51,161.27,190.62,161.27,189.42z"/>
			<path class="st1" d="M171.47,189.42c0-1.23,0.83-2.09,1.99-2.09c1.16,0,1.96,0.86,1.96,2.09c0,1.2-0.76,2.09-1.99,2.09
				C172.27,191.51,171.47,190.62,171.47,189.42z"/>
			<path class="st1" d="M181.67,189.42c0-1.23,0.83-2.09,1.99-2.09c1.16,0,1.96,0.86,1.96,2.09c0,1.2-0.76,2.09-1.99,2.09
				C182.47,191.51,181.67,190.62,181.67,189.42z"/>
		</g>
	</g>
	<path class="st5" d="M276.77,115.16l-25.84-47.55l0.29,60.29c0.01,2.21-1.82,4.05-4.03,4.06c-2.21,0.01-4.05-1.82-4.06-4.03
		l-0.36-76.34c-0.01-2.21,1.81-4.05,4.03-4.06c1.84-0.01,3.07,1.09,3.68,2.31l29.92,55.37l29.51-55.65
		c0.48-0.86,1.46-2.33,3.67-2.35c2.2-0.01,4.05,1.82,4.06,4.03l0.36,76.34c0.01,2.21-1.81,4.05-4.02,4.06
		c-2.2,0.01-4.05-1.82-4.06-4.03l-0.28-60.28l-25.51,47.79c-0.85,1.6-2.19,2.34-3.66,2.35
		C279.23,117.48,277.63,116.87,276.77,115.16"/>
	<path class="st5" d="M333.28,57.79c-0.02-3.55,1.69-4.91,4.63-4.93c2.94-0.02,4.66,1.33,4.68,4.88c0.02,2.94-1.7,4.67-4.64,4.68
		C335.01,62.44,333.29,60.73,333.28,57.79 M342.19,127.59c0.01,2.21-1.7,3.93-3.9,3.94c-2.21,0.01-3.93-1.69-3.94-3.9l-0.23-49.75
		c-0.01-2.21,1.7-3.93,3.9-3.94c2.21-0.01,3.93,1.7,3.94,3.9L342.19,127.59z"/>
	<path class="st5" d="M379.42,73.01c10.91-0.05,16.94,5.68,18.91,8.36c0.62,0.85,0.87,1.47,0.87,2.33c0.01,2.08-1.58,3.56-3.54,3.57
		c-1.22,0.01-2.08-0.48-2.94-1.45c-1.85-2.08-5.18-5.74-13.26-5.7c-11.27,0.05-17.24,7.31-17.18,22.39
		c0.08,15.32,6.11,22.39,17.39,22.34c7.1-0.03,11.38-3.24,14.19-5.34c0.85-0.62,1.47-0.87,2.32-0.87c1.96-0.01,3.56,1.58,3.57,3.54
		c0.01,1.1-0.36,1.96-1.58,3.07c-2.69,2.21-8.54,6.66-18.47,6.7c-15.81,0.07-25.29-9.31-25.38-29.41
		C354.22,82.44,363.62,73.09,379.42,73.01"/>
	<path class="st5" d="M419.78,82.86c2.43-5.65,8.53-9.84,16.99-9.88c2.09-0.01,3.81,1.7,3.81,3.78c0.01,2.08-1.7,3.8-3.78,3.81
		c-11.27,0.05-17,7.93-16.94,19.2l0.13,27.45c0.01,2.2-1.69,3.93-3.9,3.94c-2.2,0.01-3.92-1.7-3.94-3.9l-0.23-49.75
		c-0.01-2.21,1.69-3.93,3.9-3.94c2.21-0.01,3.93,1.7,3.94,3.9L419.78,82.86z"/>
	<path class="st5" d="M493.74,101.88c0.1,20.1-9.66,29.58-25.59,29.65c-15.81,0.07-25.78-9.31-25.88-29.41
		c-0.09-20.09,9.79-29.46,25.6-29.53C483.8,72.52,493.64,81.78,493.74,101.88 M485.77,101.91c-0.08-15.44-6.6-22.27-17.87-22.21
		c-11.27,0.05-17.74,6.94-17.66,22.38c0.07,15.69,6.6,22.4,17.87,22.35C479.38,124.37,485.85,117.6,485.77,101.91"/>
	<path class="st5" d="M564.5,113.8l-0.08-17.77l-20.46,0.1c-2.09,0.02-3.81-1.7-3.82-3.78c-0.02-2.08,1.7-3.8,3.78-3.81l24.75-0.12
		c1.96-0.01,3.81,1.7,3.81,3.78l0.1,21.45c0.01,1.46-0.48,2.7-1.58,4.05c-5.85,6.89-14.39,13.55-29.22,13.61
		c-23.77,0.12-38.29-12.56-38.43-42.71c-0.13-29.04,14.25-43.08,38.03-43.19c11.64-0.05,21.83,4.92,27.63,12.86
		c0.62,0.86,0.87,1.71,0.87,2.57c0.01,2.21-1.7,3.93-3.9,3.94c-1.1,0-2.2-0.35-3.19-1.58c-4.2-5.74-12.06-10.24-21.37-10.19
		c-18.87,0.1-29.6,11.54-29.49,35.55c0.12,25.49,10.96,35.24,29.82,35.15C553.15,123.65,560.48,118.84,564.5,113.8"/>
	<path class="st5" d="M608.65,71.92c19.61-0.09,23.48,15.45,23.52,23.79c0.02,3.55,0.03,7.84-4.87,7.86l-35.78,0.17
		c0.06,12.12,7.08,19.93,18.6,19.88c7.11-0.03,11.26-2.75,14.67-5.33c0.74-0.5,1.23-0.74,2.21-0.75c1.96-0.01,3.56,1.58,3.56,3.54
		c0.01,1.35-0.6,2.08-1.33,2.82c-1.83,1.85-8.18,6.9-19.09,6.95c-16.29,0.08-26.51-8.81-26.61-29.41
		C583.47,82.59,592.73,72,608.65,71.92 M608.69,79.03c-10.66,0.05-16.5,6.94-17.19,17.85l32.96-0.15
		C624.42,87.9,621.31,78.97,608.69,79.03"/>
	<path class="st5" d="M688.18,93.24l0.15,32.72c0.01,2.21-1.7,3.93-3.9,3.94c-2.2,0.01-3.93-1.69-3.94-3.9l-0.14-31.12
		c-0.05-9.68-2.9-16.28-14.79-16.23c-12.13,0.06-16.26,7.43-16.21,17.23l0.14,30.27c0.01,2.21-1.7,3.93-3.9,3.93
		c-2.2,0.01-3.93-1.69-3.94-3.9l-0.23-49.74c-0.01-2.21,1.7-3.93,3.9-3.94c2.21-0.02,3.93,1.69,3.95,3.9l0.02,3.92
		c2.3-4.66,8.29-8.62,16.25-8.66C684.41,71.57,688.13,82.82,688.18,93.24"/>
	<path class="st5" d="M773.59,108.1c-1.16,0-2.25-0.53-2.95-1.56l-11.51-17.06l-11.36,17.17c-0.68,1.04-1.83,1.58-2.93,1.59
		c-1.86,0.01-3.57-1.56-3.58-3.54c0-0.69,0.2-1.38,0.61-2l13.05-19.36l-13.03-18.9c-0.42-0.62-0.62-1.3-0.62-1.98
		c-0.02-1.85,1.56-3.57,3.54-3.58c1.17,0,2.26,0.54,2.95,1.56l11.31,16.72l11.14-16.83c0.68-1.02,1.85-1.58,2.94-1.58
		c1.85-0.01,3.5,1.62,3.51,3.54c0,0.69-0.21,1.37-0.61,2L763.2,83.3l13.31,19.24c0.4,0.61,0.62,1.3,0.63,1.99
		C777.15,106.37,775.57,108.09,773.59,108.1"/>
	<path class="st5" d="M715.15,59.7l-9.04,0.04c-2.46,0.01-4.43,2-4.42,4.4l0.19,39.23c0.01,2.4,1.99,4.38,4.46,4.36l9.04-0.04
		c11.23-0.05,18.79-7.56,18.74-18.71l-0.05-10.75C734.01,67.07,726.38,59.65,715.15,59.7 M726.86,89.16
		c0.03,7.18-4.11,11.59-11.44,11.62l-6.3,0.03l-0.17-34.17l6.3-0.03c7.33-0.03,11.52,4.26,11.55,11.51L726.86,89.16z"/>
	<path class="st2" d="M776.45,121.94l-73.74,0.35c-1.7,0.01-3.06,1.39-3.06,3.09c0.01,1.7,1.39,3.08,3.09,3.07l73.74-0.35
		c1.7-0.01,3.06-1.39,3.06-3.1C779.53,123.3,778.15,121.93,776.45,121.94"/>
	<g>
		<path class="st1" d="M143.01,44.59c4.12-0.02,7.44-3.37,7.42-7.49c-0.02-4.12-3.38-7.45-7.49-7.42c-4.12,0.02-7.44,3.37-7.42,7.49
			C135.53,41.28,138.89,44.61,143.01,44.59"/>
		<path class="st1" d="M173.32,79.09c-2.39,0.01-4.44,1.41-5.44,3.42l-24.68,0.13l0.03,5.45l24.68-0.11c1.02,2,3.08,3.38,5.48,3.37
			c3.44-0.01,6.23-2.78,6.22-6.16C179.58,81.81,176.77,79.07,173.32,79.09"/>
		<path class="st1" d="M150.35,56.05c1.11,2.53,3.68,4.28,6.65,4.27c3.9-0.02,7.05-3.2,7.03-7.11c-0.01-3.9-3.2-7.06-7.1-7.04
			c-2.97,0.02-5.53,1.8-6.61,4.34l-7.29,0.81l0.02,3.98L150.35,56.05z"/>
		<path class="st1" d="M160.48,71.98c1.1,2.14,3.31,3.6,5.87,3.59c3.71-0.01,6.71-2.99,6.7-6.63c-0.02-3.64-3.05-6.59-6.76-6.57
			c-2.69,0.01-5,1.65-6.01,3.97l-17.16,0.65l0.03,4.5L160.48,71.98z"/>
		<path class="st1" d="M157.35,103.2c0.68,1.36,2.07,2.32,3.69,2.3c2.32,0,4.19-1.86,4.17-4.13c-0.01-2.27-1.9-4.1-4.21-4.09
			c-1.62,0.01-3.02,0.97-3.68,2.34l-14.06-0.39l0.02,4.5L157.35,103.2z"/>
		<path class="st1" d="M147.42,119.12c0.57,0.98,1.61,1.65,2.83,1.65c1.83-0.01,3.31-1.48,3.3-3.28c0-1.8-1.5-3.25-3.34-3.24
			c-1.21,0.01-2.25,0.68-2.81,1.67l-4.06-0.41l0.02,4.07L147.42,119.12z"/>
		<path class="st1" d="M143.51,141.06c4.12-0.02,7.44-3.38,7.42-7.49c-0.02-4.12-3.38-7.45-7.49-7.43
			c-4.12,0.02-7.44,3.38-7.42,7.49C136.03,137.75,139.39,141.07,143.51,141.06"/>
		<path class="st1" d="M143.19,82.64l-24.7,0.11c-1.04-2.01-3.14-3.39-5.58-3.38c-3.38,0.02-6.12,2.78-6.1,6.16
			c0.01,3.38,2.77,6.12,6.16,6.1c2.44-0.01,4.53-1.42,5.55-3.43l24.7-0.12l-0.01-2.72L143.19,82.64z"/>
		<path class="st1" d="M136.38,50.09c-1.8,0.01-3.25,1.48-3.24,3.27c0.01,1.79,1.48,3.25,3.27,3.25c1.24-0.01,2.31-0.69,2.87-1.69
			l3.78,0.39l-0.02-3.98l-3.78,0.42C138.69,50.76,137.61,50.08,136.38,50.09"/>
		<path class="st1" d="M126.3,65.21c-2.27,0.01-4.1,1.87-4.09,4.13c0.01,2.27,1.87,4.11,4.13,4.1c1.65-0.01,3.05-0.96,3.73-2.32
			l13.07,0.37l-0.02-4.5l-13.06,0.49C129.35,66.14,127.94,65.2,126.3,65.21"/>
		<path class="st1" d="M120.18,94.99c-3.71,0.02-6.71,2.99-6.7,6.64c0.02,3.64,3.05,6.59,6.76,6.57c2.62-0.01,4.88-1.58,5.92-3.82
			l17.12-0.65l-0.02-4.5l-17.13-0.48C125.07,96.52,122.81,94.97,120.18,94.99"/>
		<path class="st1" d="M129.81,110.53c-3.9,0.02-7.06,3.21-7.04,7.1c0.02,3.9,3.21,7.07,7.11,7.04c2.98-0.01,5.52-1.8,6.61-4.34
			l6.88-0.77l-0.02-4.07l-6.88-0.7C135.35,112.28,132.79,110.52,129.81,110.53"/>
	</g>
</g>
</svg>
