<?xml version="1.0" encoding="utf-8"?>
<!-- Generator: Adobe Illustrator 23.0.1, SVG Export Plug-In . SVG Version: 6.00 Build 0)  -->
<svg version="1.1" xmlns="http://www.w3.org/2000/svg" xmlns:xlink="http://www.w3.org/1999/xlink" x="0px" y="0px"
	 viewBox="0 0 255.86 81.44" style="enable-background:new 0 0 255.86 81.44;" xml:space="preserve">
<style type="text/css">
	.st0{display:none;}
	.st1{display:inline;}
	.st2{fill:none;stroke:#0096CC;stroke-width:3;stroke-linecap:round;stroke-miterlimit:10;}
	.st3{stroke:#000000;stroke-linecap:round;stroke-linejoin:round;stroke-miterlimit:10;}
	.st4{fill:#0096CC;}
	.st5{fill:#0096CC;stroke:#0096CC;stroke-width:0.6882;stroke-linecap:round;stroke-linejoin:round;stroke-miterlimit:10;}
	.st6{stroke:#FFFFFF;stroke-miterlimit:10;}
	.st7{fill:#FFFFFF;}
</style>
<g id="Layer_1" className="st0">
	<g className="st1">
		<path d="M-134.28-51.47l-12.49-23.24v29.4c0,1.08-0.9,1.97-1.97,1.97c-1.08,0-1.97-0.9-1.97-1.97v-37.22
			c0-1.08,0.9-1.97,1.97-1.97c0.9,0,1.49,0.54,1.79,1.13l14.46,27.07l14.52-27.07c0.24-0.42,0.72-1.13,1.79-1.13
			c1.08,0,1.97,0.9,1.97,1.97v37.22c0,1.08-0.9,1.97-1.97,1.97c-1.07,0-1.97-0.9-1.97-1.97v-29.4l-12.55,23.24
			c-0.42,0.78-1.08,1.13-1.79,1.13C-133.09-50.33-133.86-50.63-134.28-51.47"/>
		<path d="M-106.59-79.31c0-1.73,0.84-2.39,2.27-2.39c1.43,0,2.27,0.66,2.27,2.39c0,1.43-0.84,2.27-2.27,2.27
			C-105.76-77.04-106.59-77.88-106.59-79.31 M-102.41-45.25c0,1.08-0.84,1.91-1.91,1.91c-1.08,0-1.91-0.84-1.91-1.91v-24.26
			c0-1.08,0.84-1.91,1.91-1.91c1.08,0,1.91,0.84,1.91,1.91V-45.25z"/>
		<path d="M-84.13-71.78c5.32,0,8.25,2.81,9.2,4.12c0.3,0.42,0.42,0.72,0.42,1.13c0,1.02-0.78,1.73-1.73,1.73
			c-0.6,0-1.02-0.24-1.43-0.72c-0.9-1.02-2.51-2.81-6.45-2.81c-5.5,0-8.43,3.53-8.43,10.87c0,7.47,2.93,10.93,8.43,10.93
			c3.47,0,5.56-1.55,6.93-2.57c0.42-0.3,0.72-0.42,1.13-0.42c0.96,0,1.73,0.78,1.73,1.73c0,0.54-0.18,0.96-0.78,1.49
			c-1.31,1.08-4.18,3.23-9.02,3.23c-7.71,0-12.31-4.6-12.31-14.4C-96.44-67.24-91.84-71.78-84.13-71.78"/>
		<path d="M-64.47-66.88c1.2-2.75,4.18-4.78,8.31-4.78c1.02,0,1.85,0.84,1.85,1.85c0,1.01-0.84,1.85-1.85,1.85
			c-5.5,0-8.31,3.82-8.31,9.32v13.38c0,1.08-0.84,1.91-1.91,1.91c-1.07,0-1.91-0.84-1.91-1.91v-24.26c0-1.08,0.84-1.91,1.91-1.91
			c1.08,0,1.91,0.84,1.91,1.91V-66.88z"/>
		<path d="M-28.45-57.44c0,9.8-4.78,14.4-12.55,14.4c-7.71,0-12.55-4.6-12.55-14.4c0-9.8,4.84-14.34,12.55-14.34
			C-33.23-71.78-28.45-67.24-28.45-57.44 M-32.34-57.44c0-7.53-3.17-10.87-8.66-10.87c-5.5,0-8.66,3.35-8.66,10.87
			c0,7.65,3.17,10.93,8.66,10.93C-35.51-46.51-32.34-49.79-32.34-57.44"/>
		<path d="M6.02-51.47v-8.66h-9.98c-1.02,0-1.85-0.84-1.85-1.85c0-1.02,0.84-1.85,1.85-1.85H8.11c0.96,0,1.85,0.84,1.85,1.85v10.46
			c0,0.72-0.24,1.31-0.78,1.97c-2.87,3.35-7.05,6.57-14.28,6.57c-11.59,0-18.64-6.21-18.64-20.91c0-14.16,7.05-20.97,18.64-20.97
			c5.68,0,10.63,2.45,13.44,6.33c0.3,0.42,0.42,0.84,0.42,1.25c0,1.08-0.84,1.91-1.91,1.91c-0.54,0-1.08-0.18-1.55-0.78
			c-2.03-2.81-5.86-5.02-10.4-5.02c-9.2,0-14.46,5.56-14.46,17.27c0,12.43,5.26,17.21,14.46,17.21C0.46-46.69,4.05-49.02,6.02-51.47
			"/>
		<path d="M27.65-71.78c9.56,0,11.41,7.59,11.41,11.65c0,1.73,0,3.82-2.39,3.82H19.23c0,5.91,3.4,9.74,9.02,9.74
			c3.47,0,5.5-1.31,7.17-2.57c0.36-0.24,0.6-0.36,1.08-0.36c0.95,0,1.73,0.78,1.73,1.73c0,0.66-0.3,1.02-0.66,1.37
			c-0.9,0.9-4,3.35-9.32,3.35c-7.95,0-12.91-4.36-12.91-14.4C15.34-66.64,19.88-71.78,27.65-71.78 M27.65-68.32
			c-5.2,0-8.07,3.35-8.42,8.66H35.3C35.3-63.96,33.81-68.32,27.65-68.32"/>
		<path d="M66.38-61.21v15.95c0,1.08-0.84,1.91-1.91,1.91c-1.07,0-1.91-0.84-1.91-1.91v-15.18c0-4.72-1.37-7.95-7.17-7.95
			c-5.91,0-7.95,3.58-7.95,8.37v14.76c0,1.08-0.84,1.91-1.91,1.91c-1.07,0-1.91-0.84-1.91-1.91v-24.26c0-1.08,0.84-1.91,1.91-1.91
			c1.07,0,1.91,0.84,1.91,1.91v1.91c1.13-2.27,4.06-4.18,7.95-4.18C64.59-71.78,66.38-66.29,66.38-61.21"/>
		<g>
			<path d="M107.79-53.76c-0.57,0-1.1-0.26-1.43-0.77l-5.57-8.35l-5.57,8.35c-0.34,0.5-0.9,0.77-1.43,0.77
				c-0.91,0-1.74-0.77-1.74-1.73c0-0.34,0.1-0.67,0.3-0.97l6.41-9.41l-6.31-9.25c-0.2-0.3-0.3-0.63-0.3-0.97
				c0-0.9,0.77-1.74,1.74-1.74c0.57,0,1.1,0.27,1.43,0.77l5.48,8.18l5.47-8.18c0.34-0.5,0.91-0.77,1.44-0.77c0.9,0,1.7,0.8,1.7,1.74
				c0,0.34-0.1,0.67-0.3,0.97l-6.31,9.25l6.45,9.41c0.2,0.3,0.3,0.64,0.3,0.97C109.53-54.6,108.76-53.76,107.79-53.76"/>
			<path d="M79.41-77.5H75c-1.21,0-2.17,0.96-2.17,2.13v19.13c0,1.17,0.96,2.14,2.17,2.14h4.41c5.48,0,9.18-3.64,9.18-9.08v-5.24
				C88.59-73.86,84.89-77.5,79.41-77.5z M85.05-63.11c0,3.5-2.03,5.64-5.61,5.64h-3.07v-16.66h3.07c3.57,0,5.61,2.1,5.61,5.64
				V-63.11z"/>
		</g>
		<g>
			<path d="M-150.61-32.1h1.7l6.57,9.43h0.03v-9.43h1.35v11.35h-1.7l-6.57-9.43h-0.03v9.43h-1.35V-32.1z"/>
			<path d="M-136.54-32.1h7.13v1.25h-5.79v3.56h5.4v1.25h-5.4V-22h6.08v1.25h-7.42V-32.1z"/>
			<path d="M-122.75-26.73l-3.82-5.37h1.73l3.06,4.44l3.03-4.44h1.68l-3.82,5.37l4.18,5.98h-1.78l-3.37-5.03l-3.38,5.03h-1.67
				L-122.75-26.73z"/>
			<path d="M-106.1-30.85h-3.75v10.1h-1.35v-10.1h-3.75v-1.25h8.85V-30.85z"/>
			<path d="M-105.69-25.18h3.93v1.15h-3.93V-25.18z"/>
			<path d="M-88.39-21.52c-0.65,0.36-1.34,0.63-2.06,0.8s-1.45,0.26-2.19,0.26c-0.89,0-1.7-0.14-2.44-0.43
				c-0.74-0.29-1.38-0.69-1.92-1.22s-0.96-1.15-1.26-1.88c-0.3-0.73-0.45-1.54-0.45-2.43c0-0.9,0.16-1.71,0.47-2.45
				c0.32-0.73,0.75-1.36,1.31-1.88c0.56-0.52,1.2-0.92,1.94-1.21s1.53-0.43,2.39-0.43c0.75,0,1.47,0.11,2.16,0.34
				s1.31,0.61,1.85,1.15l-1.01,1.06c-0.38-0.42-0.85-0.74-1.4-0.96c-0.55-0.22-1.11-0.34-1.69-0.34c-0.65,0-1.26,0.12-1.81,0.35
				c-0.56,0.24-1.04,0.56-1.45,0.98c-0.41,0.42-0.73,0.91-0.96,1.49c-0.23,0.58-0.34,1.21-0.34,1.89c0,0.67,0.12,1.3,0.34,1.88
				c0.23,0.58,0.55,1.08,0.96,1.5c0.41,0.42,0.91,0.75,1.48,0.99c0.58,0.24,1.21,0.35,1.91,0.35c0.46,0,0.94-0.06,1.44-0.17
				c0.5-0.11,0.96-0.27,1.38-0.49v-3.48h-2.61v-1.25h3.96V-21.52z"/>
			<path d="M-83.96-32.1h7.13v1.25h-5.79v3.56h5.4v1.25h-5.4V-22h6.08v1.25h-7.42V-32.1z"/>
			<path d="M-72.85-32.1h1.7l6.57,9.43h0.03v-9.43h1.35v11.35h-1.7l-6.57-9.43h-0.03v9.43h-1.35V-32.1z"/>
			<path d="M-52.92-32.1h4.36c0.37,0,0.77,0.04,1.19,0.13c0.42,0.09,0.83,0.22,1.24,0.41c0.41,0.19,0.81,0.43,1.19,0.73
				c0.38,0.3,0.71,0.66,1,1.08c0.29,0.42,0.52,0.91,0.69,1.46c0.17,0.55,0.26,1.17,0.26,1.87c0,0.7-0.09,1.32-0.26,1.87
				c-0.17,0.55-0.4,1.04-0.69,1.46c-0.29,0.42-0.62,0.78-1,1.08c-0.38,0.3-0.78,0.54-1.19,0.73c-0.41,0.19-0.83,0.32-1.24,0.41
				c-0.42,0.09-0.81,0.13-1.19,0.13h-4.36V-32.1z M-51.57-22h2.57c0.65,0,1.26-0.09,1.81-0.26c0.56-0.17,1.04-0.44,1.44-0.79
				c0.41-0.36,0.73-0.81,0.96-1.37c0.24-0.56,0.35-1.22,0.35-2c0-0.78-0.12-1.45-0.35-2c-0.24-0.56-0.56-1.01-0.96-1.37
				c-0.41-0.36-0.89-0.62-1.44-0.79c-0.56-0.17-1.16-0.26-1.81-0.26h-2.57V-22z"/>
			<path d="M-39.23-32.1h1.7l6.57,9.43h0.03v-9.43h1.35v11.35h-1.7l-6.57-9.43h-0.03v9.43h-1.35V-32.1z"/>
			<path d="M-21.46-32.1h1.27l4.83,11.35h-1.57l-1.15-2.79h-5.68l-1.17,2.79h-1.52L-21.46-32.1z M-20.85-30.37h-0.03l-2.36,5.58
				h4.63L-20.85-30.37z"/>
			<path d="M-0.81-30.1c-0.22-0.36-0.52-0.63-0.9-0.79s-0.76-0.25-1.17-0.25c-0.3,0-0.59,0.04-0.88,0.11
				c-0.29,0.07-0.55,0.19-0.78,0.34c-0.23,0.15-0.41,0.35-0.55,0.59c-0.14,0.25-0.21,0.53-0.21,0.87c0,0.26,0.04,0.48,0.12,0.68
				c0.08,0.2,0.21,0.38,0.39,0.54c0.18,0.16,0.43,0.31,0.74,0.45c0.31,0.14,0.69,0.28,1.14,0.42c0.44,0.14,0.86,0.29,1.27,0.45
				s0.78,0.36,1.09,0.61c0.31,0.25,0.57,0.55,0.75,0.92c0.19,0.37,0.28,0.83,0.28,1.39c0,0.57-0.11,1.06-0.34,1.48
				c-0.22,0.42-0.52,0.76-0.89,1.03C-1.1-21-1.53-20.8-2.01-20.66c-0.48,0.13-0.98,0.2-1.49,0.2c-0.33,0-0.66-0.03-0.99-0.09
				c-0.33-0.06-0.65-0.15-0.95-0.27c-0.3-0.12-0.59-0.28-0.86-0.48c-0.27-0.2-0.5-0.44-0.69-0.73l1.15-0.95
				c0.25,0.42,0.59,0.73,1.03,0.95s0.9,0.32,1.39,0.32c0.29,0,0.58-0.04,0.87-0.13s0.56-0.21,0.79-0.38
				c0.24-0.17,0.43-0.37,0.58-0.62c0.15-0.25,0.22-0.53,0.22-0.85c0-0.35-0.06-0.64-0.18-0.86c-0.12-0.22-0.3-0.41-0.54-0.57
				s-0.56-0.3-0.93-0.43c-0.38-0.13-0.81-0.28-1.32-0.45c-0.41-0.13-0.78-0.28-1.12-0.44s-0.64-0.37-0.89-0.61
				c-0.25-0.24-0.45-0.53-0.59-0.87c-0.14-0.34-0.22-0.74-0.22-1.21c0-0.54,0.11-1.02,0.32-1.43s0.5-0.75,0.87-1.02
				c0.36-0.27,0.77-0.48,1.23-0.62c0.46-0.14,0.94-0.21,1.44-0.21c0.64,0,1.23,0.1,1.76,0.3c0.53,0.2,1,0.54,1.42,1.03L-0.81-30.1z"
				/>
			<path d="M4.32-32.1h7.13v1.25H5.67v3.56h5.4v1.25h-5.4V-22h6.08v1.25H4.32V-32.1z"/>
			<path d="M27.21-20.75h-6.59c-0.83,0-1.61-0.15-2.32-0.45s-1.33-0.71-1.84-1.23c-0.52-0.52-0.93-1.13-1.23-1.84
				c-0.3-0.71-0.45-1.48-0.45-2.3s0.15-1.59,0.45-2.3c0.3-0.71,0.71-1.33,1.23-1.84c0.52-0.52,1.13-0.93,1.84-1.23
				s1.48-0.45,2.32-0.45s1.61,0.15,2.32,0.45s1.33,0.71,1.84,1.23s0.93,1.13,1.23,1.84c0.3,0.71,0.45,1.48,0.45,2.3
				c0,0.48-0.06,0.96-0.19,1.44c-0.13,0.48-0.31,0.92-0.55,1.33c-0.24,0.41-0.53,0.78-0.87,1.11c-0.34,0.33-0.72,0.58-1.15,0.76
				v0.03h3.51V-20.75z M16.22-26.57c0,0.64,0.11,1.24,0.34,1.8s0.53,1.04,0.92,1.45c0.39,0.41,0.85,0.74,1.39,0.97
				C19.4-22.12,19.98-22,20.61-22c0.62,0,1.2-0.12,1.74-0.35c0.54-0.23,1-0.56,1.39-0.97c0.39-0.41,0.7-0.9,0.92-1.45
				s0.34-1.15,0.34-1.8c0-0.63-0.11-1.22-0.33-1.78c-0.22-0.56-0.52-1.04-0.91-1.45c-0.39-0.41-0.85-0.74-1.39-0.98
				c-0.53-0.24-1.12-0.36-1.76-0.36c-0.64,0-1.23,0.12-1.76,0.36c-0.53,0.24-1,0.57-1.39,0.98c-0.39,0.41-0.7,0.9-0.91,1.45
				S16.22-27.2,16.22-26.57z"/>
			<path d="M38.93-25.08c0,0.62-0.08,1.21-0.23,1.76c-0.15,0.56-0.4,1.04-0.74,1.47s-0.78,0.76-1.32,1.01
				c-0.55,0.25-1.21,0.38-1.99,0.38c-0.78,0-1.44-0.13-1.99-0.38c-0.55-0.25-0.99-0.59-1.32-1.01s-0.58-0.91-0.74-1.47
				c-0.16-0.56-0.23-1.14-0.23-1.76v-7.02h1.35v6.83c0,0.46,0.05,0.9,0.14,1.33c0.1,0.43,0.26,0.81,0.48,1.14s0.52,0.6,0.9,0.79
				c0.37,0.2,0.84,0.3,1.41,0.3c0.57,0,1.04-0.1,1.41-0.3c0.37-0.2,0.67-0.46,0.9-0.79s0.38-0.71,0.48-1.14
				c0.1-0.43,0.14-0.87,0.14-1.33v-6.83h1.35V-25.08z"/>
			<path d="M43.3-32.1h7.13v1.25h-5.79v3.56h5.4v1.25h-5.4V-22h6.08v1.25H43.3V-32.1z"/>
			<path d="M54.41-32.1h1.7l6.57,9.43h0.03v-9.43h1.35v11.35h-1.7l-6.57-9.43h-0.03v9.43h-1.35V-32.1z"/>
			<path d="M76.45-29.76c-0.34-0.46-0.76-0.8-1.27-1.03c-0.5-0.23-1.03-0.34-1.57-0.34c-0.63,0-1.21,0.13-1.74,0.38
				c-0.53,0.26-0.99,0.6-1.37,1.03s-0.68,0.94-0.9,1.51s-0.32,1.17-0.32,1.79c0,0.66,0.11,1.28,0.32,1.85s0.51,1.07,0.89,1.49
				c0.38,0.42,0.83,0.76,1.36,1c0.53,0.25,1.11,0.37,1.76,0.37c0.69,0,1.31-0.14,1.86-0.41c0.54-0.27,1.02-0.67,1.43-1.18l1.01,0.85
				c-0.51,0.68-1.13,1.19-1.85,1.51c-0.72,0.32-1.54,0.48-2.45,0.48c-0.81,0-1.57-0.15-2.28-0.45c-0.71-0.3-1.32-0.71-1.84-1.24
				c-0.52-0.53-0.92-1.16-1.22-1.88c-0.29-0.73-0.44-1.52-0.44-2.39c0-0.83,0.14-1.61,0.42-2.34s0.68-1.36,1.19-1.89
				c0.51-0.53,1.12-0.96,1.83-1.27c0.71-0.31,1.48-0.47,2.33-0.47c0.77,0,1.51,0.14,2.22,0.42c0.71,0.28,1.31,0.73,1.79,1.36
				L76.45-29.76z"/>
			<path d="M81.38-32.1h1.35v11.35h-1.35V-32.1z"/>
			<path d="M87.16-32.1h1.7l6.57,9.43h0.03v-9.43h1.35v11.35h-1.7l-6.57-9.43H88.5v9.43h-1.35V-32.1z"/>
			<path d="M110.89-21.52c-0.65,0.36-1.34,0.63-2.06,0.8s-1.45,0.26-2.19,0.26c-0.89,0-1.7-0.14-2.44-0.43
				c-0.74-0.29-1.38-0.69-1.92-1.22s-0.96-1.15-1.26-1.88c-0.3-0.73-0.45-1.54-0.45-2.43c0-0.9,0.16-1.71,0.47-2.45
				c0.32-0.73,0.75-1.36,1.31-1.88c0.56-0.52,1.2-0.92,1.94-1.21s1.53-0.43,2.39-0.43c0.75,0,1.47,0.11,2.16,0.34
				s1.31,0.61,1.85,1.15l-1.01,1.06c-0.38-0.42-0.85-0.74-1.4-0.96c-0.55-0.22-1.11-0.34-1.69-0.34c-0.65,0-1.26,0.12-1.81,0.35
				c-0.56,0.24-1.04,0.56-1.45,0.98c-0.41,0.42-0.73,0.91-0.96,1.49c-0.23,0.58-0.34,1.21-0.34,1.89c0,0.67,0.12,1.3,0.34,1.88
				c0.23,0.58,0.55,1.08,0.96,1.5c0.41,0.42,0.91,0.75,1.48,0.99c0.58,0.24,1.21,0.35,1.91,0.35c0.46,0,0.94-0.06,1.44-0.17
				c0.5-0.11,0.96-0.27,1.38-0.49v-3.48h-2.61v-1.25h3.96V-21.52z"/>
			<path d="M-151.08-15.49h4.69v0.83h-3.79v2.5h3.53v0.83h-3.53v3.4h-0.9V-15.49z"/>
			<path d="M-140.64-7.73c-0.58,0-1.11-0.1-1.59-0.3c-0.48-0.2-0.9-0.48-1.25-0.83c-0.35-0.35-0.63-0.77-0.82-1.26
				c-0.2-0.49-0.29-1.02-0.29-1.59c0-0.57,0.1-1.1,0.29-1.59c0.2-0.49,0.47-0.91,0.82-1.26c0.35-0.35,0.77-0.63,1.25-0.83
				c0.48-0.2,1.01-0.3,1.59-0.3c0.58,0,1.11,0.1,1.59,0.3c0.48,0.2,0.9,0.48,1.25,0.83c0.35,0.35,0.63,0.77,0.82,1.26
				c0.2,0.49,0.29,1.02,0.29,1.59c0,0.57-0.1,1.1-0.29,1.59c-0.2,0.49-0.47,0.91-0.82,1.26c-0.35,0.35-0.77,0.63-1.25,0.83
				C-139.53-7.83-140.06-7.73-140.64-7.73z M-140.64-8.56c0.44,0,0.85-0.08,1.21-0.25s0.68-0.39,0.95-0.67s0.47-0.62,0.61-1
				s0.22-0.79,0.22-1.22c0-0.43-0.07-0.84-0.22-1.22c-0.15-0.38-0.35-0.71-0.61-1c-0.26-0.29-0.58-0.51-0.95-0.67
				c-0.37-0.16-0.77-0.25-1.21-0.25c-0.44,0-0.85,0.08-1.21,0.25c-0.37,0.16-0.68,0.39-0.95,0.67c-0.26,0.28-0.47,0.62-0.61,1
				c-0.15,0.38-0.22,0.79-0.22,1.22c0,0.44,0.07,0.84,0.22,1.22c0.15,0.38,0.35,0.71,0.61,1s0.58,0.51,0.95,0.67
				S-141.08-8.56-140.64-8.56z"/>
			<path d="M-134.26-15.49h1.93c0.36,0,0.73,0.02,1.09,0.06c0.36,0.04,0.68,0.14,0.97,0.28s0.52,0.35,0.7,0.63
				c0.18,0.27,0.27,0.65,0.27,1.12c0,0.56-0.17,1-0.5,1.35c-0.33,0.34-0.8,0.56-1.39,0.65l2.15,3.48h-1.1l-2.05-3.4h-1.15v3.4h-0.9
				V-15.49z M-133.36-12.16h0.8c0.25,0,0.51-0.01,0.77-0.02c0.27-0.01,0.51-0.06,0.74-0.14c0.22-0.08,0.41-0.2,0.56-0.37
				c0.15-0.17,0.22-0.41,0.22-0.72c0-0.27-0.05-0.49-0.16-0.65c-0.11-0.16-0.25-0.29-0.42-0.38c-0.17-0.09-0.37-0.15-0.59-0.18
				c-0.22-0.03-0.44-0.04-0.66-0.04h-1.26V-12.16z"/>
			<path d="M-120.33-15.49h0.84l3.22,7.57h-1.05l-0.77-1.86h-3.78l-0.78,1.86h-1.02L-120.33-15.49z M-119.92-14.34h-0.02l-1.57,3.72
				h3.09L-119.92-14.34z"/>
			<path d="M-108.98-13.93c-0.23-0.31-0.51-0.54-0.84-0.69s-0.68-0.23-1.05-0.23c-0.42,0-0.81,0.09-1.16,0.26
				c-0.35,0.17-0.66,0.4-0.91,0.69c-0.26,0.29-0.46,0.62-0.6,1c-0.14,0.38-0.21,0.78-0.21,1.19c0,0.44,0.07,0.85,0.21,1.23
				c0.14,0.38,0.34,0.71,0.59,0.99c0.25,0.28,0.56,0.5,0.91,0.67c0.35,0.16,0.74,0.25,1.17,0.25c0.46,0,0.88-0.09,1.24-0.27
				s0.68-0.44,0.95-0.79l0.67,0.57c-0.34,0.46-0.75,0.79-1.24,1c-0.48,0.21-1.02,0.32-1.63,0.32c-0.54,0-1.05-0.1-1.52-0.3
				c-0.47-0.2-0.88-0.48-1.22-0.83c-0.35-0.35-0.62-0.77-0.81-1.26c-0.2-0.48-0.29-1.02-0.29-1.59c0-0.56,0.09-1.08,0.28-1.56
				c0.19-0.48,0.45-0.9,0.8-1.26s0.75-0.64,1.22-0.84c0.47-0.21,0.99-0.31,1.55-0.31c0.51,0,1.01,0.09,1.48,0.28
				c0.47,0.19,0.87,0.49,1.19,0.91L-108.98-13.93z"/>
			<path d="M-100.47-13.93c-0.23-0.31-0.51-0.54-0.84-0.69s-0.68-0.23-1.05-0.23c-0.42,0-0.81,0.09-1.16,0.26
				c-0.35,0.17-0.66,0.4-0.91,0.69c-0.26,0.29-0.46,0.62-0.6,1c-0.14,0.38-0.21,0.78-0.21,1.19c0,0.44,0.07,0.85,0.21,1.23
				c0.14,0.38,0.34,0.71,0.59,0.99c0.25,0.28,0.56,0.5,0.91,0.67c0.35,0.16,0.74,0.25,1.17,0.25c0.46,0,0.88-0.09,1.24-0.27
				s0.68-0.44,0.95-0.79l0.67,0.57c-0.34,0.46-0.75,0.79-1.24,1c-0.48,0.21-1.02,0.32-1.63,0.32c-0.54,0-1.05-0.1-1.52-0.3
				c-0.47-0.2-0.88-0.48-1.22-0.83c-0.35-0.35-0.62-0.77-0.81-1.26c-0.2-0.48-0.29-1.02-0.29-1.59c0-0.56,0.09-1.08,0.28-1.56
				c0.19-0.48,0.45-0.9,0.8-1.26s0.75-0.64,1.22-0.84c0.47-0.21,0.99-0.31,1.55-0.31c0.51,0,1.01,0.09,1.48,0.28
				c0.47,0.19,0.87,0.49,1.19,0.91L-100.47-13.93z"/>
			<path d="M-91.59-10.81c0,0.41-0.05,0.81-0.16,1.18c-0.1,0.37-0.27,0.7-0.49,0.98c-0.22,0.28-0.52,0.51-0.88,0.67
				c-0.36,0.17-0.8,0.25-1.33,0.25s-0.96-0.08-1.33-0.25c-0.36-0.17-0.66-0.39-0.88-0.67c-0.22-0.28-0.39-0.61-0.49-0.98
				c-0.1-0.37-0.16-0.76-0.16-1.18v-4.68h0.9v4.55c0,0.31,0.03,0.6,0.1,0.89c0.06,0.29,0.17,0.54,0.32,0.76s0.35,0.4,0.6,0.53
				c0.25,0.13,0.56,0.2,0.94,0.2s0.69-0.07,0.94-0.2c0.25-0.13,0.45-0.31,0.6-0.53c0.15-0.22,0.26-0.47,0.32-0.76
				c0.06-0.28,0.1-0.58,0.1-0.89v-4.55h0.9V-10.81z"/>
			<path d="M-88.75-15.49h1.93c0.36,0,0.73,0.02,1.09,0.06c0.36,0.04,0.68,0.14,0.97,0.28s0.52,0.35,0.7,0.63
				c0.18,0.27,0.27,0.65,0.27,1.12c0,0.56-0.17,1-0.5,1.35c-0.33,0.34-0.8,0.56-1.39,0.65l2.15,3.48h-1.1l-2.05-3.4h-1.15v3.4h-0.9
				V-15.49z M-87.86-12.16h0.8c0.25,0,0.51-0.01,0.77-0.02c0.27-0.01,0.51-0.06,0.74-0.14c0.22-0.08,0.41-0.2,0.56-0.37
				c0.15-0.17,0.22-0.41,0.22-0.72c0-0.27-0.05-0.49-0.16-0.65c-0.11-0.16-0.25-0.29-0.42-0.38c-0.17-0.09-0.37-0.15-0.59-0.18
				c-0.22-0.03-0.44-0.04-0.66-0.04h-1.26V-12.16z"/>
			<path d="M-78.78-15.49h0.84l3.22,7.57h-1.05l-0.77-1.86h-3.78l-0.78,1.86h-1.02L-78.78-15.49z M-78.37-14.34h-0.02l-1.57,3.72
				h3.09L-78.37-14.34z"/>
			<path d="M-68.64-14.66h-2.5v6.73h-0.9v-6.73h-2.5v-0.83h5.9V-14.66z"/>
			<path d="M-66.6-15.49h4.76v0.83h-3.86v2.37h3.6v0.83h-3.6v2.69h4.05v0.83h-4.95V-15.49z"/>
			<path d="M-55.32-15.49h1.34l2.57,5.93h0.02l2.59-5.93h1.3v7.57h-0.9v-6.35h-0.02l-2.71,6.35h-0.54l-2.71-6.35h-0.02v6.35h-0.9
				V-15.49z"/>
			<path d="M-44.64-15.49h0.9v7.57h-0.9V-15.49z"/>
			<path d="M-35.57-13.93c-0.23-0.31-0.51-0.54-0.84-0.69s-0.68-0.23-1.05-0.23c-0.42,0-0.81,0.09-1.16,0.26
				c-0.35,0.17-0.66,0.4-0.91,0.69c-0.26,0.29-0.46,0.62-0.6,1c-0.14,0.38-0.21,0.78-0.21,1.19c0,0.44,0.07,0.85,0.21,1.23
				c0.14,0.38,0.34,0.71,0.59,0.99c0.25,0.28,0.56,0.5,0.91,0.67c0.35,0.16,0.74,0.25,1.17,0.25c0.46,0,0.88-0.09,1.24-0.27
				s0.68-0.44,0.95-0.79l0.67,0.57c-0.34,0.46-0.75,0.79-1.24,1c-0.48,0.21-1.02,0.32-1.63,0.32c-0.54,0-1.05-0.1-1.52-0.3
				c-0.47-0.2-0.88-0.48-1.22-0.83c-0.35-0.35-0.62-0.77-0.81-1.26c-0.2-0.48-0.29-1.02-0.29-1.59c0-0.56,0.09-1.08,0.28-1.56
				c0.19-0.48,0.45-0.9,0.8-1.26s0.75-0.64,1.22-0.84c0.47-0.21,0.99-0.31,1.55-0.31c0.51,0,1.01,0.09,1.48,0.28
				c0.47,0.19,0.87,0.49,1.19,0.91L-35.57-13.93z"/>
			<path d="M-32.37-15.49h1.93c0.36,0,0.73,0.02,1.09,0.06c0.36,0.04,0.68,0.14,0.97,0.28s0.52,0.35,0.7,0.63
				c0.18,0.27,0.27,0.65,0.27,1.12c0,0.56-0.17,1-0.5,1.35c-0.33,0.34-0.8,0.56-1.39,0.65l2.15,3.48h-1.1l-2.05-3.4h-1.15v3.4h-0.9
				V-15.49z M-31.47-12.16h0.8c0.25,0,0.51-0.01,0.77-0.02c0.27-0.01,0.51-0.06,0.74-0.14c0.22-0.08,0.41-0.2,0.56-0.37
				c0.15-0.17,0.22-0.41,0.22-0.72c0-0.27-0.05-0.49-0.16-0.65c-0.11-0.16-0.25-0.29-0.42-0.38c-0.17-0.09-0.37-0.15-0.59-0.18
				c-0.22-0.03-0.44-0.04-0.66-0.04h-1.26V-12.16z"/>
			<path d="M-21.33-7.73c-0.58,0-1.11-0.1-1.59-0.3c-0.48-0.2-0.9-0.48-1.25-0.83c-0.35-0.35-0.63-0.77-0.82-1.26
				c-0.2-0.49-0.29-1.02-0.29-1.59c0-0.57,0.1-1.1,0.29-1.59c0.2-0.49,0.47-0.91,0.82-1.26c0.35-0.35,0.77-0.63,1.25-0.83
				c0.48-0.2,1.01-0.3,1.59-0.3c0.58,0,1.11,0.1,1.59,0.3c0.48,0.2,0.9,0.48,1.25,0.83c0.35,0.35,0.63,0.77,0.82,1.26
				c0.2,0.49,0.29,1.02,0.29,1.59c0,0.57-0.1,1.1-0.29,1.59c-0.2,0.49-0.47,0.91-0.82,1.26c-0.35,0.35-0.77,0.63-1.25,0.83
				C-20.23-7.83-20.76-7.73-21.33-7.73z M-21.33-8.56c0.44,0,0.85-0.08,1.21-0.25s0.68-0.39,0.95-0.67s0.47-0.62,0.61-1
				s0.22-0.79,0.22-1.22c0-0.43-0.07-0.84-0.22-1.22c-0.15-0.38-0.35-0.71-0.61-1c-0.26-0.29-0.58-0.51-0.95-0.67
				c-0.37-0.16-0.77-0.25-1.21-0.25c-0.44,0-0.85,0.08-1.21,0.25c-0.37,0.16-0.68,0.39-0.95,0.67c-0.26,0.28-0.47,0.62-0.61,1
				c-0.15,0.38-0.22,0.79-0.22,1.22c0,0.44,0.07,0.84,0.22,1.22c0.15,0.38,0.35,0.71,0.61,1s0.58,0.51,0.95,0.67
				S-21.78-8.56-21.33-8.56z"/>
			<path d="M-14.95-15.49h2.31c0.31,0,0.62,0.03,0.92,0.1c0.3,0.06,0.57,0.17,0.8,0.32s0.43,0.34,0.57,0.57
				c0.15,0.24,0.22,0.53,0.22,0.88c0,0.44-0.12,0.81-0.36,1.1c-0.24,0.29-0.56,0.49-0.97,0.61v0.02c0.24,0.02,0.47,0.08,0.68,0.19
				c0.21,0.1,0.39,0.24,0.54,0.4c0.15,0.16,0.27,0.35,0.36,0.57c0.08,0.22,0.13,0.45,0.13,0.7c0,0.42-0.09,0.77-0.26,1.04
				s-0.4,0.49-0.68,0.65c-0.28,0.16-0.6,0.27-0.95,0.34s-0.7,0.1-1.05,0.1h-2.26V-15.49z M-14.06-12.28h1.24
				c0.21,0,0.42-0.01,0.63-0.04c0.2-0.03,0.39-0.09,0.55-0.18c0.16-0.09,0.29-0.21,0.4-0.37c0.1-0.16,0.15-0.37,0.15-0.64
				c0-0.23-0.05-0.43-0.14-0.57c-0.09-0.15-0.21-0.26-0.37-0.35s-0.33-0.14-0.52-0.18c-0.2-0.03-0.39-0.05-0.59-0.05h-1.34V-12.28z
				 M-14.06-8.76h1.52c0.22,0,0.44-0.02,0.66-0.07c0.22-0.05,0.41-0.12,0.59-0.22c0.17-0.1,0.32-0.24,0.42-0.41
				c0.11-0.17,0.16-0.37,0.16-0.61c0-0.26-0.05-0.48-0.16-0.66c-0.1-0.18-0.24-0.32-0.41-0.43c-0.17-0.11-0.36-0.18-0.58-0.22
				c-0.22-0.04-0.44-0.06-0.67-0.06h-1.54V-8.76z"/>
			<path d="M-7.24-15.49h0.9v7.57h-0.9V-15.49z"/>
			<path d="M-1.01-15.49h0.84l3.22,7.57H2L1.23-9.78h-3.78l-0.78,1.86h-1.02L-1.01-15.49z M-0.61-14.34h-0.02l-1.57,3.72h3.09
				L-0.61-14.34z"/>
			<path d="M5.04-15.49h0.9v6.73H9.4v0.83H5.04V-15.49z"/>
			<path d="M15.32-15.49h0.9v7.57h-0.9V-15.49z"/>
			<path d="M18.94-15.49h2.91c0.25,0,0.51,0.03,0.79,0.09c0.28,0.06,0.55,0.15,0.83,0.27c0.27,0.12,0.54,0.29,0.79,0.49
				s0.48,0.44,0.67,0.72c0.19,0.28,0.35,0.61,0.46,0.97c0.11,0.37,0.17,0.78,0.17,1.25c0,0.46-0.06,0.88-0.17,1.25
				c-0.11,0.37-0.27,0.69-0.46,0.97s-0.42,0.52-0.67,0.72c-0.25,0.2-0.52,0.36-0.79,0.49c-0.27,0.12-0.55,0.22-0.83,0.27
				c-0.28,0.06-0.54,0.09-0.79,0.09h-2.91V-15.49z M19.84-8.76h1.71c0.43,0,0.84-0.06,1.21-0.17c0.37-0.11,0.69-0.29,0.96-0.53
				c0.27-0.24,0.48-0.54,0.64-0.91c0.16-0.37,0.23-0.82,0.23-1.34c0-0.52-0.08-0.97-0.23-1.34c-0.16-0.37-0.37-0.68-0.64-0.91
				c-0.27-0.24-0.59-0.42-0.96-0.53c-0.37-0.11-0.77-0.17-1.21-0.17h-1.71V-8.76z"/>
			<path d="M27.99-15.49h4.76v0.83h-3.86v2.37h3.6v0.83h-3.6v2.69h4.05v0.83h-4.95V-15.49z"/>
			<path d="M35.31-15.49h1.13l4.38,6.29h0.02v-6.29h0.9v7.57h-1.13l-4.38-6.29h-0.02v6.29h-0.9V-15.49z"/>
			<path d="M49.69-14.66h-2.5v6.73h-0.9v-6.73h-2.5v-0.83h5.9V-14.66z"/>
			<path d="M51.73-15.49h0.9v7.57h-0.9V-15.49z"/>
			<path d="M55.49-15.49h4.69v0.83h-3.79v2.5h3.53v0.83h-3.53v3.4h-0.9V-15.49z"/>
			<path d="M62.42-15.49h0.9v7.57h-0.9V-15.49z"/>
			<path d="M71.48-13.93c-0.23-0.31-0.51-0.54-0.84-0.69s-0.68-0.23-1.05-0.23c-0.42,0-0.81,0.09-1.16,0.26
				c-0.35,0.17-0.66,0.4-0.91,0.69c-0.26,0.29-0.46,0.62-0.6,1c-0.14,0.38-0.21,0.78-0.21,1.19c0,0.44,0.07,0.85,0.21,1.23
				c0.14,0.38,0.34,0.71,0.59,0.99c0.25,0.28,0.56,0.5,0.91,0.67c0.35,0.16,0.74,0.25,1.17,0.25c0.46,0,0.88-0.09,1.24-0.27
				s0.68-0.44,0.95-0.79l0.67,0.57c-0.34,0.46-0.75,0.79-1.24,1c-0.48,0.21-1.02,0.32-1.63,0.32c-0.54,0-1.05-0.1-1.52-0.3
				c-0.47-0.2-0.88-0.48-1.22-0.83c-0.35-0.35-0.62-0.77-0.81-1.26c-0.2-0.48-0.29-1.02-0.29-1.59c0-0.56,0.09-1.08,0.28-1.56
				c0.19-0.48,0.45-0.9,0.8-1.26s0.75-0.64,1.22-0.84c0.47-0.21,0.99-0.31,1.55-0.31c0.51,0,1.01,0.09,1.48,0.28
				c0.47,0.19,0.87,0.49,1.19,0.91L71.48-13.93z"/>
			<path d="M77.15-15.49h0.84l3.22,7.57h-1.05l-0.77-1.86h-3.78l-0.78,1.86h-1.02L77.15-15.49z M77.55-14.34h-0.02l-1.57,3.72h3.09
				L77.55-14.34z"/>
			<path d="M87.29-14.66h-2.5v6.73h-0.9v-6.73h-2.5v-0.83h5.9V-14.66z"/>
			<path d="M89.33-15.49h0.9v7.57h-0.9V-15.49z"/>
			<path d="M96.61-7.73c-0.58,0-1.11-0.1-1.59-0.3c-0.48-0.2-0.9-0.48-1.25-0.83c-0.35-0.35-0.63-0.77-0.82-1.26
				c-0.2-0.49-0.29-1.02-0.29-1.59c0-0.57,0.1-1.1,0.29-1.59c0.2-0.49,0.47-0.91,0.82-1.26c0.35-0.35,0.77-0.63,1.25-0.83
				c0.48-0.2,1.01-0.3,1.59-0.3c0.58,0,1.11,0.1,1.59,0.3c0.48,0.2,0.9,0.48,1.25,0.83c0.35,0.35,0.63,0.77,0.82,1.26
				c0.2,0.49,0.29,1.02,0.29,1.59c0,0.57-0.1,1.1-0.29,1.59c-0.2,0.49-0.47,0.91-0.82,1.26c-0.35,0.35-0.77,0.63-1.25,0.83
				C97.72-7.83,97.19-7.73,96.61-7.73z M96.61-8.56c0.44,0,0.85-0.08,1.21-0.25s0.68-0.39,0.95-0.67s0.47-0.62,0.61-1
				s0.22-0.79,0.22-1.22c0-0.43-0.07-0.84-0.22-1.22c-0.15-0.38-0.35-0.71-0.61-1c-0.26-0.29-0.58-0.51-0.95-0.67
				c-0.37-0.16-0.77-0.25-1.21-0.25c-0.44,0-0.85,0.08-1.21,0.25c-0.37,0.16-0.68,0.39-0.95,0.67c-0.26,0.28-0.47,0.62-0.61,1
				c-0.15,0.38-0.22,0.79-0.22,1.22c0,0.44,0.07,0.84,0.22,1.22c0.15,0.38,0.35,0.71,0.61,1s0.58,0.51,0.95,0.67
				S96.17-8.56,96.61-8.56z"/>
			<path d="M102.99-15.49h1.13l4.38,6.29h0.02v-6.29h0.9v7.57h-1.13l-4.38-6.29h-0.02v6.29h-0.9V-15.49z"/>
		</g>
		<line className="st2" x1="73.58" y1="-45.51" x2="109.53" y2="-45.51"/>
		<g>
			<g>
				<path d="M-173.88-97.19c0.22-0.42,0.85-0.23,0.8,0.24c-0.52,5.2-3.57,19.17-21.01,28.21c-11.64,5.87-25.74,14.23-16.16,36.81
					c0.2,0.47-0.45,0.83-0.74,0.41c-2.8-3.98-5.31-8.31-6.57-13.03c-1.16-4.33-1.06-8.87,0.69-13.03c2.23-5.3,6.61-9.39,11.24-12.63
					c1.43-1,2.91-1.94,4.42-2.82c3.23-1.89,6.41-3.77,9.55-5.82c2.38-1.55,4.76-3.1,7.01-4.84c4.03-3.11,7.13-6.91,9.62-11.33
					C-174.64-95.74-174.25-96.46-173.88-97.19z"/>
			</g>
		</g>
		<g>
			<g>
				<path d="M-192.27-65.18c-0.05-0.48,0.59-0.67,0.81-0.24c2.2,4.4,6.18,16.19-3.73,31.32c-6.9,11.04-9.59,17.7,2.63,28.45
					c0.38,0.33-0.03,0.94-0.48,0.7c-8.23-4.32-19.32-12.09-8.88-29.53C-196.2-44.14-190.46-49.14-192.27-65.18z"/>
			</g>
		</g>
		<g>
			<g>
				<path d="M-191.83-105.37c9.09-3.02,18.53-1.76,27.75-0.16c1.49,0.26,2.99,0.51,4.48,0.76c0.49,0.08,0.52,0.76,0.05,0.9
					c-4.83,1.33-9.78,2.28-14.79,2.56c-5.05,0.29-10.15,0.38-15.12,1.4c-5.76,1.18-10.95,4.02-12.97,9.86
					c-1.15,3.33-1.26,6.95-1.01,10.43c0.04,0.51-0.68,0.7-0.88,0.22C-208.13-88.16-206.18-100.61-191.83-105.37z"/>
			</g>
		</g>
		<g>
			<path className="st3" d="M-182.49-97.02l3.31,2.66c0.32,0.25,0.78,0.19,1.01-0.14c0,0,0.01-0.01,0.01-0.01
				c0.21-0.3,0.15-0.72-0.13-0.95l-3.29-2.64c-0.12-0.1-0.28-0.15-0.43-0.15c-0.01,0-0.02,0-0.03,0
				C-182.71-98.27-183.01-97.43-182.49-97.02z"/>
			<path className="st3" d="M-183.84-88.22c0,0,0.01-0.01,0.01-0.01c0.31-0.29,0.3-0.79-0.04-1.06l-8.28-6.65
				c-0.21-0.17-0.5-0.2-0.74-0.09c-0.01,0-0.02,0.01-0.02,0.01c-0.46,0.22-0.53,0.85-0.13,1.17l8.29,6.66
				C-184.49-87.97-184.1-87.98-183.84-88.22z"/>
			<path className="st3" d="M-189.87-83.23c0,0,0.01-0.01,0.01-0.01c0.37-0.27,0.38-0.82,0.02-1.11l-8.12-6.52
				c-0.33-0.26-0.81-0.18-1.03,0.17c0,0-0.01,0.01-0.01,0.01c-0.19,0.3-0.12,0.7,0.15,0.92l8.11,6.52
				C-190.48-83.05-190.12-83.04-189.87-83.23z"/>
			<path className="st3" d="M-196.37-79.83l-3.48-2.82c-0.4-0.33-1.01-0.12-1.13,0.39l-0.01,0.05c-0.06,0.26,0.04,0.53,0.25,0.7
				l3.46,2.78c0.23,0.19,0.56,0.21,0.81,0.05c0.01-0.01,0.02-0.01,0.03-0.02C-196.03-78.95-196-79.53-196.37-79.83z"/>
		</g>
		<g>
			<path className="st3" d="M-203.59-60.63c0,0-0.01,0.01-0.01,0.01c-0.34,0.37-0.24,0.95,0.19,1.19l8,4.45
				c0.46,0.25,1.03-0.01,1.13-0.52c0-0.01,0-0.01,0-0.02c0.06-0.33-0.09-0.66-0.38-0.82l-7.99-4.44
				C-202.97-60.96-203.35-60.89-203.59-60.63z"/>
			<path className="st3" d="M-196.66-47.49c0-0.01,0.01-0.01,0.01-0.02c0.15-0.36,0.01-0.78-0.33-0.97l-10.83-6.02
				c-0.36-0.2-0.82-0.08-1.03,0.27c0,0.01-0.01,0.01-0.01,0.02c-0.23,0.37-0.09,0.86,0.29,1.07l10.84,6.02
				C-197.34-46.9-196.84-47.07-196.66-47.49z"/>
			<path className="st3" d="M-200.44-41.08c0-0.01,0.01-0.01,0.01-0.02c0.25-0.37,0.12-0.88-0.27-1.1l-9.32-5.17
				c-0.49-0.27-1.09,0.06-1.14,0.62c0,0.01,0,0.02,0,0.02c-0.02,0.3,0.13,0.58,0.39,0.73l9.31,5.17
				C-201.1-40.64-200.66-40.75-200.44-41.08z"/>
			<path className="st3" d="M-204.33-34.9c0-0.01,0.01-0.01,0.01-0.02c0.21-0.37,0.08-0.85-0.29-1.06c-1.72-0.96-3.44-1.91-5.16-2.87
				c-0.23-0.13-0.47-0.25-0.68-0.38c-0.28,0.56,0.04,1.81,0.6,2.12c0,0,4.49,2.49,4.49,2.49C-205-34.41-204.54-34.54-204.33-34.9z"
				/>
		</g>
		<g>
			<path className="st4" d="M-183.51-16.44c1.39,0.76,3.82,0.66,5.33-0.25c1.48-0.89,1.39-2.15-0.08-2.81c-1.4-0.62-3.6-0.48-4.99,0.31
				C-184.68-18.39-184.83-17.17-183.51-16.44z"/>
			<path className="st4" d="M-189.17-12.44c0.91,0.62,2.62,0.58,3.77-0.11c1.13-0.68,1.22-1.68,0.25-2.24
				c-0.93-0.53-2.52-0.46-3.59,0.15C-189.83-14.01-190.05-13.04-189.17-12.44z"/>
			<path className="st4" d="M-177.33-9.29c0.07,1.66,2.33,3.1,5.11,3.14c2.87,0.03,4.91-1.44,4.52-3.19c-0.38-1.63-2.77-2.84-5.31-2.79
				C-175.49-12.08-177.39-10.85-177.33-9.29z"/>
			<path className="st4" d="M-186.33-8.61c-0.13,1.12,1.14,2.07,2.88,2.08c1.78,0.01,3.25-0.95,3.24-2.11c-0.01-1.1-1.36-1.94-3-1.92
				C-184.82-10.53-186.2-9.68-186.33-8.61z"/>
			<path className="st4" d="M-198.6,7.49c-2.64-0.26-5.44,1.6-6.4,4.32c-1.03,2.95,0.4,5.91,3.39,6.41c3.11,0.52,6.29-1.85,6.95-5.06
				C-194.06,10.2-195.88,7.76-198.6,7.49z"/>
			<path className="st4" d="M-196.5-0.55c-1.67-0.08-3.39,1-3.89,2.47c-0.53,1.55,0.47,3,2.29,3.15c1.87,0.16,3.73-1.1,4.1-2.73
				C-193.64,0.8-194.78-0.47-196.5-0.55z"/>
			<path className="st4" d="M-210.85,2.15c-0.77-1.49-3.07-1.63-5.25-0.37c-2.23,1.29-3.68,3.68-3.17,5.4c0.56,1.85,3.1,2.16,5.6,0.62
				C-211.25,6.3-210.03,3.74-210.85,2.15z"/>
			<path className="st4" d="M-202.92-2.42c-0.68-0.91-2.33-0.96-3.75-0.14c-1.44,0.84-2.19,2.32-1.62,3.34c0.6,1.07,2.39,1.2,3.94,0.24
				C-202.82,0.1-202.21-1.46-202.92-2.42z"/>
			<path className="st4" d="M-211.28-7.21c0.82-1.38,0.11-2.44-1.53-2.42c-1.6,0.02-3.59,1.05-4.53,2.38c-0.99,1.4-0.47,2.61,1.25,2.66
				C-214.34-4.55-212.15-5.75-211.28-7.21z"/>
			<path className="st4" d="M-204.13-6.98c0.48-1.02-0.18-1.81-1.45-1.8c-1.24,0.01-2.68,0.79-3.24,1.77c-0.58,1.03-0.02,1.91,1.3,1.94
				C-206.17-5.05-204.64-5.92-204.13-6.98z"/>
			<g>
				<path className="st4" d="M-182.34,1.79c-2.16,1.54-2.39,4.42-0.3,6.54c2.27,2.3,6.24,2.72,8.62,0.81c2.29-1.85,1.93-4.98-0.54-6.91
					C-176.85,0.46-180.24,0.29-182.34,1.79z"/>
			</g>
			<g>
				<path className="st4" d="M-189.05-3.39c-1.4,0.91-1.7,2.51-0.58,3.62c1.18,1.17,3.43,1.3,4.93,0.25c1.47-1.02,1.55-2.71,0.28-3.74
					C-185.64-4.23-187.67-4.28-189.05-3.39z"/>
			</g>
		</g>
	</g>
	<g className="st1">
		<path d="M-93.63-51.47l-12.49-23.24v29.4c0,1.08-0.9,1.97-1.97,1.97c-1.08,0-1.97-0.9-1.97-1.97v-37.22c0-1.08,0.9-1.97,1.97-1.97
			c0.9,0,1.49,0.54,1.79,1.13l14.46,27.07l14.52-27.07c0.24-0.42,0.72-1.13,1.79-1.13c1.08,0,1.97,0.9,1.97,1.97v37.22
			c0,1.08-0.9,1.97-1.97,1.97c-1.07,0-1.97-0.9-1.97-1.97v-29.4l-12.55,23.24c-0.42,0.78-1.08,1.13-1.79,1.13
			C-92.43-50.33-93.21-50.63-93.63-51.47"/>
		<path d="M-65.94-79.31c0-1.73,0.84-2.39,2.27-2.39c1.43,0,2.27,0.66,2.27,2.39c0,1.43-0.84,2.27-2.27,2.27
			C-65.1-77.04-65.94-77.88-65.94-79.31 M-61.76-45.25c0,1.08-0.84,1.91-1.91,1.91c-1.08,0-1.91-0.84-1.91-1.91v-24.26
			c0-1.08,0.84-1.91,1.91-1.91c1.08,0,1.91,0.84,1.91,1.91V-45.25z"/>
		<path d="M-43.47-71.78c5.32,0,8.25,2.81,9.2,4.12c0.3,0.42,0.42,0.72,0.42,1.13c0,1.02-0.78,1.73-1.73,1.73
			c-0.6,0-1.02-0.24-1.43-0.72c-0.9-1.02-2.51-2.81-6.45-2.81c-5.5,0-8.43,3.53-8.43,10.87c0,7.47,2.93,10.93,8.43,10.93
			c3.47,0,5.56-1.55,6.93-2.57c0.42-0.3,0.72-0.42,1.13-0.42c0.96,0,1.73,0.78,1.73,1.73c0,0.54-0.18,0.96-0.78,1.49
			c-1.31,1.08-4.18,3.23-9.02,3.23c-7.71,0-12.31-4.6-12.31-14.4C-55.78-67.24-51.18-71.78-43.47-71.78"/>
		<path d="M-23.82-66.88c1.2-2.75,4.18-4.78,8.31-4.78c1.02,0,1.85,0.84,1.85,1.85c0,1.01-0.84,1.85-1.85,1.85
			c-5.5,0-8.31,3.82-8.31,9.32v13.38c0,1.08-0.84,1.91-1.91,1.91c-1.07,0-1.91-0.84-1.91-1.91v-24.26c0-1.08,0.84-1.91,1.91-1.91
			c1.08,0,1.91,0.84,1.91,1.91V-66.88z"/>
		<path d="M12.2-57.44c0,9.8-4.78,14.4-12.55,14.4c-7.71,0-12.55-4.6-12.55-14.4c0-9.8,4.84-14.34,12.55-14.34
			C7.42-71.78,12.2-67.24,12.2-57.44 M8.32-57.44c0-7.53-3.17-10.87-8.66-10.87c-5.5,0-8.66,3.35-8.66,10.87
			c0,7.65,3.17,10.93,8.66,10.93C5.15-46.51,8.32-49.79,8.32-57.44"/>
		<path d="M46.68-51.47v-8.66H36.7c-1.02,0-1.85-0.84-1.85-1.85c0-1.02,0.84-1.85,1.85-1.85h12.07c0.96,0,1.85,0.84,1.85,1.85v10.46
			c0,0.72-0.24,1.31-0.78,1.97c-2.87,3.35-7.05,6.57-14.28,6.57c-11.59,0-18.64-6.21-18.64-20.91c0-14.16,7.05-20.97,18.64-20.97
			c5.68,0,10.63,2.45,13.44,6.33c0.3,0.42,0.42,0.84,0.42,1.25c0,1.08-0.84,1.91-1.91,1.91c-0.54,0-1.08-0.18-1.55-0.78
			c-2.03-2.81-5.86-5.02-10.4-5.02c-9.2,0-14.46,5.56-14.46,17.27c0,12.43,5.26,17.21,14.46,17.21
			C41.12-46.69,44.71-49.02,46.68-51.47"/>
		<path d="M68.31-71.78c9.56,0,11.41,7.59,11.41,11.65c0,1.73,0,3.82-2.39,3.82H59.88c0,5.91,3.4,9.74,9.02,9.74
			c3.47,0,5.5-1.31,7.17-2.57c0.36-0.24,0.6-0.36,1.08-0.36c0.95,0,1.73,0.78,1.73,1.73c0,0.66-0.3,1.02-0.66,1.37
			c-0.9,0.9-4,3.35-9.32,3.35C60.96-43.04,56-47.4,56-57.44C56-66.64,60.54-71.78,68.31-71.78 M68.31-68.32
			c-5.2,0-8.07,3.35-8.42,8.66h16.07C75.95-63.96,74.46-68.32,68.31-68.32"/>
		<path d="M107.04-61.21v15.95c0,1.08-0.84,1.91-1.91,1.91c-1.07,0-1.91-0.84-1.91-1.91v-15.18c0-4.72-1.37-7.95-7.17-7.95
			c-5.91,0-7.95,3.58-7.95,8.37v14.76c0,1.08-0.84,1.91-1.91,1.91s-1.91-0.84-1.91-1.91v-24.26c0-1.08,0.84-1.91,1.91-1.91
			s1.91,0.84,1.91,1.91v1.91c1.13-2.27,4.06-4.18,7.95-4.18C105.25-71.78,107.04-66.29,107.04-61.21"/>
		<g>
			<path d="M148.45-53.76c-0.57,0-1.1-0.26-1.43-0.77l-5.57-8.35l-5.57,8.35c-0.34,0.5-0.9,0.77-1.43,0.77
				c-0.91,0-1.74-0.77-1.74-1.73c0-0.34,0.1-0.67,0.3-0.97l6.41-9.41l-6.31-9.25c-0.2-0.3-0.3-0.63-0.3-0.97
				c0-0.9,0.77-1.74,1.74-1.74c0.57,0,1.1,0.27,1.43,0.77l5.48,8.18l5.47-8.18c0.34-0.5,0.91-0.77,1.44-0.77c0.9,0,1.7,0.8,1.7,1.74
				c0,0.34-0.1,0.67-0.3,0.97l-6.31,9.25l6.45,9.41c0.2,0.3,0.3,0.64,0.3,0.97C150.19-54.6,149.42-53.76,148.45-53.76"/>
			<path d="M120.07-77.5h-4.41c-1.21,0-2.17,0.96-2.17,2.13v19.13c0,1.17,0.96,2.14,2.17,2.14h4.41c5.48,0,9.18-3.64,9.18-9.08
				v-5.24C129.25-73.86,125.54-77.5,120.07-77.5z M125.71-63.11c0,3.5-2.03,5.64-5.61,5.64h-3.07v-16.66h3.07
				c3.57,0,5.61,2.1,5.61,5.64V-63.11z"/>
		</g>
		<g>
			<path d="M-109.96-32.1h1.7l6.57,9.43h0.03v-9.43h1.35v11.35h-1.7l-6.57-9.43h-0.03v9.43h-1.35V-32.1z"/>
			<path d="M-95.88-32.1h7.13v1.25h-5.79v3.56h5.4v1.25h-5.4V-22h6.08v1.25h-7.42V-32.1z"/>
			<path d="M-82.09-26.73l-3.82-5.37h1.73l3.06,4.44l3.03-4.44h1.68l-3.82,5.37l4.18,5.98h-1.78l-3.37-5.03l-3.38,5.03h-1.67
				L-82.09-26.73z"/>
			<path d="M-65.45-30.85h-3.75v10.1h-1.35v-10.1h-3.75v-1.25h8.85V-30.85z"/>
			<path d="M-65.03-25.18h3.93v1.15h-3.93V-25.18z"/>
			<path d="M-47.73-21.52c-0.65,0.36-1.34,0.63-2.06,0.8s-1.45,0.26-2.19,0.26c-0.89,0-1.7-0.14-2.44-0.43
				c-0.74-0.29-1.38-0.69-1.92-1.22s-0.96-1.15-1.26-1.88c-0.3-0.73-0.45-1.54-0.45-2.43c0-0.9,0.16-1.71,0.47-2.45
				c0.32-0.73,0.75-1.36,1.31-1.88c0.56-0.52,1.2-0.92,1.94-1.21s1.53-0.43,2.39-0.43c0.75,0,1.47,0.11,2.16,0.34
				s1.31,0.61,1.85,1.15l-1.01,1.06c-0.38-0.42-0.85-0.74-1.4-0.96c-0.55-0.22-1.11-0.34-1.69-0.34c-0.65,0-1.26,0.12-1.81,0.35
				c-0.56,0.24-1.04,0.56-1.45,0.98c-0.41,0.42-0.73,0.91-0.96,1.49c-0.23,0.58-0.34,1.21-0.34,1.89c0,0.67,0.12,1.3,0.34,1.88
				c0.23,0.58,0.55,1.08,0.96,1.5c0.41,0.42,0.91,0.75,1.48,0.99c0.58,0.24,1.21,0.35,1.91,0.35c0.46,0,0.94-0.06,1.44-0.17
				c0.5-0.11,0.96-0.27,1.38-0.49v-3.48h-2.61v-1.25h3.96V-21.52z"/>
			<path d="M-43.31-32.1h7.13v1.25h-5.79v3.56h5.4v1.25h-5.4V-22h6.08v1.25h-7.42V-32.1z"/>
			<path d="M-32.19-32.1h1.7l6.57,9.43h0.03v-9.43h1.35v11.35h-1.7l-6.57-9.43h-0.03v9.43h-1.35V-32.1z"/>
			<path d="M-12.26-32.1h4.36c0.37,0,0.77,0.04,1.19,0.13c0.42,0.09,0.83,0.22,1.24,0.41c0.41,0.19,0.81,0.43,1.19,0.73
				c0.38,0.3,0.71,0.66,1,1.08c0.29,0.42,0.52,0.91,0.69,1.46c0.17,0.55,0.26,1.17,0.26,1.87c0,0.7-0.09,1.32-0.26,1.87
				c-0.17,0.55-0.4,1.04-0.69,1.46c-0.29,0.42-0.62,0.78-1,1.08c-0.38,0.3-0.78,0.54-1.19,0.73c-0.41,0.19-0.83,0.32-1.24,0.41
				c-0.42,0.09-0.81,0.13-1.19,0.13h-4.36V-32.1z M-10.92-22h2.57c0.65,0,1.26-0.09,1.81-0.26c0.56-0.17,1.04-0.44,1.44-0.79
				c0.41-0.36,0.73-0.81,0.96-1.37c0.24-0.56,0.35-1.22,0.35-2c0-0.78-0.12-1.45-0.35-2c-0.24-0.56-0.56-1.01-0.96-1.37
				c-0.41-0.36-0.89-0.62-1.44-0.79c-0.56-0.17-1.16-0.26-1.81-0.26h-2.57V-22z"/>
			<path d="M1.43-32.1h1.7l6.57,9.43h0.03v-9.43h1.35v11.35h-1.7l-6.57-9.43H2.78v9.43H1.43V-32.1z"/>
			<path d="M19.2-32.1h1.27l4.83,11.35h-1.57l-1.15-2.79h-5.68l-1.17,2.79h-1.52L19.2-32.1z M19.81-30.37h-0.03l-2.36,5.58h4.63
				L19.81-30.37z"/>
			<path d="M39.85-30.1c-0.22-0.36-0.52-0.63-0.9-0.79s-0.76-0.25-1.17-0.25c-0.3,0-0.59,0.04-0.88,0.11
				c-0.29,0.07-0.55,0.19-0.78,0.34c-0.23,0.15-0.41,0.35-0.55,0.59c-0.14,0.25-0.21,0.53-0.21,0.87c0,0.26,0.04,0.48,0.12,0.68
				c0.08,0.2,0.21,0.38,0.39,0.54c0.18,0.16,0.43,0.31,0.74,0.45c0.31,0.14,0.69,0.28,1.14,0.42c0.44,0.14,0.86,0.29,1.27,0.45
				s0.78,0.36,1.09,0.61c0.31,0.25,0.57,0.55,0.75,0.92c0.19,0.37,0.28,0.83,0.28,1.39c0,0.57-0.11,1.06-0.34,1.48
				c-0.22,0.42-0.52,0.76-0.89,1.03c-0.37,0.27-0.79,0.48-1.28,0.61c-0.48,0.13-0.98,0.2-1.49,0.2c-0.33,0-0.66-0.03-0.99-0.09
				c-0.33-0.06-0.65-0.15-0.95-0.27c-0.3-0.12-0.59-0.28-0.86-0.48c-0.27-0.2-0.5-0.44-0.69-0.73l1.15-0.95
				c0.25,0.42,0.59,0.73,1.03,0.95s0.9,0.32,1.39,0.32c0.29,0,0.58-0.04,0.87-0.13s0.56-0.21,0.79-0.38
				c0.24-0.17,0.43-0.37,0.58-0.62c0.15-0.25,0.22-0.53,0.22-0.85c0-0.35-0.06-0.64-0.18-0.86c-0.12-0.22-0.3-0.41-0.54-0.57
				s-0.56-0.3-0.93-0.43c-0.38-0.13-0.81-0.28-1.32-0.45c-0.41-0.13-0.78-0.28-1.12-0.44s-0.64-0.37-0.89-0.61
				c-0.25-0.24-0.45-0.53-0.59-0.87c-0.14-0.34-0.22-0.74-0.22-1.21c0-0.54,0.11-1.02,0.32-1.43s0.5-0.75,0.87-1.02
				c0.36-0.27,0.77-0.48,1.23-0.62c0.46-0.14,0.94-0.21,1.44-0.21c0.64,0,1.23,0.1,1.76,0.3c0.53,0.2,1,0.54,1.42,1.03L39.85-30.1z"
				/>
			<path d="M44.98-32.1h7.13v1.25h-5.79v3.56h5.4v1.25h-5.4V-22h6.08v1.25h-7.42V-32.1z"/>
			<path d="M67.86-20.75h-6.59c-0.83,0-1.61-0.15-2.32-0.45s-1.33-0.71-1.84-1.23c-0.52-0.52-0.93-1.13-1.23-1.84
				c-0.3-0.71-0.45-1.48-0.45-2.3s0.15-1.59,0.45-2.3c0.3-0.71,0.71-1.33,1.23-1.84c0.52-0.52,1.13-0.93,1.84-1.23
				s1.48-0.45,2.32-0.45s1.61,0.15,2.32,0.45c0.71,0.3,1.33,0.71,1.84,1.23s0.93,1.13,1.23,1.84c0.3,0.71,0.45,1.48,0.45,2.3
				c0,0.48-0.06,0.96-0.19,1.44c-0.13,0.48-0.31,0.92-0.55,1.33c-0.24,0.41-0.53,0.78-0.87,1.11c-0.34,0.33-0.72,0.58-1.15,0.76
				v0.03h3.51V-20.75z M56.88-26.57c0,0.64,0.11,1.24,0.34,1.8s0.53,1.04,0.92,1.45c0.39,0.41,0.85,0.74,1.39,0.97
				c0.53,0.24,1.12,0.35,1.75,0.35c0.62,0,1.2-0.12,1.74-0.35c0.54-0.23,1-0.56,1.39-0.97c0.39-0.41,0.7-0.9,0.92-1.45
				s0.34-1.15,0.34-1.8c0-0.63-0.11-1.22-0.33-1.78c-0.22-0.56-0.52-1.04-0.91-1.45c-0.39-0.41-0.85-0.74-1.39-0.98
				c-0.53-0.24-1.12-0.36-1.76-0.36c-0.64,0-1.23,0.12-1.76,0.36c-0.53,0.24-1,0.57-1.39,0.98c-0.39,0.41-0.7,0.9-0.91,1.45
				S56.88-27.2,56.88-26.57z"/>
			<path d="M79.58-25.08c0,0.62-0.08,1.21-0.23,1.76c-0.15,0.56-0.4,1.04-0.74,1.47s-0.78,0.76-1.32,1.01
				c-0.55,0.25-1.21,0.38-1.99,0.38c-0.78,0-1.44-0.13-1.99-0.38c-0.55-0.25-0.99-0.59-1.32-1.01s-0.58-0.91-0.74-1.47
				c-0.16-0.56-0.23-1.14-0.23-1.76v-7.02h1.35v6.83c0,0.46,0.05,0.9,0.14,1.33c0.1,0.43,0.26,0.81,0.48,1.14s0.52,0.6,0.9,0.79
				c0.37,0.2,0.84,0.3,1.41,0.3c0.57,0,1.04-0.1,1.41-0.3c0.37-0.2,0.67-0.46,0.9-0.79s0.38-0.71,0.48-1.14
				c0.1-0.43,0.14-0.87,0.14-1.33v-6.83h1.35V-25.08z"/>
			<path d="M83.96-32.1h7.13v1.25h-5.79v3.56h5.4v1.25h-5.4V-22h6.08v1.25h-7.42V-32.1z"/>
			<path d="M95.07-32.1h1.7l6.57,9.43h0.03v-9.43h1.35v11.35h-1.7l-6.57-9.43h-0.03v9.43h-1.35V-32.1z"/>
			<path d="M117.1-29.76c-0.34-0.46-0.76-0.8-1.27-1.03c-0.5-0.23-1.03-0.34-1.57-0.34c-0.63,0-1.21,0.13-1.74,0.38
				c-0.53,0.26-0.99,0.6-1.37,1.03s-0.68,0.94-0.9,1.51s-0.32,1.17-0.32,1.79c0,0.66,0.11,1.28,0.32,1.85s0.51,1.07,0.89,1.49
				c0.38,0.42,0.83,0.76,1.36,1c0.53,0.25,1.11,0.37,1.76,0.37c0.69,0,1.31-0.14,1.86-0.41c0.54-0.27,1.02-0.67,1.43-1.18l1.01,0.85
				c-0.51,0.68-1.13,1.19-1.85,1.51c-0.72,0.32-1.54,0.48-2.45,0.48c-0.81,0-1.57-0.15-2.28-0.45c-0.71-0.3-1.32-0.71-1.84-1.24
				c-0.52-0.53-0.92-1.16-1.22-1.88c-0.29-0.73-0.44-1.52-0.44-2.39c0-0.83,0.14-1.61,0.42-2.34s0.68-1.36,1.19-1.89
				c0.51-0.53,1.12-0.96,1.83-1.27c0.71-0.31,1.48-0.47,2.33-0.47c0.77,0,1.51,0.14,2.22,0.42c0.71,0.28,1.31,0.73,1.79,1.36
				L117.1-29.76z"/>
			<path d="M122.04-32.1h1.35v11.35h-1.35V-32.1z"/>
			<path d="M127.81-32.1h1.7l6.57,9.43h0.03v-9.43h1.35v11.35h-1.7l-6.57-9.43h-0.03v9.43h-1.35V-32.1z"/>
			<path d="M151.54-21.52c-0.65,0.36-1.34,0.63-2.06,0.8s-1.45,0.26-2.19,0.26c-0.89,0-1.7-0.14-2.44-0.43
				c-0.74-0.29-1.38-0.69-1.92-1.22s-0.96-1.15-1.26-1.88c-0.3-0.73-0.45-1.54-0.45-2.43c0-0.9,0.16-1.71,0.47-2.45
				c0.32-0.73,0.75-1.36,1.31-1.88c0.56-0.52,1.2-0.92,1.94-1.21s1.53-0.43,2.39-0.43c0.75,0,1.47,0.11,2.16,0.34
				s1.31,0.61,1.85,1.15l-1.01,1.06c-0.38-0.42-0.85-0.74-1.4-0.96c-0.55-0.22-1.11-0.34-1.69-0.34c-0.65,0-1.26,0.12-1.81,0.35
				c-0.56,0.24-1.04,0.56-1.45,0.98c-0.41,0.42-0.73,0.91-0.96,1.49c-0.23,0.58-0.34,1.21-0.34,1.89c0,0.67,0.12,1.3,0.34,1.88
				c0.23,0.58,0.55,1.08,0.96,1.5c0.41,0.42,0.91,0.75,1.48,0.99c0.58,0.24,1.21,0.35,1.91,0.35c0.46,0,0.94-0.06,1.44-0.17
				c0.5-0.11,0.96-0.27,1.38-0.49v-3.48h-2.61v-1.25h3.96V-21.52z"/>
			<path d="M-110.43-15.49h4.69v0.83h-3.79v2.5h3.53v0.83h-3.53v3.4h-0.9V-15.49z"/>
			<path d="M-99.98-7.73c-0.58,0-1.11-0.1-1.59-0.3c-0.48-0.2-0.9-0.48-1.25-0.83c-0.35-0.35-0.63-0.77-0.82-1.26
				c-0.2-0.49-0.29-1.02-0.29-1.59c0-0.57,0.1-1.1,0.29-1.59c0.2-0.49,0.47-0.91,0.82-1.26c0.35-0.35,0.77-0.63,1.25-0.83
				c0.48-0.2,1.01-0.3,1.59-0.3c0.58,0,1.11,0.1,1.59,0.3c0.48,0.2,0.9,0.48,1.25,0.83c0.35,0.35,0.63,0.77,0.82,1.26
				c0.2,0.49,0.29,1.02,0.29,1.59c0,0.57-0.1,1.1-0.29,1.59c-0.2,0.49-0.47,0.91-0.82,1.26c-0.35,0.35-0.77,0.63-1.25,0.83
				C-98.88-7.83-99.41-7.73-99.98-7.73z M-99.98-8.56c0.44,0,0.85-0.08,1.21-0.25s0.68-0.39,0.95-0.67s0.47-0.62,0.61-1
				s0.22-0.79,0.22-1.22c0-0.43-0.07-0.84-0.22-1.22c-0.15-0.38-0.35-0.71-0.61-1c-0.26-0.29-0.58-0.51-0.95-0.67
				c-0.37-0.16-0.77-0.25-1.21-0.25c-0.44,0-0.85,0.08-1.21,0.25c-0.37,0.16-0.68,0.39-0.95,0.67c-0.26,0.28-0.47,0.62-0.61,1
				c-0.15,0.38-0.22,0.79-0.22,1.22c0,0.44,0.07,0.84,0.22,1.22c0.15,0.38,0.35,0.71,0.61,1s0.58,0.51,0.95,0.67
				S-100.43-8.56-99.98-8.56z"/>
			<path d="M-93.6-15.49h1.93c0.36,0,0.73,0.02,1.09,0.06c0.36,0.04,0.68,0.14,0.97,0.28s0.52,0.35,0.7,0.63
				c0.18,0.27,0.27,0.65,0.27,1.12c0,0.56-0.17,1-0.5,1.35c-0.33,0.34-0.8,0.56-1.39,0.65l2.15,3.48h-1.1l-2.05-3.4h-1.15v3.4h-0.9
				V-15.49z M-92.7-12.16h0.8c0.25,0,0.51-0.01,0.77-0.02c0.27-0.01,0.51-0.06,0.74-0.14c0.22-0.08,0.41-0.2,0.56-0.37
				c0.15-0.17,0.22-0.41,0.22-0.72c0-0.27-0.05-0.49-0.16-0.65c-0.11-0.16-0.25-0.29-0.42-0.38c-0.17-0.09-0.37-0.15-0.59-0.18
				c-0.22-0.03-0.44-0.04-0.66-0.04h-1.26V-12.16z"/>
			<path d="M-79.67-15.49h0.84l3.22,7.57h-1.05l-0.77-1.86h-3.78l-0.78,1.86h-1.02L-79.67-15.49z M-79.27-14.34h-0.02l-1.57,3.72
				h3.09L-79.27-14.34z"/>
			<path d="M-68.32-13.93c-0.23-0.31-0.51-0.54-0.84-0.69s-0.68-0.23-1.05-0.23c-0.42,0-0.81,0.09-1.16,0.26
				c-0.35,0.17-0.66,0.4-0.91,0.69c-0.26,0.29-0.46,0.62-0.6,1c-0.14,0.38-0.21,0.78-0.21,1.19c0,0.44,0.07,0.85,0.21,1.23
				c0.14,0.38,0.34,0.71,0.59,0.99c0.25,0.28,0.56,0.5,0.91,0.67c0.35,0.16,0.74,0.25,1.17,0.25c0.46,0,0.88-0.09,1.24-0.27
				s0.68-0.44,0.95-0.79l0.67,0.57c-0.34,0.46-0.75,0.79-1.24,1c-0.48,0.21-1.02,0.32-1.63,0.32c-0.54,0-1.05-0.1-1.52-0.3
				c-0.47-0.2-0.88-0.48-1.22-0.83c-0.35-0.35-0.62-0.77-0.81-1.26c-0.2-0.48-0.29-1.02-0.29-1.59c0-0.56,0.09-1.08,0.28-1.56
				c0.19-0.48,0.45-0.9,0.8-1.26s0.75-0.64,1.22-0.84c0.47-0.21,0.99-0.31,1.55-0.31c0.51,0,1.01,0.09,1.48,0.28
				c0.47,0.19,0.87,0.49,1.19,0.91L-68.32-13.93z"/>
			<path d="M-59.81-13.93c-0.23-0.31-0.51-0.54-0.84-0.69s-0.68-0.23-1.05-0.23c-0.42,0-0.81,0.09-1.16,0.26
				c-0.35,0.17-0.66,0.4-0.91,0.69c-0.26,0.29-0.46,0.62-0.6,1c-0.14,0.38-0.21,0.78-0.21,1.19c0,0.44,0.07,0.85,0.21,1.23
				c0.14,0.38,0.34,0.71,0.59,0.99c0.25,0.28,0.56,0.5,0.91,0.67c0.35,0.16,0.74,0.25,1.17,0.25c0.46,0,0.88-0.09,1.24-0.27
				s0.68-0.44,0.95-0.79l0.67,0.57c-0.34,0.46-0.75,0.79-1.24,1c-0.48,0.21-1.02,0.32-1.63,0.32c-0.54,0-1.05-0.1-1.52-0.3
				c-0.47-0.2-0.88-0.48-1.22-0.83c-0.35-0.35-0.62-0.77-0.81-1.26c-0.2-0.48-0.29-1.02-0.29-1.59c0-0.56,0.09-1.08,0.28-1.56
				c0.19-0.48,0.45-0.9,0.8-1.26s0.75-0.64,1.22-0.84c0.47-0.21,0.99-0.31,1.55-0.31c0.51,0,1.01,0.09,1.48,0.28
				c0.47,0.19,0.87,0.49,1.19,0.91L-59.81-13.93z"/>
			<path d="M-50.93-10.81c0,0.41-0.05,0.81-0.16,1.18c-0.1,0.37-0.27,0.7-0.49,0.98c-0.22,0.28-0.52,0.51-0.88,0.67
				c-0.36,0.17-0.8,0.25-1.33,0.25s-0.96-0.08-1.33-0.25c-0.36-0.17-0.66-0.39-0.88-0.67c-0.22-0.28-0.39-0.61-0.49-0.98
				c-0.1-0.37-0.16-0.76-0.16-1.18v-4.68h0.9v4.55c0,0.31,0.03,0.6,0.1,0.89c0.06,0.29,0.17,0.54,0.32,0.76s0.35,0.4,0.6,0.53
				c0.25,0.13,0.56,0.2,0.94,0.2s0.69-0.07,0.94-0.2c0.25-0.13,0.45-0.31,0.6-0.53c0.15-0.22,0.26-0.47,0.32-0.76
				c0.06-0.28,0.1-0.58,0.1-0.89v-4.55h0.9V-10.81z"/>
			<path d="M-48.1-15.49h1.93c0.36,0,0.73,0.02,1.09,0.06c0.36,0.04,0.68,0.14,0.97,0.28s0.52,0.35,0.7,0.63
				c0.18,0.27,0.27,0.65,0.27,1.12c0,0.56-0.17,1-0.5,1.35c-0.33,0.34-0.8,0.56-1.39,0.65l2.15,3.48h-1.1l-2.05-3.4h-1.15v3.4h-0.9
				V-15.49z M-47.2-12.16h0.8c0.25,0,0.51-0.01,0.77-0.02c0.27-0.01,0.51-0.06,0.74-0.14c0.22-0.08,0.41-0.2,0.56-0.37
				c0.15-0.17,0.22-0.41,0.22-0.72c0-0.27-0.05-0.49-0.16-0.65c-0.11-0.16-0.25-0.29-0.42-0.38c-0.17-0.09-0.37-0.15-0.59-0.18
				c-0.22-0.03-0.44-0.04-0.66-0.04h-1.26V-12.16z"/>
			<path d="M-38.12-15.49h0.84l3.22,7.57h-1.05l-0.77-1.86h-3.78l-0.78,1.86h-1.02L-38.12-15.49z M-37.72-14.34h-0.02l-1.57,3.72
				h3.09L-37.72-14.34z"/>
			<path d="M-27.98-14.66h-2.5v6.73h-0.9v-6.73h-2.5v-0.83h5.9V-14.66z"/>
			<path d="M-25.94-15.49h4.76v0.83h-3.86v2.37h3.6v0.83h-3.6v2.69h4.05v0.83h-4.95V-15.49z"/>
			<path d="M-14.66-15.49h1.34l2.57,5.93h0.02l2.59-5.93h1.3v7.57h-0.9v-6.35h-0.02l-2.71,6.35h-0.54l-2.71-6.35h-0.02v6.35h-0.9
				V-15.49z"/>
			<path d="M-3.98-15.49h0.9v7.57h-0.9V-15.49z"/>
			<path d="M5.08-13.93c-0.23-0.31-0.51-0.54-0.84-0.69s-0.68-0.23-1.05-0.23c-0.42,0-0.81,0.09-1.16,0.26
				c-0.35,0.17-0.66,0.4-0.91,0.69c-0.26,0.29-0.46,0.62-0.6,1c-0.14,0.38-0.21,0.78-0.21,1.19c0,0.44,0.07,0.85,0.21,1.23
				c0.14,0.38,0.34,0.71,0.59,0.99c0.25,0.28,0.56,0.5,0.91,0.67c0.35,0.16,0.74,0.25,1.17,0.25c0.46,0,0.88-0.09,1.24-0.27
				s0.68-0.44,0.95-0.79l0.67,0.57c-0.34,0.46-0.75,0.79-1.24,1C4.34-7.84,3.8-7.73,3.19-7.73c-0.54,0-1.05-0.1-1.52-0.3
				C1.2-8.23,0.79-8.51,0.45-8.86C0.1-9.21-0.17-9.63-0.36-10.11c-0.2-0.48-0.29-1.02-0.29-1.59c0-0.56,0.09-1.08,0.28-1.56
				c0.19-0.48,0.45-0.9,0.8-1.26s0.75-0.64,1.22-0.84c0.47-0.21,0.99-0.31,1.55-0.31c0.51,0,1.01,0.09,1.48,0.28
				c0.47,0.19,0.87,0.49,1.19,0.91L5.08-13.93z"/>
			<path d="M8.29-15.49h1.93c0.36,0,0.73,0.02,1.09,0.06c0.36,0.04,0.68,0.14,0.97,0.28s0.52,0.35,0.7,0.63
				c0.18,0.27,0.27,0.65,0.27,1.12c0,0.56-0.17,1-0.5,1.35c-0.33,0.34-0.8,0.56-1.39,0.65l2.15,3.48h-1.1l-2.05-3.4H9.19v3.4h-0.9
				V-15.49z M9.19-12.16h0.8c0.25,0,0.51-0.01,0.77-0.02c0.27-0.01,0.51-0.06,0.74-0.14c0.22-0.08,0.41-0.2,0.56-0.37
				c0.15-0.17,0.22-0.41,0.22-0.72c0-0.27-0.05-0.49-0.16-0.65c-0.11-0.16-0.25-0.29-0.42-0.38c-0.17-0.09-0.37-0.15-0.59-0.18
				c-0.22-0.03-0.44-0.04-0.66-0.04H9.19V-12.16z"/>
			<path d="M19.32-7.73c-0.58,0-1.11-0.1-1.59-0.3c-0.48-0.2-0.9-0.48-1.25-0.83c-0.35-0.35-0.63-0.77-0.82-1.26
				c-0.2-0.49-0.29-1.02-0.29-1.59c0-0.57,0.1-1.1,0.29-1.59c0.2-0.49,0.47-0.91,0.82-1.26c0.35-0.35,0.77-0.63,1.25-0.83
				c0.48-0.2,1.01-0.3,1.59-0.3c0.58,0,1.11,0.1,1.59,0.3c0.48,0.2,0.9,0.48,1.25,0.83c0.35,0.35,0.63,0.77,0.82,1.26
				c0.2,0.49,0.29,1.02,0.29,1.59c0,0.57-0.1,1.1-0.29,1.59c-0.2,0.49-0.47,0.91-0.82,1.26c-0.35,0.35-0.77,0.63-1.25,0.83
				C20.43-7.83,19.9-7.73,19.32-7.73z M19.32-8.56c0.44,0,0.85-0.08,1.21-0.25s0.68-0.39,0.95-0.67s0.47-0.62,0.61-1
				s0.22-0.79,0.22-1.22c0-0.43-0.07-0.84-0.22-1.22c-0.15-0.38-0.35-0.71-0.61-1c-0.26-0.29-0.58-0.51-0.95-0.67
				c-0.37-0.16-0.77-0.25-1.21-0.25c-0.44,0-0.85,0.08-1.21,0.25c-0.37,0.16-0.68,0.39-0.95,0.67c-0.26,0.28-0.47,0.62-0.61,1
				c-0.15,0.38-0.22,0.79-0.22,1.22c0,0.44,0.07,0.84,0.22,1.22c0.15,0.38,0.35,0.71,0.61,1s0.58,0.51,0.95,0.67
				S18.88-8.56,19.32-8.56z"/>
			<path d="M25.7-15.49h2.31c0.31,0,0.62,0.03,0.92,0.1c0.3,0.06,0.57,0.17,0.8,0.32s0.43,0.34,0.57,0.57
				c0.15,0.24,0.22,0.53,0.22,0.88c0,0.44-0.12,0.81-0.36,1.1c-0.24,0.29-0.56,0.49-0.97,0.61v0.02c0.24,0.02,0.47,0.08,0.68,0.19
				c0.21,0.1,0.39,0.24,0.54,0.4c0.15,0.16,0.27,0.35,0.36,0.57c0.08,0.22,0.13,0.45,0.13,0.7c0,0.42-0.09,0.77-0.26,1.04
				s-0.4,0.49-0.68,0.65c-0.28,0.16-0.6,0.27-0.95,0.34s-0.7,0.1-1.05,0.1H25.7V-15.49z M26.6-12.28h1.24
				c0.21,0,0.42-0.01,0.63-0.04c0.2-0.03,0.39-0.09,0.55-0.18c0.16-0.09,0.29-0.21,0.4-0.37c0.1-0.16,0.15-0.37,0.15-0.64
				c0-0.23-0.05-0.43-0.14-0.57c-0.09-0.15-0.21-0.26-0.37-0.35s-0.33-0.14-0.52-0.18c-0.2-0.03-0.39-0.05-0.59-0.05H26.6V-12.28z
				 M26.6-8.76h1.52c0.22,0,0.44-0.02,0.66-0.07c0.22-0.05,0.41-0.12,0.59-0.22c0.17-0.1,0.32-0.24,0.42-0.41
				c0.11-0.17,0.16-0.37,0.16-0.61c0-0.26-0.05-0.48-0.16-0.66c-0.1-0.18-0.24-0.32-0.41-0.43c-0.17-0.11-0.36-0.18-0.58-0.22
				c-0.22-0.04-0.44-0.06-0.67-0.06H26.6V-8.76z"/>
			<path d="M33.42-15.49h0.9v7.57h-0.9V-15.49z"/>
			<path d="M39.64-15.49h0.84l3.22,7.57h-1.05l-0.77-1.86H38.1l-0.78,1.86h-1.02L39.64-15.49z M40.05-14.34h-0.02l-1.57,3.72h3.09
				L40.05-14.34z"/>
			<path d="M45.69-15.49h0.9v6.73h3.46v0.83h-4.36V-15.49z"/>
			<path d="M55.97-15.49h0.9v7.57h-0.9V-15.49z"/>
			<path d="M59.6-15.49h2.91c0.25,0,0.51,0.03,0.79,0.09c0.28,0.06,0.55,0.15,0.83,0.27c0.27,0.12,0.54,0.29,0.79,0.49
				s0.48,0.44,0.67,0.72c0.19,0.28,0.35,0.61,0.46,0.97c0.11,0.37,0.17,0.78,0.17,1.25c0,0.46-0.06,0.88-0.17,1.25
				c-0.11,0.37-0.27,0.69-0.46,0.97s-0.42,0.52-0.67,0.72c-0.25,0.2-0.52,0.36-0.79,0.49c-0.27,0.12-0.55,0.22-0.83,0.27
				c-0.28,0.06-0.54,0.09-0.79,0.09H59.6V-15.49z M60.5-8.76h1.71c0.43,0,0.84-0.06,1.21-0.17c0.37-0.11,0.69-0.29,0.96-0.53
				c0.27-0.24,0.48-0.54,0.64-0.91c0.16-0.37,0.23-0.82,0.23-1.34c0-0.52-0.08-0.97-0.23-1.34c-0.16-0.37-0.37-0.68-0.64-0.91
				c-0.27-0.24-0.59-0.42-0.96-0.53c-0.37-0.11-0.77-0.17-1.21-0.17H60.5V-8.76z"/>
			<path d="M68.64-15.49h4.76v0.83h-3.86v2.37h3.6v0.83h-3.6v2.69h4.05v0.83h-4.95V-15.49z"/>
			<path d="M75.96-15.49h1.13l4.38,6.29h0.02v-6.29h0.9v7.57h-1.13l-4.38-6.29h-0.02v6.29h-0.9V-15.49z"/>
			<path d="M90.34-14.66h-2.5v6.73h-0.9v-6.73h-2.5v-0.83h5.9V-14.66z"/>
			<path d="M92.38-15.49h0.9v7.57h-0.9V-15.49z"/>
			<path d="M96.15-15.49h4.69v0.83h-3.79v2.5h3.53v0.83h-3.53v3.4h-0.9V-15.49z"/>
			<path d="M103.07-15.49h0.9v7.57h-0.9V-15.49z"/>
			<path d="M112.14-13.93c-0.23-0.31-0.51-0.54-0.84-0.69s-0.68-0.23-1.05-0.23c-0.42,0-0.81,0.09-1.16,0.26
				c-0.35,0.17-0.66,0.4-0.91,0.69c-0.26,0.29-0.46,0.62-0.6,1c-0.14,0.38-0.21,0.78-0.21,1.19c0,0.44,0.07,0.85,0.21,1.23
				c0.14,0.38,0.34,0.71,0.59,0.99c0.25,0.28,0.56,0.5,0.91,0.67c0.35,0.16,0.74,0.25,1.17,0.25c0.46,0,0.88-0.09,1.24-0.27
				s0.68-0.44,0.95-0.79l0.67,0.57c-0.34,0.46-0.75,0.79-1.24,1c-0.48,0.21-1.02,0.32-1.63,0.32c-0.54,0-1.05-0.1-1.52-0.3
				c-0.47-0.2-0.88-0.48-1.22-0.83c-0.35-0.35-0.62-0.77-0.81-1.26c-0.2-0.48-0.29-1.02-0.29-1.59c0-0.56,0.09-1.08,0.28-1.56
				c0.19-0.48,0.45-0.9,0.8-1.26s0.75-0.64,1.22-0.84c0.47-0.21,0.99-0.31,1.55-0.31c0.51,0,1.01,0.09,1.48,0.28
				c0.47,0.19,0.87,0.49,1.19,0.91L112.14-13.93z"/>
			<path d="M117.8-15.49h0.84l3.22,7.57h-1.05l-0.77-1.86h-3.78l-0.78,1.86h-1.02L117.8-15.49z M118.21-14.34h-0.02l-1.57,3.72h3.09
				L118.21-14.34z"/>
			<path d="M127.95-14.66h-2.5v6.73h-0.9v-6.73h-2.5v-0.83h5.9V-14.66z"/>
			<path d="M129.99-15.49h0.9v7.57h-0.9V-15.49z"/>
			<path d="M137.27-7.73c-0.58,0-1.11-0.1-1.59-0.3c-0.48-0.2-0.9-0.48-1.25-0.83c-0.35-0.35-0.63-0.77-0.82-1.26
				c-0.2-0.49-0.29-1.02-0.29-1.59c0-0.57,0.1-1.1,0.29-1.59c0.2-0.49,0.47-0.91,0.82-1.26c0.35-0.35,0.77-0.63,1.25-0.83
				c0.48-0.2,1.01-0.3,1.59-0.3c0.58,0,1.11,0.1,1.59,0.3c0.48,0.2,0.9,0.48,1.25,0.83c0.35,0.35,0.63,0.77,0.82,1.26
				c0.2,0.49,0.29,1.02,0.29,1.59c0,0.57-0.1,1.1-0.29,1.59c-0.2,0.49-0.47,0.91-0.82,1.26c-0.35,0.35-0.77,0.63-1.25,0.83
				C138.37-7.83,137.85-7.73,137.27-7.73z M137.27-8.56c0.44,0,0.85-0.08,1.21-0.25s0.68-0.39,0.95-0.67s0.47-0.62,0.61-1
				s0.22-0.79,0.22-1.22c0-0.43-0.07-0.84-0.22-1.22c-0.15-0.38-0.35-0.71-0.61-1c-0.26-0.29-0.58-0.51-0.95-0.67
				c-0.37-0.16-0.77-0.25-1.21-0.25c-0.44,0-0.85,0.08-1.21,0.25c-0.37,0.16-0.68,0.39-0.95,0.67c-0.26,0.28-0.47,0.62-0.61,1
				c-0.15,0.38-0.22,0.79-0.22,1.22c0,0.44,0.07,0.84,0.22,1.22c0.15,0.38,0.35,0.71,0.61,1s0.58,0.51,0.95,0.67
				S136.83-8.56,137.27-8.56z"/>
			<path d="M143.65-15.49h1.13l4.38,6.29h0.02v-6.29h0.9v7.57h-1.13l-4.38-6.29h-0.02v6.29h-0.9V-15.49z"/>
		</g>
		<line className="st2" x1="114.24" y1="-45.51" x2="150.19" y2="-45.51"/>
		<g>
			<g>
				<path d="M-133.22-97.19c0.22-0.42,0.85-0.23,0.8,0.24c-0.52,5.2-3.57,19.17-21.01,28.21c-11.64,5.87-25.74,14.23-16.16,36.81
					c0.2,0.47-0.45,0.83-0.74,0.41c-2.8-3.98-5.31-8.31-6.57-13.03c-1.16-4.33-1.06-8.87,0.69-13.03c2.23-5.3,6.61-9.39,11.24-12.63
					c1.43-1,2.91-1.94,4.42-2.82c3.23-1.89,6.41-3.77,9.55-5.82c2.38-1.55,4.76-3.1,7.01-4.84c4.03-3.11,7.13-6.91,9.62-11.33
					C-133.99-95.74-133.6-96.46-133.22-97.19z"/>
			</g>
		</g>
		<g>
			<g>
				<path d="M-151.61-65.18c-0.05-0.48,0.59-0.67,0.81-0.24c2.2,4.4,6.18,16.19-3.73,31.32c-6.9,11.04-9.59,17.7,2.63,28.45
					c0.38,0.33-0.03,0.94-0.48,0.7c-8.23-4.32-19.32-12.09-8.88-29.53C-155.54-44.14-149.81-49.14-151.61-65.18z"/>
			</g>
		</g>
		<g>
			<g>
				<path d="M-151.17-105.37c9.09-3.02,18.53-1.76,27.75-0.16c1.49,0.26,2.99,0.51,4.48,0.76c0.49,0.08,0.52,0.76,0.05,0.9
					c-4.83,1.33-9.78,2.28-14.79,2.56c-5.05,0.29-10.15,0.38-15.12,1.4c-5.76,1.18-10.95,4.02-12.97,9.86
					c-1.15,3.33-1.26,6.95-1.01,10.43c0.04,0.51-0.68,0.7-0.88,0.22C-167.47-88.16-165.52-100.61-151.17-105.37z"/>
			</g>
		</g>
		<g>
			<path className="st3" d="M-141.84-97.02l3.31,2.66c0.32,0.25,0.78,0.19,1.01-0.14c0,0,0.01-0.01,0.01-0.01
				c0.21-0.3,0.15-0.72-0.13-0.95l-3.29-2.64c-0.12-0.1-0.28-0.15-0.43-0.15c-0.01,0-0.02,0-0.03,0
				C-142.06-98.27-142.35-97.43-141.84-97.02z"/>
			<path className="st3" d="M-143.19-88.22c0,0,0.01-0.01,0.01-0.01c0.31-0.29,0.3-0.79-0.04-1.06l-8.28-6.65
				c-0.21-0.17-0.5-0.2-0.74-0.09c-0.01,0-0.02,0.01-0.02,0.01c-0.46,0.22-0.53,0.85-0.13,1.17l8.29,6.66
				C-143.83-87.97-143.44-87.98-143.19-88.22z"/>
			<path className="st3" d="M-149.21-83.23c0,0,0.01-0.01,0.01-0.01c0.37-0.27,0.38-0.82,0.02-1.11l-8.12-6.52
				c-0.33-0.26-0.81-0.18-1.03,0.17c0,0-0.01,0.01-0.01,0.01c-0.19,0.3-0.12,0.7,0.15,0.92l8.11,6.52
				C-149.82-83.05-149.47-83.04-149.21-83.23z"/>
			<path className="st3" d="M-155.71-79.83l-3.48-2.82c-0.4-0.33-1.01-0.12-1.13,0.39l-0.01,0.05c-0.06,0.26,0.04,0.53,0.25,0.7
				l3.46,2.78c0.23,0.19,0.56,0.21,0.81,0.05c0.01-0.01,0.02-0.01,0.03-0.02C-155.37-78.95-155.34-79.53-155.71-79.83z"/>
		</g>
		<g>
			<path className="st3" d="M-162.94-60.63c0,0-0.01,0.01-0.01,0.01c-0.34,0.37-0.24,0.95,0.19,1.19l8,4.45
				c0.46,0.25,1.03-0.01,1.13-0.52c0-0.01,0-0.01,0-0.02c0.06-0.33-0.09-0.66-0.38-0.82l-7.99-4.44
				C-162.31-60.96-162.7-60.89-162.94-60.63z"/>
			<path className="st3" d="M-156-47.49c0-0.01,0.01-0.01,0.01-0.02c0.15-0.36,0.01-0.78-0.33-0.97l-10.83-6.02
				c-0.36-0.2-0.82-0.08-1.03,0.27c0,0.01-0.01,0.01-0.01,0.02c-0.23,0.37-0.09,0.86,0.29,1.07l10.84,6.02
				C-156.69-46.9-156.18-47.07-156-47.49z"/>
			<path className="st3" d="M-159.78-41.08c0-0.01,0.01-0.01,0.01-0.02c0.25-0.37,0.12-0.88-0.27-1.1l-9.32-5.17
				c-0.49-0.27-1.09,0.06-1.14,0.62c0,0.01,0,0.02,0,0.02c-0.02,0.3,0.13,0.58,0.39,0.73l9.31,5.17
				C-160.45-40.64-160-40.75-159.78-41.08z"/>
			<path className="st3" d="M-163.68-34.9c0-0.01,0.01-0.01,0.01-0.02c0.21-0.37,0.08-0.85-0.29-1.06c-1.72-0.96-3.44-1.91-5.16-2.87
				c-0.23-0.13-0.47-0.25-0.68-0.38c-0.28,0.56,0.04,1.81,0.6,2.12c0,0,4.49,2.49,4.49,2.49C-164.35-34.41-163.89-34.54-163.68-34.9
				z"/>
		</g>
		<g>
			<path className="st4" d="M-142.86-16.44c1.39,0.76,3.82,0.66,5.33-0.25c1.48-0.89,1.39-2.15-0.08-2.81c-1.4-0.62-3.6-0.48-4.99,0.31
				C-144.03-18.39-144.18-17.17-142.86-16.44z"/>
			<path className="st4" d="M-148.52-12.44c0.91,0.62,2.62,0.58,3.77-0.11c1.13-0.68,1.22-1.68,0.25-2.24
				c-0.93-0.53-2.52-0.46-3.59,0.15C-149.18-14.01-149.39-13.04-148.52-12.44z"/>
			<path className="st4" d="M-136.67-9.29c0.07,1.66,2.33,3.1,5.11,3.14c2.87,0.03,4.91-1.44,4.52-3.19c-0.38-1.63-2.77-2.84-5.31-2.79
				C-134.83-12.08-136.74-10.85-136.67-9.29z"/>
			<path className="st4" d="M-145.67-8.61c-0.13,1.12,1.14,2.07,2.88,2.08c1.78,0.01,3.25-0.95,3.24-2.11c-0.01-1.1-1.36-1.94-3-1.92
				C-144.16-10.53-145.54-9.68-145.67-8.61z"/>
			<path className="st4" d="M-157.95,7.49c-2.64-0.26-5.44,1.6-6.4,4.32c-1.03,2.95,0.4,5.91,3.39,6.41c3.11,0.52,6.29-1.85,6.95-5.06
				C-153.4,10.2-155.22,7.76-157.95,7.49z"/>
			<path className="st4" d="M-155.84-0.55c-1.67-0.08-3.39,1-3.89,2.47c-0.53,1.55,0.47,3,2.29,3.15c1.87,0.16,3.73-1.1,4.1-2.73
				C-152.99,0.8-154.13-0.47-155.84-0.55z"/>
			<path className="st4" d="M-170.19,2.15c-0.77-1.49-3.07-1.63-5.25-0.37c-2.23,1.29-3.68,3.68-3.17,5.4c0.56,1.85,3.1,2.16,5.6,0.62
				C-170.59,6.3-169.38,3.74-170.19,2.15z"/>
			<path className="st4" d="M-162.26-2.42c-0.68-0.91-2.33-0.96-3.75-0.14c-1.44,0.84-2.19,2.32-1.62,3.34c0.6,1.07,2.39,1.2,3.94,0.24
				C-162.16,0.1-161.55-1.46-162.26-2.42z"/>
			<path className="st4" d="M-170.62-7.21c0.82-1.38,0.11-2.44-1.53-2.42c-1.6,0.02-3.59,1.05-4.53,2.38c-0.99,1.4-0.47,2.61,1.25,2.66
				C-173.68-4.55-171.49-5.75-170.62-7.21z"/>
			<path className="st4" d="M-163.48-6.98c0.48-1.02-0.18-1.81-1.45-1.8c-1.24,0.01-2.68,0.79-3.24,1.77c-0.58,1.03-0.02,1.91,1.3,1.94
				C-165.52-5.05-163.98-5.92-163.48-6.98z"/>
			<g>
				<path className="st4" d="M-141.68,1.79c-2.16,1.54-2.39,4.42-0.3,6.54c2.27,2.3,6.24,2.72,8.62,0.81c2.29-1.85,1.93-4.98-0.54-6.91
					C-136.19,0.46-139.58,0.29-141.68,1.79z"/>
			</g>
			<g>
				<path className="st4" d="M-148.39-3.39c-1.4,0.91-1.7,2.51-0.58,3.62c1.18,1.17,3.43,1.3,4.93,0.25c1.47-1.02,1.55-2.71,0.28-3.74
					C-144.98-4.23-147.02-4.28-148.39-3.39z"/>
			</g>
		</g>
	</g>
	<g className="st1">
		<path d="M-23.42-44.48L-35.9-67.73v29.4c0,1.08-0.9,1.97-1.97,1.97c-1.08,0-1.97-0.9-1.97-1.97v-37.22c0-1.08,0.9-1.97,1.97-1.97
			c0.9,0,1.49,0.54,1.79,1.13l14.46,27.07l14.52-27.07c0.24-0.42,0.72-1.13,1.79-1.13c1.08,0,1.97,0.9,1.97,1.97v37.22
			c0,1.08-0.9,1.97-1.97,1.97c-1.07,0-1.97-0.9-1.97-1.97v-29.4l-12.55,23.24c-0.42,0.78-1.08,1.13-1.79,1.13
			C-22.22-43.35-23-43.65-23.42-44.48"/>
		<path d="M4.27-72.33c0-1.73,0.84-2.39,2.27-2.39c1.43,0,2.27,0.66,2.27,2.39c0,1.43-0.84,2.27-2.27,2.27
			C5.11-70.06,4.27-70.89,4.27-72.33 M8.45-38.27c0,1.08-0.84,1.91-1.91,1.91c-1.08,0-1.91-0.84-1.91-1.91v-24.26
			c0-1.08,0.84-1.91,1.91-1.91c1.08,0,1.91,0.84,1.91,1.91V-38.27z"/>
		<path d="M26.74-64.8c5.32,0,8.25,2.81,9.2,4.12c0.3,0.42,0.42,0.72,0.42,1.13c0,1.02-0.78,1.73-1.73,1.73
			c-0.6,0-1.02-0.24-1.43-0.72c-0.9-1.02-2.51-2.81-6.45-2.81c-5.5,0-8.43,3.53-8.43,10.87c0,7.47,2.93,10.93,8.43,10.93
			c3.47,0,5.56-1.55,6.93-2.57c0.42-0.3,0.72-0.42,1.13-0.42c0.96,0,1.73,0.78,1.73,1.73c0,0.54-0.18,0.96-0.78,1.49
			c-1.31,1.08-4.18,3.23-9.02,3.23c-7.71,0-12.31-4.6-12.31-14.4C14.43-60.26,19.03-64.8,26.74-64.8"/>
		<path d="M46.39-59.9c1.2-2.75,4.18-4.78,8.31-4.78c1.02,0,1.85,0.84,1.85,1.85c0,1.01-0.84,1.85-1.85,1.85
			c-5.5,0-8.31,3.82-8.31,9.32v13.38c0,1.08-0.84,1.91-1.91,1.91c-1.07,0-1.91-0.84-1.91-1.91v-24.26c0-1.08,0.84-1.91,1.91-1.91
			c1.08,0,1.91,0.84,1.91,1.91V-59.9z"/>
		<path d="M82.41-50.46c0,9.8-4.78,14.4-12.55,14.4c-7.71,0-12.55-4.6-12.55-14.4c0-9.8,4.84-14.34,12.55-14.34
			C77.63-64.8,82.41-60.26,82.41-50.46 M78.53-50.46c0-7.53-3.17-10.87-8.66-10.87c-5.5,0-8.66,3.35-8.66,10.87
			c0,7.65,3.17,10.93,8.66,10.93C75.36-39.52,78.53-42.81,78.53-50.46"/>
		<path d="M116.89-44.48v-8.66h-9.98c-1.02,0-1.85-0.84-1.85-1.85c0-1.02,0.84-1.85,1.85-1.85h12.07c0.96,0,1.85,0.84,1.85,1.85
			v10.46c0,0.72-0.24,1.31-0.78,1.97C117.19-39.23,113-36,105.77-36c-11.59,0-18.64-6.21-18.64-20.91
			c0-14.16,7.05-20.97,18.64-20.97c5.68,0,10.63,2.45,13.44,6.33c0.3,0.42,0.42,0.84,0.42,1.25c0,1.08-0.84,1.91-1.91,1.91
			c-0.54,0-1.08-0.18-1.55-0.78c-2.03-2.81-5.86-5.02-10.4-5.02c-9.2,0-14.46,5.56-14.46,17.27c0,12.43,5.26,17.21,14.46,17.21
			C111.33-39.7,114.92-42.03,116.89-44.48"/>
		<path d="M138.52-64.8c9.56,0,11.41,7.59,11.41,11.65c0,1.73,0,3.82-2.39,3.82h-17.45c0,5.91,3.4,9.74,9.02,9.74
			c3.47,0,5.5-1.31,7.17-2.57c0.36-0.24,0.6-0.36,1.08-0.36c0.95,0,1.73,0.78,1.73,1.73c0,0.66-0.3,1.02-0.66,1.37
			c-0.9,0.9-4,3.35-9.32,3.35c-7.95,0-12.91-4.36-12.91-14.4C126.21-59.66,130.75-64.8,138.52-64.8 M138.52-61.33
			c-5.2,0-8.07,3.35-8.42,8.66h16.07C146.16-56.97,144.67-61.33,138.52-61.33"/>
		<path d="M177.25-54.22v15.95c0,1.08-0.84,1.91-1.91,1.91c-1.07,0-1.91-0.84-1.91-1.91v-15.18c0-4.72-1.37-7.95-7.17-7.95
			c-5.91,0-7.95,3.58-7.95,8.37v14.76c0,1.08-0.84,1.91-1.91,1.91s-1.91-0.84-1.91-1.91v-24.26c0-1.08,0.84-1.91,1.91-1.91
			s1.91,0.84,1.91,1.91v1.91c1.13-2.27,4.06-4.18,7.95-4.18C175.45-64.8,177.25-59.3,177.25-54.22"/>
		<g>
			<path d="M218.66-46.78c-0.57,0-1.1-0.26-1.43-0.77l-5.57-8.35l-5.57,8.35c-0.34,0.5-0.9,0.77-1.43,0.77
				c-0.91,0-1.74-0.77-1.74-1.73c0-0.34,0.1-0.67,0.3-0.97l6.41-9.41l-6.31-9.25c-0.2-0.3-0.3-0.63-0.3-0.97
				c0-0.9,0.77-1.74,1.74-1.74c0.57,0,1.1,0.27,1.43,0.77l5.48,8.18l5.47-8.18c0.34-0.5,0.91-0.77,1.44-0.77c0.9,0,1.7,0.8,1.7,1.74
				c0,0.34-0.1,0.67-0.3,0.97l-6.31,9.25l6.45,9.41c0.2,0.3,0.3,0.64,0.3,0.97C220.4-47.61,219.63-46.78,218.66-46.78"/>
			<path d="M190.28-70.51h-4.41c-1.21,0-2.17,0.96-2.17,2.13v19.13c0,1.17,0.96,2.14,2.17,2.14h4.41c5.48,0,9.18-3.64,9.18-9.08
				v-5.24C199.46-66.88,195.75-70.51,190.28-70.51z M195.92-56.12c0,3.5-2.03,5.64-5.61,5.64h-3.07v-16.66h3.07
				c3.57,0,5.61,2.1,5.61,5.64V-56.12z"/>
		</g>
		<g>
			<path d="M-39.75-25.12h1.7l6.57,9.43h0.03v-9.43h1.35v11.35h-1.7l-6.57-9.43h-0.03v9.43h-1.35V-25.12z"/>
			<path d="M-25.67-25.12h7.13v1.25h-5.79v3.56h5.4v1.25h-5.4v4.04h6.08v1.25h-7.42V-25.12z"/>
			<path d="M-11.88-19.75l-3.82-5.37h1.73l3.06,4.44l3.03-4.44h1.68L-10-19.75l4.18,5.98H-7.6l-3.37-5.03l-3.38,5.03h-1.67
				L-11.88-19.75z"/>
			<path d="M4.76-23.87H1.01v10.1h-1.35v-10.1h-3.75v-1.25h8.85V-23.87z"/>
			<path d="M5.18-18.19h3.93v1.15H5.18V-18.19z"/>
			<path d="M22.48-14.54c-0.65,0.36-1.34,0.63-2.06,0.8s-1.45,0.26-2.19,0.26c-0.89,0-1.7-0.14-2.44-0.43
				c-0.74-0.29-1.38-0.69-1.92-1.22s-0.96-1.15-1.26-1.88c-0.3-0.73-0.45-1.54-0.45-2.43c0-0.9,0.16-1.71,0.47-2.45
				c0.32-0.73,0.75-1.36,1.31-1.88c0.56-0.52,1.2-0.92,1.94-1.21c0.74-0.29,1.53-0.43,2.39-0.43c0.75,0,1.47,0.11,2.16,0.34
				s1.31,0.61,1.85,1.15l-1.01,1.06c-0.38-0.42-0.85-0.74-1.4-0.96c-0.55-0.22-1.11-0.34-1.69-0.34c-0.65,0-1.26,0.12-1.81,0.35
				c-0.56,0.24-1.04,0.56-1.45,0.98c-0.41,0.42-0.73,0.91-0.96,1.49c-0.23,0.58-0.34,1.21-0.34,1.89c0,0.67,0.12,1.3,0.34,1.88
				c0.23,0.58,0.55,1.08,0.96,1.5c0.41,0.42,0.91,0.75,1.48,0.99c0.58,0.24,1.21,0.35,1.91,0.35c0.46,0,0.94-0.06,1.44-0.17
				c0.5-0.11,0.96-0.27,1.38-0.49v-3.48h-2.61v-1.25h3.96V-14.54z"/>
			<path d="M26.9-25.12h7.13v1.25h-5.79v3.56h5.4v1.25h-5.4v4.04h6.08v1.25H26.9V-25.12z"/>
			<path d="M38.02-25.12h1.7l6.57,9.43h0.03v-9.43h1.35v11.35h-1.7l-6.57-9.43h-0.03v9.43h-1.35V-25.12z"/>
			<path d="M57.95-25.12h4.36c0.37,0,0.77,0.04,1.19,0.13c0.42,0.09,0.83,0.22,1.24,0.41c0.41,0.19,0.81,0.43,1.19,0.73
				c0.38,0.3,0.71,0.66,1,1.08c0.29,0.42,0.52,0.91,0.69,1.46c0.17,0.55,0.26,1.17,0.26,1.87c0,0.7-0.09,1.32-0.26,1.87
				c-0.17,0.55-0.4,1.04-0.69,1.46c-0.29,0.42-0.62,0.78-1,1.08c-0.38,0.3-0.78,0.54-1.19,0.73c-0.41,0.19-0.83,0.32-1.24,0.41
				c-0.42,0.09-0.81,0.13-1.19,0.13h-4.36V-25.12z M59.29-15.02h2.57c0.65,0,1.26-0.09,1.81-0.26c0.56-0.17,1.04-0.44,1.44-0.79
				c0.41-0.36,0.73-0.81,0.96-1.37c0.24-0.56,0.35-1.22,0.35-2c0-0.78-0.12-1.45-0.35-2c-0.24-0.56-0.56-1.01-0.96-1.37
				c-0.41-0.36-0.89-0.62-1.44-0.79c-0.56-0.17-1.16-0.26-1.81-0.26h-2.57V-15.02z"/>
			<path d="M71.64-25.12h1.7l6.57,9.43h0.03v-9.43h1.35v11.35h-1.7l-6.57-9.43h-0.03v9.43h-1.35V-25.12z"/>
			<path d="M89.41-25.12h1.27l4.83,11.35h-1.57l-1.15-2.79H87.1l-1.17,2.79H84.4L89.41-25.12z M90.02-23.39h-0.03l-2.36,5.58h4.63
				L90.02-23.39z"/>
			<path d="M110.06-23.11c-0.22-0.36-0.52-0.63-0.9-0.79s-0.76-0.25-1.17-0.25c-0.3,0-0.59,0.04-0.88,0.11
				c-0.29,0.07-0.55,0.19-0.78,0.34c-0.23,0.15-0.41,0.35-0.55,0.59c-0.14,0.25-0.21,0.53-0.21,0.87c0,0.26,0.04,0.48,0.12,0.68
				c0.08,0.2,0.21,0.38,0.39,0.54c0.18,0.16,0.43,0.31,0.74,0.45c0.31,0.14,0.69,0.28,1.14,0.42c0.44,0.14,0.86,0.29,1.27,0.45
				s0.78,0.36,1.09,0.61c0.31,0.25,0.57,0.55,0.75,0.92c0.19,0.37,0.28,0.83,0.28,1.39c0,0.57-0.11,1.06-0.34,1.48
				c-0.22,0.42-0.52,0.76-0.89,1.03c-0.37,0.27-0.79,0.48-1.28,0.61c-0.48,0.13-0.98,0.2-1.49,0.2c-0.33,0-0.66-0.03-0.99-0.09
				c-0.33-0.06-0.65-0.15-0.95-0.27c-0.3-0.12-0.59-0.28-0.86-0.48c-0.27-0.2-0.5-0.44-0.69-0.73l1.15-0.95
				c0.25,0.42,0.59,0.73,1.03,0.95s0.9,0.32,1.39,0.32c0.29,0,0.58-0.04,0.87-0.13s0.56-0.21,0.79-0.38
				c0.24-0.17,0.43-0.37,0.58-0.62c0.15-0.25,0.22-0.53,0.22-0.85c0-0.35-0.06-0.64-0.18-0.86c-0.12-0.22-0.3-0.41-0.54-0.57
				s-0.56-0.3-0.93-0.43c-0.38-0.13-0.81-0.28-1.32-0.45c-0.41-0.13-0.78-0.28-1.12-0.44s-0.64-0.37-0.89-0.61
				c-0.25-0.24-0.45-0.53-0.59-0.87c-0.14-0.34-0.22-0.74-0.22-1.21c0-0.54,0.11-1.02,0.32-1.43s0.5-0.75,0.87-1.02
				c0.36-0.27,0.77-0.48,1.23-0.62c0.46-0.14,0.94-0.21,1.44-0.21c0.64,0,1.23,0.1,1.76,0.3c0.53,0.2,1,0.54,1.42,1.03L110.06-23.11
				z"/>
			<path d="M115.19-25.12h7.13v1.25h-5.79v3.56h5.4v1.25h-5.4v4.04h6.08v1.25h-7.42V-25.12z"/>
			<path d="M138.07-13.77h-6.59c-0.83,0-1.61-0.15-2.32-0.45s-1.33-0.71-1.84-1.23c-0.52-0.52-0.93-1.13-1.23-1.84
				c-0.3-0.71-0.45-1.48-0.45-2.3s0.15-1.59,0.45-2.3c0.3-0.71,0.71-1.33,1.23-1.84c0.52-0.52,1.13-0.93,1.84-1.23
				s1.48-0.45,2.32-0.45s1.61,0.15,2.32,0.45s1.33,0.71,1.84,1.23s0.93,1.13,1.23,1.84c0.3,0.71,0.45,1.48,0.45,2.3
				c0,0.48-0.06,0.96-0.19,1.44c-0.13,0.48-0.31,0.92-0.55,1.33c-0.24,0.41-0.53,0.78-0.87,1.11c-0.34,0.33-0.72,0.58-1.15,0.76
				v0.03h3.51V-13.77z M127.09-19.59c0,0.64,0.11,1.24,0.34,1.8s0.53,1.04,0.92,1.45c0.39,0.41,0.85,0.74,1.39,0.97
				c0.53,0.24,1.12,0.35,1.75,0.35c0.62,0,1.2-0.12,1.74-0.35c0.54-0.23,1-0.56,1.39-0.97c0.39-0.41,0.7-0.9,0.92-1.45
				s0.34-1.15,0.34-1.8c0-0.63-0.11-1.22-0.33-1.78c-0.22-0.56-0.52-1.04-0.91-1.45c-0.39-0.41-0.85-0.74-1.39-0.98
				c-0.53-0.24-1.12-0.36-1.76-0.36c-0.64,0-1.23,0.12-1.76,0.36c-0.53,0.24-1,0.57-1.39,0.98c-0.39,0.41-0.7,0.9-0.91,1.45
				S127.09-20.22,127.09-19.59z"/>
			<path d="M149.79-18.1c0,0.62-0.08,1.21-0.23,1.76c-0.15,0.56-0.4,1.04-0.74,1.47s-0.78,0.76-1.32,1.01
				c-0.55,0.25-1.21,0.38-1.99,0.38c-0.78,0-1.44-0.13-1.99-0.38c-0.55-0.25-0.99-0.59-1.32-1.01s-0.58-0.91-0.74-1.47
				c-0.16-0.56-0.23-1.14-0.23-1.76v-7.02h1.35v6.83c0,0.46,0.05,0.9,0.14,1.33c0.1,0.43,0.26,0.81,0.48,1.14s0.52,0.6,0.9,0.79
				c0.37,0.2,0.84,0.3,1.41,0.3c0.57,0,1.04-0.1,1.41-0.3c0.37-0.2,0.67-0.46,0.9-0.79s0.38-0.71,0.48-1.14
				c0.1-0.43,0.14-0.87,0.14-1.33v-6.83h1.35V-18.1z"/>
			<path d="M154.17-25.12h7.13v1.25h-5.79v3.56h5.4v1.25h-5.4v4.04h6.08v1.25h-7.42V-25.12z"/>
			<path d="M165.28-25.12h1.7l6.57,9.43h0.03v-9.43h1.35v11.35h-1.7l-6.57-9.43h-0.03v9.43h-1.35V-25.12z"/>
			<path d="M187.31-22.78c-0.34-0.46-0.76-0.8-1.27-1.03c-0.5-0.23-1.03-0.34-1.57-0.34c-0.63,0-1.21,0.13-1.74,0.38
				c-0.53,0.26-0.99,0.6-1.37,1.03s-0.68,0.94-0.9,1.51s-0.32,1.17-0.32,1.79c0,0.66,0.11,1.28,0.32,1.85s0.51,1.07,0.89,1.49
				c0.38,0.42,0.83,0.76,1.36,1c0.53,0.25,1.11,0.37,1.76,0.37c0.69,0,1.31-0.14,1.86-0.41c0.54-0.27,1.02-0.67,1.43-1.18l1.01,0.85
				c-0.51,0.68-1.13,1.19-1.85,1.51c-0.72,0.32-1.54,0.48-2.45,0.48c-0.81,0-1.57-0.15-2.28-0.45c-0.71-0.3-1.32-0.71-1.84-1.24
				c-0.52-0.53-0.92-1.16-1.22-1.88c-0.29-0.73-0.44-1.52-0.44-2.39c0-0.83,0.14-1.61,0.42-2.34s0.68-1.36,1.19-1.89
				c0.51-0.53,1.12-0.96,1.83-1.27c0.71-0.31,1.48-0.47,2.33-0.47c0.77,0,1.51,0.14,2.22,0.42c0.71,0.28,1.31,0.73,1.79,1.36
				L187.31-22.78z"/>
			<path d="M192.25-25.12h1.35v11.35h-1.35V-25.12z"/>
			<path d="M198.02-25.12h1.7l6.57,9.43h0.03v-9.43h1.35v11.35h-1.7l-6.57-9.43h-0.03v9.43h-1.35V-25.12z"/>
			<path d="M221.75-14.54c-0.65,0.36-1.34,0.63-2.06,0.8s-1.45,0.26-2.19,0.26c-0.89,0-1.7-0.14-2.44-0.43
				c-0.74-0.29-1.38-0.69-1.92-1.22s-0.96-1.15-1.26-1.88c-0.3-0.73-0.45-1.54-0.45-2.43c0-0.9,0.16-1.71,0.47-2.45
				c0.32-0.73,0.75-1.36,1.31-1.88c0.56-0.52,1.2-0.92,1.94-1.21s1.53-0.43,2.39-0.43c0.75,0,1.47,0.11,2.16,0.34
				s1.31,0.61,1.85,1.15l-1.01,1.06c-0.38-0.42-0.85-0.74-1.4-0.96c-0.55-0.22-1.11-0.34-1.69-0.34c-0.65,0-1.26,0.12-1.81,0.35
				c-0.56,0.24-1.04,0.56-1.45,0.98c-0.41,0.42-0.73,0.91-0.96,1.49c-0.23,0.58-0.34,1.21-0.34,1.89c0,0.67,0.12,1.3,0.34,1.88
				c0.23,0.58,0.55,1.08,0.96,1.5c0.41,0.42,0.91,0.75,1.48,0.99c0.58,0.24,1.21,0.35,1.91,0.35c0.46,0,0.94-0.06,1.44-0.17
				c0.5-0.11,0.96-0.27,1.38-0.49v-3.48h-2.61v-1.25h3.96V-14.54z"/>
			<path d="M-40.22-8.51h4.69v0.83h-3.79v2.5h3.53v0.83h-3.53v3.4h-0.9V-8.51z"/>
			<path d="M-29.77-0.75c-0.58,0-1.11-0.1-1.59-0.3c-0.48-0.2-0.9-0.48-1.25-0.83c-0.35-0.35-0.63-0.77-0.82-1.26
				c-0.2-0.49-0.29-1.02-0.29-1.59c0-0.57,0.1-1.1,0.29-1.59c0.2-0.49,0.47-0.91,0.82-1.26c0.35-0.35,0.77-0.63,1.25-0.83
				c0.48-0.2,1.01-0.3,1.59-0.3c0.58,0,1.11,0.1,1.59,0.3c0.48,0.2,0.9,0.48,1.25,0.83c0.35,0.35,0.63,0.77,0.82,1.26
				c0.2,0.49,0.29,1.02,0.29,1.59c0,0.57-0.1,1.1-0.29,1.59c-0.2,0.49-0.47,0.91-0.82,1.26c-0.35,0.35-0.77,0.63-1.25,0.83
				C-28.67-0.85-29.2-0.75-29.77-0.75z M-29.77-1.58c0.44,0,0.85-0.08,1.21-0.25s0.68-0.39,0.95-0.67s0.47-0.62,0.61-1
				s0.22-0.79,0.22-1.22c0-0.43-0.07-0.84-0.22-1.22c-0.15-0.38-0.35-0.71-0.61-1c-0.26-0.29-0.58-0.51-0.95-0.67
				c-0.37-0.16-0.77-0.25-1.21-0.25c-0.44,0-0.85,0.08-1.21,0.25c-0.37,0.16-0.68,0.39-0.95,0.67c-0.26,0.28-0.47,0.62-0.61,1
				c-0.15,0.38-0.22,0.79-0.22,1.22c0,0.44,0.07,0.84,0.22,1.22c0.15,0.38,0.35,0.71,0.61,1s0.58,0.51,0.95,0.67
				S-30.22-1.58-29.77-1.58z"/>
			<path d="M-23.39-8.51h1.93c0.36,0,0.73,0.02,1.09,0.06c0.36,0.04,0.68,0.14,0.97,0.28s0.52,0.35,0.7,0.63
				c0.18,0.27,0.27,0.65,0.27,1.12c0,0.56-0.17,1-0.5,1.35c-0.33,0.34-0.8,0.56-1.39,0.65l2.15,3.48h-1.1l-2.05-3.4h-1.15v3.4h-0.9
				V-8.51z M-22.49-5.17h0.8c0.25,0,0.51-0.01,0.77-0.02c0.27-0.01,0.51-0.06,0.74-0.14c0.22-0.08,0.41-0.2,0.56-0.37
				c0.15-0.17,0.22-0.41,0.22-0.72c0-0.27-0.05-0.49-0.16-0.65c-0.11-0.16-0.25-0.29-0.42-0.38c-0.17-0.09-0.37-0.15-0.59-0.18
				c-0.22-0.03-0.44-0.04-0.66-0.04h-1.26V-5.17z"/>
			<path d="M-9.46-8.51h0.84l3.22,7.57h-1.05L-7.22-2.8H-11l-0.78,1.86h-1.02L-9.46-8.51z M-9.06-7.35h-0.02l-1.57,3.72h3.09
				L-9.06-7.35z"/>
			<path d="M1.89-6.95C1.66-7.25,1.38-7.48,1.04-7.64S0.36-7.87,0-7.87c-0.42,0-0.81,0.09-1.16,0.26c-0.35,0.17-0.66,0.4-0.91,0.69
				c-0.26,0.29-0.46,0.62-0.6,1c-0.14,0.38-0.21,0.78-0.21,1.19c0,0.44,0.07,0.85,0.21,1.23c0.14,0.38,0.34,0.71,0.59,0.99
				c0.25,0.28,0.56,0.5,0.91,0.67C-0.82-1.66-0.43-1.58,0-1.58c0.46,0,0.88-0.09,1.24-0.27S1.92-2.3,2.19-2.64l0.67,0.57
				c-0.34,0.46-0.75,0.79-1.24,1C1.14-0.85,0.6-0.75,0-0.75c-0.54,0-1.05-0.1-1.52-0.3c-0.47-0.2-0.88-0.48-1.22-0.83
				c-0.35-0.35-0.62-0.77-0.81-1.26c-0.2-0.48-0.29-1.02-0.29-1.59c0-0.56,0.09-1.08,0.28-1.56c0.19-0.48,0.45-0.9,0.8-1.26
				s0.75-0.64,1.22-0.84C-1.08-8.6-0.57-8.7,0-8.7C0.51-8.7,1-8.61,1.48-8.42c0.47,0.19,0.87,0.49,1.19,0.91L1.89-6.95z"/>
			<path d="M10.4-6.95c-0.23-0.31-0.51-0.54-0.84-0.69S8.87-7.87,8.5-7.87c-0.42,0-0.81,0.09-1.16,0.26
				c-0.35,0.17-0.66,0.4-0.91,0.69c-0.26,0.29-0.46,0.62-0.6,1C5.69-5.53,5.62-5.14,5.62-4.72c0,0.44,0.07,0.85,0.21,1.23
				c0.14,0.38,0.34,0.71,0.59,0.99c0.25,0.28,0.56,0.5,0.91,0.67C7.69-1.66,8.08-1.58,8.5-1.58c0.46,0,0.88-0.09,1.24-0.27
				s0.68-0.44,0.95-0.79l0.67,0.57c-0.34,0.46-0.75,0.79-1.24,1C9.65-0.85,9.11-0.75,8.5-0.75c-0.54,0-1.05-0.1-1.52-0.3
				c-0.47-0.2-0.88-0.48-1.22-0.83C5.42-2.23,5.15-2.65,4.95-3.13c-0.2-0.48-0.29-1.02-0.29-1.59c0-0.56,0.09-1.08,0.28-1.56
				c0.19-0.48,0.45-0.9,0.8-1.26s0.75-0.64,1.22-0.84C7.42-8.6,7.94-8.7,8.5-8.7c0.51,0,1.01,0.09,1.48,0.28
				c0.47,0.19,0.87,0.49,1.19,0.91L10.4-6.95z"/>
			<path d="M19.28-3.83c0,0.41-0.05,0.81-0.16,1.18c-0.1,0.37-0.27,0.7-0.49,0.98C18.41-1.39,18.11-1.17,17.75-1
				c-0.36,0.17-0.8,0.25-1.33,0.25c-0.52,0-0.96-0.08-1.33-0.25c-0.36-0.17-0.66-0.39-0.88-0.67c-0.22-0.28-0.39-0.61-0.49-0.98
				c-0.1-0.37-0.16-0.76-0.16-1.18v-4.68h0.9v4.55c0,0.31,0.03,0.6,0.1,0.89c0.06,0.29,0.17,0.54,0.32,0.76s0.35,0.4,0.6,0.53
				c0.25,0.13,0.56,0.2,0.94,0.2s0.69-0.07,0.94-0.2c0.25-0.13,0.45-0.31,0.6-0.53c0.15-0.22,0.26-0.47,0.32-0.76
				c0.06-0.28,0.1-0.58,0.1-0.89v-4.55h0.9V-3.83z"/>
			<path d="M22.11-8.51h1.93c0.36,0,0.73,0.02,1.09,0.06c0.36,0.04,0.68,0.14,0.97,0.28s0.52,0.35,0.7,0.63
				c0.18,0.27,0.27,0.65,0.27,1.12c0,0.56-0.17,1-0.5,1.35c-0.33,0.34-0.8,0.56-1.39,0.65l2.15,3.48h-1.1l-2.05-3.4h-1.15v3.4h-0.9
				V-8.51z M23.01-5.17h0.8c0.25,0,0.51-0.01,0.77-0.02c0.27-0.01,0.51-0.06,0.74-0.14c0.22-0.08,0.41-0.2,0.56-0.37
				c0.15-0.17,0.22-0.41,0.22-0.72c0-0.27-0.05-0.49-0.16-0.65c-0.11-0.16-0.25-0.29-0.42-0.38c-0.17-0.09-0.37-0.15-0.59-0.18
				c-0.22-0.03-0.44-0.04-0.66-0.04h-1.26V-5.17z"/>
			<path d="M32.09-8.51h0.84l3.22,7.57H35.1L34.33-2.8h-3.78l-0.78,1.86h-1.02L32.09-8.51z M32.49-7.35h-0.02L30.9-3.63h3.09
				L32.49-7.35z"/>
			<path d="M42.23-7.67h-2.5v6.73h-0.9v-6.73h-2.5v-0.83h5.9V-7.67z"/>
			<path d="M44.27-8.51h4.76v0.83h-3.86v2.37h3.6v0.83h-3.6v2.69h4.05v0.83h-4.95V-8.51z"/>
			<path d="M55.55-8.51h1.34l2.57,5.93h0.02l2.59-5.93h1.3v7.57h-0.9v-6.35h-0.02l-2.71,6.35h-0.54l-2.71-6.35h-0.02v6.35h-0.9
				V-8.51z"/>
			<path d="M66.23-8.51h0.9v7.57h-0.9V-8.51z"/>
			<path d="M75.29-6.95c-0.23-0.31-0.51-0.54-0.84-0.69s-0.68-0.23-1.05-0.23c-0.42,0-0.81,0.09-1.16,0.26
				c-0.35,0.17-0.66,0.4-0.91,0.69c-0.26,0.29-0.46,0.62-0.6,1c-0.14,0.38-0.21,0.78-0.21,1.19c0,0.44,0.07,0.85,0.21,1.23
				c0.14,0.38,0.34,0.71,0.59,0.99c0.25,0.28,0.56,0.5,0.91,0.67c0.35,0.16,0.74,0.25,1.17,0.25c0.46,0,0.88-0.09,1.24-0.27
				s0.68-0.44,0.95-0.79l0.67,0.57c-0.34,0.46-0.75,0.79-1.24,1c-0.48,0.21-1.02,0.32-1.63,0.32c-0.54,0-1.05-0.1-1.52-0.3
				c-0.47-0.2-0.88-0.48-1.22-0.83c-0.35-0.35-0.62-0.77-0.81-1.26c-0.2-0.48-0.29-1.02-0.29-1.59c0-0.56,0.09-1.08,0.28-1.56
				c0.19-0.48,0.45-0.9,0.8-1.26s0.75-0.64,1.22-0.84C72.32-8.6,72.84-8.7,73.4-8.7c0.51,0,1.01,0.09,1.48,0.28
				c0.47,0.19,0.87,0.49,1.19,0.91L75.29-6.95z"/>
			<path d="M78.5-8.51h1.93c0.36,0,0.73,0.02,1.09,0.06c0.36,0.04,0.68,0.14,0.97,0.28s0.52,0.35,0.7,0.63
				c0.18,0.27,0.27,0.65,0.27,1.12c0,0.56-0.17,1-0.5,1.35c-0.33,0.34-0.8,0.56-1.39,0.65l2.15,3.48h-1.1l-2.05-3.4H79.4v3.4h-0.9
				V-8.51z M79.4-5.17h0.8c0.25,0,0.51-0.01,0.77-0.02c0.27-0.01,0.51-0.06,0.74-0.14c0.22-0.08,0.41-0.2,0.56-0.37
				c0.15-0.17,0.22-0.41,0.22-0.72c0-0.27-0.05-0.49-0.16-0.65c-0.11-0.16-0.25-0.29-0.42-0.38c-0.17-0.09-0.37-0.15-0.59-0.18
				c-0.22-0.03-0.44-0.04-0.66-0.04H79.4V-5.17z"/>
			<path d="M89.53-0.75c-0.58,0-1.11-0.1-1.59-0.3c-0.48-0.2-0.9-0.48-1.25-0.83c-0.35-0.35-0.63-0.77-0.82-1.26
				c-0.2-0.49-0.29-1.02-0.29-1.59c0-0.57,0.1-1.1,0.29-1.59c0.2-0.49,0.47-0.91,0.82-1.26c0.35-0.35,0.77-0.63,1.25-0.83
				c0.48-0.2,1.01-0.3,1.59-0.3c0.58,0,1.11,0.1,1.59,0.3c0.48,0.2,0.9,0.48,1.25,0.83C92.72-7.22,93-6.8,93.19-6.31
				c0.2,0.49,0.29,1.02,0.29,1.59c0,0.57-0.1,1.1-0.29,1.59c-0.2,0.49-0.47,0.91-0.82,1.26c-0.35,0.35-0.77,0.63-1.25,0.83
				C90.64-0.85,90.11-0.75,89.53-0.75z M89.53-1.58c0.44,0,0.85-0.08,1.21-0.25s0.68-0.39,0.95-0.67s0.47-0.62,0.61-1
				s0.22-0.79,0.22-1.22c0-0.43-0.07-0.84-0.22-1.22c-0.15-0.38-0.35-0.71-0.61-1c-0.26-0.29-0.58-0.51-0.95-0.67
				c-0.37-0.16-0.77-0.25-1.21-0.25c-0.44,0-0.85,0.08-1.21,0.25c-0.37,0.16-0.68,0.39-0.95,0.67c-0.26,0.28-0.47,0.62-0.61,1
				c-0.15,0.38-0.22,0.79-0.22,1.22c0,0.44,0.07,0.84,0.22,1.22c0.15,0.38,0.35,0.71,0.61,1s0.58,0.51,0.95,0.67
				S89.09-1.58,89.53-1.58z"/>
			<path d="M95.91-8.51h2.31c0.31,0,0.62,0.03,0.92,0.1c0.3,0.06,0.57,0.17,0.8,0.32c0.24,0.15,0.43,0.34,0.57,0.57
				c0.15,0.24,0.22,0.53,0.22,0.88c0,0.44-0.12,0.81-0.36,1.1c-0.24,0.29-0.56,0.49-0.97,0.61v0.02c0.24,0.02,0.47,0.08,0.68,0.19
				c0.21,0.1,0.39,0.24,0.54,0.4c0.15,0.16,0.27,0.35,0.36,0.57c0.08,0.22,0.13,0.45,0.13,0.7c0,0.42-0.09,0.77-0.26,1.04
				s-0.4,0.49-0.68,0.65c-0.28,0.16-0.6,0.27-0.95,0.34s-0.7,0.1-1.05,0.1h-2.26V-8.51z M96.81-5.3h1.24c0.21,0,0.42-0.01,0.63-0.04
				c0.2-0.03,0.39-0.09,0.55-0.18c0.16-0.09,0.29-0.21,0.4-0.37c0.1-0.16,0.15-0.37,0.15-0.64c0-0.23-0.05-0.43-0.14-0.57
				c-0.09-0.15-0.21-0.26-0.37-0.35s-0.33-0.14-0.52-0.18c-0.2-0.03-0.39-0.05-0.59-0.05h-1.34V-5.3z M96.81-1.77h1.52
				c0.22,0,0.44-0.02,0.66-0.07c0.22-0.05,0.41-0.12,0.59-0.22c0.17-0.1,0.32-0.24,0.42-0.41c0.11-0.17,0.16-0.37,0.16-0.61
				c0-0.26-0.05-0.48-0.16-0.66c-0.1-0.18-0.24-0.32-0.41-0.43c-0.17-0.11-0.36-0.18-0.58-0.22c-0.22-0.04-0.44-0.06-0.67-0.06
				h-1.54V-1.77z"/>
			<path d="M103.63-8.51h0.9v7.57h-0.9V-8.51z"/>
			<path d="M109.85-8.51h0.84l3.22,7.57h-1.05L112.1-2.8h-3.78l-0.78,1.86h-1.02L109.85-8.51z M110.26-7.35h-0.02l-1.57,3.72h3.09
				L110.26-7.35z"/>
			<path d="M115.9-8.51h0.9v6.73h3.46v0.83h-4.36V-8.51z"/>
			<path d="M126.18-8.51h0.9v7.57h-0.9V-8.51z"/>
			<path d="M129.81-8.51h2.91c0.25,0,0.51,0.03,0.79,0.09c0.28,0.06,0.55,0.15,0.83,0.27c0.27,0.12,0.54,0.29,0.79,0.49
				s0.48,0.44,0.67,0.72c0.19,0.28,0.35,0.61,0.46,0.97c0.11,0.37,0.17,0.78,0.17,1.25c0,0.46-0.06,0.88-0.17,1.25
				c-0.11,0.37-0.27,0.69-0.46,0.97s-0.42,0.52-0.67,0.72c-0.25,0.2-0.52,0.36-0.79,0.49c-0.27,0.12-0.55,0.22-0.83,0.27
				c-0.28,0.06-0.54,0.09-0.79,0.09h-2.91V-8.51z M130.71-1.77h1.71c0.43,0,0.84-0.06,1.21-0.17c0.37-0.11,0.69-0.29,0.96-0.53
				c0.27-0.24,0.48-0.54,0.64-0.91c0.16-0.37,0.23-0.82,0.23-1.34c0-0.52-0.08-0.97-0.23-1.34c-0.16-0.37-0.37-0.68-0.64-0.91
				c-0.27-0.24-0.59-0.42-0.96-0.53c-0.37-0.11-0.77-0.17-1.21-0.17h-1.71V-1.77z"/>
			<path d="M138.85-8.51h4.76v0.83h-3.86v2.37h3.6v0.83h-3.6v2.69h4.05v0.83h-4.95V-8.51z"/>
			<path d="M146.17-8.51h1.13l4.38,6.29h0.02v-6.29h0.9v7.57h-1.13l-4.38-6.29h-0.02v6.29h-0.9V-8.51z"/>
			<path d="M160.55-7.67h-2.5v6.73h-0.9v-6.73h-2.5v-0.83h5.9V-7.67z"/>
			<path d="M162.59-8.51h0.9v7.57h-0.9V-8.51z"/>
			<path d="M166.36-8.51h4.69v0.83h-3.79v2.5h3.53v0.83h-3.53v3.4h-0.9V-8.51z"/>
			<path d="M173.28-8.51h0.9v7.57h-0.9V-8.51z"/>
			<path d="M182.35-6.95c-0.23-0.31-0.51-0.54-0.84-0.69s-0.68-0.23-1.05-0.23c-0.42,0-0.81,0.09-1.16,0.26
				c-0.35,0.17-0.66,0.4-0.91,0.69c-0.26,0.29-0.46,0.62-0.6,1c-0.14,0.38-0.21,0.78-0.21,1.19c0,0.44,0.07,0.85,0.21,1.23
				c0.14,0.38,0.34,0.71,0.59,0.99c0.25,0.28,0.56,0.5,0.91,0.67c0.35,0.16,0.74,0.25,1.17,0.25c0.46,0,0.88-0.09,1.24-0.27
				s0.68-0.44,0.95-0.79l0.67,0.57c-0.34,0.46-0.75,0.79-1.24,1c-0.48,0.21-1.02,0.32-1.63,0.32c-0.54,0-1.05-0.1-1.52-0.3
				c-0.47-0.2-0.88-0.48-1.22-0.83c-0.35-0.35-0.62-0.77-0.81-1.26c-0.2-0.48-0.29-1.02-0.29-1.59c0-0.56,0.09-1.08,0.28-1.56
				c0.19-0.48,0.45-0.9,0.8-1.26s0.75-0.64,1.22-0.84c0.47-0.21,0.99-0.31,1.55-0.31c0.51,0,1.01,0.09,1.48,0.28
				c0.47,0.19,0.87,0.49,1.19,0.91L182.35-6.95z"/>
			<path d="M188.01-8.51h0.84l3.22,7.57h-1.05l-0.77-1.86h-3.78l-0.78,1.86h-1.02L188.01-8.51z M188.42-7.35h-0.02l-1.57,3.72h3.09
				L188.42-7.35z"/>
			<path d="M198.16-7.67h-2.5v6.73h-0.9v-6.73h-2.5v-0.83h5.9V-7.67z"/>
			<path d="M200.2-8.51h0.9v7.57h-0.9V-8.51z"/>
			<path d="M207.48-0.75c-0.58,0-1.11-0.1-1.59-0.3c-0.48-0.2-0.9-0.48-1.25-0.83c-0.35-0.35-0.63-0.77-0.82-1.26
				c-0.2-0.49-0.29-1.02-0.29-1.59c0-0.57,0.1-1.1,0.29-1.59c0.2-0.49,0.47-0.91,0.82-1.26c0.35-0.35,0.77-0.63,1.25-0.83
				c0.48-0.2,1.01-0.3,1.59-0.3c0.58,0,1.11,0.1,1.59,0.3c0.48,0.2,0.9,0.48,1.25,0.83c0.35,0.35,0.63,0.77,0.82,1.26
				c0.2,0.49,0.29,1.02,0.29,1.59c0,0.57-0.1,1.1-0.29,1.59c-0.2,0.49-0.47,0.91-0.82,1.26c-0.35,0.35-0.77,0.63-1.25,0.83
				C208.58-0.85,208.06-0.75,207.48-0.75z M207.48-1.58c0.44,0,0.85-0.08,1.21-0.25s0.68-0.39,0.95-0.67s0.47-0.62,0.61-1
				s0.22-0.79,0.22-1.22c0-0.43-0.07-0.84-0.22-1.22c-0.15-0.38-0.35-0.71-0.61-1c-0.26-0.29-0.58-0.51-0.95-0.67
				c-0.37-0.16-0.77-0.25-1.21-0.25c-0.44,0-0.85,0.08-1.21,0.25c-0.37,0.16-0.68,0.39-0.95,0.67c-0.26,0.28-0.47,0.62-0.61,1
				c-0.15,0.38-0.22,0.79-0.22,1.22c0,0.44,0.07,0.84,0.22,1.22c0.15,0.38,0.35,0.71,0.61,1s0.58,0.51,0.95,0.67
				S207.04-1.58,207.48-1.58z"/>
			<path d="M213.86-8.51h1.13l4.38,6.29h0.02v-6.29h0.9v7.57h-1.13l-4.38-6.29h-0.02v6.29h-0.9V-8.51z"/>
		</g>
		<line className="st2" x1="184.45" y1="-38.52" x2="220.4" y2="-38.52"/>
		<g>
			<g>
				<path className="st4" d="M-90.47-90.29c-0.16-0.45,0.38-0.47,0.71-0.07c4.29,5.23,11.06,7.81,3.9,20.41
					c-4.92,9.26-6.53,15.13,6.1,27.87c0.39,0.4,0.09,0.89-0.35,0.58c-8.13-5.78-19.34-15.43-11.99-30.14
					C-86.21-81.71-86.78-80.19-90.47-90.29z"/>
			</g>
		</g>
		<g>
			<g>
				<path className="st4" d="M-88.36-12.31c-0.07,0.38-0.62,0.38-0.69,0c-0.8-4.22-1.66-15.96,10-27.17
					c7.81-7.35,16.99-17.24,4.16-32.83c-0.27-0.32,0.16-0.76,0.49-0.5c11.64,9.22,17.2,20.66-0.54,37.58
					c-0.01,0.01-0.02,0.02-0.02,0.03C-83.42-25.21-86.37-22.68-88.36-12.31z"/>
			</g>
		</g>
		<g>
			<g>
				<path className="st4" d="M-67.48-13.21c-5.6,6.48-13.81,9.43-21.57,12.42c-1.05,0.4-1.17-0.88-0.61-1.44
					c3.75-3.71,8.17-6.56,12.48-9.57c3.33-2.32,6.86-4.82,9.08-8.29c2.95-4.6,1.9-9.76-0.74-14.25c-0.45-0.76,0.55-1.53,1.18-0.91
					c3.85,3.81,5.68,9.38,4.17,14.74C-64.3-17.68-65.69-15.28-67.48-13.21z"/>
			</g>
		</g>
		<g>
			<path className="st5" d="M-80-14.69l-3.31-1.12c-0.32-0.11-0.66,0.07-0.74,0.4c0,0,0,0.01,0,0.01c-0.08,0.29,0.08,0.6,0.37,0.7
				l3.29,1.11c0.12,0.04,0.26,0.04,0.38,0c0.01,0,0.01-0.01,0.02-0.01C-79.48-13.79-79.48-14.51-80-14.69z"/>
			<path className="st5" d="M-81.45-21.87c0,0,0,0.01-0.01,0.01c-0.16,0.31-0.01,0.7,0.33,0.81l8.28,2.8c0.21,0.07,0.44,0.02,0.6-0.14
				c0-0.01,0.01-0.01,0.01-0.02c0.29-0.3,0.17-0.81-0.23-0.94l-8.29-2.8C-81.02-22.25-81.31-22.13-81.45-21.87z"/>
			<path className="st5" d="M-78.2-27.43c0,0,0,0.01-0.01,0.01c-0.21,0.32-0.06,0.74,0.3,0.86l8.12,2.75c0.33,0.11,0.68-0.09,0.75-0.43
				c0,0,0-0.01,0-0.01c0.06-0.29-0.1-0.57-0.38-0.67l-8.11-2.75C-77.78-27.74-78.06-27.65-78.2-27.43z"/>
			<path className="st5" d="M-74.14-31.9l3.49,1.2c0.41,0.14,0.82-0.2,0.76-0.62l-0.01-0.05c-0.03-0.22-0.18-0.4-0.39-0.47l-3.47-1.17
				c-0.23-0.08-0.49,0-0.64,0.19c0,0.01-0.01,0.01-0.01,0.02C-74.65-32.48-74.51-32.03-74.14-31.9z"/>
		</g>
		<g>
			<path className="st5" d="M-75.29-49.73c0,0,0-0.01,0-0.01c0.16-0.38-0.08-0.8-0.49-0.87l-7.44-1.17c-0.42-0.07-0.79,0.3-0.72,0.72
				c0,0.01,0,0.01,0,0.02c0.04,0.27,0.26,0.48,0.53,0.53l7.43,1.17C-75.69-49.31-75.4-49.46-75.29-49.73z"/>
			<path className="st5" d="M-84.37-57.93c0,0.01,0,0.01,0,0.02c-0.02,0.32,0.21,0.61,0.53,0.66l10.08,1.59
				c0.34,0.05,0.65-0.17,0.72-0.5c0-0.01,0-0.01,0-0.02c0.07-0.35-0.17-0.69-0.52-0.75l-10.08-1.59
				C-84.01-58.58-84.35-58.3-84.37-57.93z"/>
			<path className="st5" d="M-83.26-63.95c0,0.01,0,0.01,0,0.02c-0.09,0.36,0.15,0.71,0.52,0.77l8.67,1.36c0.46,0.07,0.83-0.35,0.71-0.8
				c0-0.01,0-0.01-0.01-0.02c-0.07-0.24-0.27-0.41-0.51-0.45l-8.66-1.36C-82.87-64.48-83.18-64.27-83.26-63.95z"/>
			<path className="st5" d="M-82-69.83c0,0.01,0,0.01,0,0.02c-0.06,0.35,0.17,0.68,0.52,0.74c1.6,0.25,3.2,0.5,4.8,0.76
				c0.21,0.03,0.43,0.06,0.64,0.1c0.06-0.51-0.54-1.39-1.06-1.47c0,0-4.17-0.66-4.17-0.66C-81.62-70.4-81.94-70.17-82-69.83z"/>
		</g>
		<g>
			<path className="st6" d="M-91.71-22.62c-1.44-1.44-3.93-2.24-5.63-1.79c-1.78,0.46-2.07,2.1-0.57,3.66c1.53,1.59,4.22,2.39,5.94,1.8
				C-90.34-19.52-90.25-21.16-91.71-22.62z"/>
			<path className="st6" d="M-102.25-18.54c-2.59-0.75-5.1-0.01-5.59,1.74c-0.51,1.83,1.4,4,4.23,4.75c2.77,0.73,5.2-0.24,5.47-2.06
				C-97.89-15.86-99.71-17.8-102.25-18.54z"/>
			<path className="st6" d="M-91.71,6.58c-0.11,2.75,2.3,5.55,5.33,6.1c2.96,0.53,5.16-1.33,4.99-4.02c-0.16-2.55-2.42-5-5.11-5.6
				C-89.24,2.46-91.6,3.97-91.71,6.58z"/>
			<path className="st6" d="M-73.73,8.96c2.05,2.18,4.95,2.76,6.36,1.31c1.35-1.37,0.8-4.05-1.12-6c-1.89-1.92-4.54-2.55-6.01-1.4
				C-76.04,4.09-75.74,6.82-73.73,8.96z"/>
			<path className="st6" d="M-66.05,0.65c2.11,0.53,3.38-0.63,2.9-2.51c-0.47-1.81-2.4-3.66-4.37-4.21c-2.01-0.56-3.4,0.41-3.07,2.23
				C-70.26-1.94-68.2,0.11-66.05,0.65z"/>
			<g>
				<path d="M-99.4,2.51c-2.14,0-4.3-0.98-5.62-2.56c-1.04-1.24-1.44-2.66-1.13-4c0.29-1.25,1.18-2.26,2.48-2.83
					c0.74-0.32,1.56-0.49,2.45-0.49c2.07,0,4.18,0.92,5.51,2.4c1.05,1.17,1.52,2.6,1.3,3.92c-0.2,1.19-0.93,2.2-2.07,2.84
					C-97.31,2.26-98.33,2.51-99.4,2.51z"/>
				<path className="st7" d="M-101.22-6.88c1.88,0,3.87,0.82,5.14,2.23c1.83,2.05,1.61,4.72-0.64,5.99c-0.79,0.45-1.72,0.66-2.68,0.66
					c-1.92,0-3.95-0.85-5.24-2.39c-1.89-2.26-1.29-4.97,1.18-6.05C-102.78-6.74-102.01-6.88-101.22-6.88 M-101.22-7.88
					c-0.96,0-1.85,0.18-2.65,0.53c-1.46,0.64-2.44,1.77-2.77,3.18c-0.34,1.47,0.1,3.09,1.23,4.43c1.42,1.69,3.72,2.74,6.01,2.74
					c1.16,0,2.26-0.27,3.17-0.79c1.27-0.72,2.1-1.86,2.32-3.2c0.24-1.47-0.28-3.05-1.42-4.33C-96.75-6.9-99.01-7.88-101.22-7.88
					L-101.22-7.88z"/>
			</g>
		</g>
	</g>
</g>
<g id="Layer_4">
</g>
<g id="Layer_5">
	<g>
		<g>
			<g>
				<circle cx="17.7" cy="40.72" r="2.69"/>
			</g>
			<g>
				<path d="M28.59,55.93c-0.86,0-1.61,0.5-1.97,1.23H17.7v1.97h8.92c0.36,0.73,1.11,1.23,1.97,1.23c1.24,0,2.26-0.99,2.26-2.22
					C30.85,56.92,29.84,55.93,28.59,55.93z"/>
			</g>
			<g>
				<path d="M20.33,47.56c0.4,0.91,1.32,1.56,2.4,1.56c1.41,0,2.55-1.15,2.55-2.56c0-1.41-1.15-2.56-2.55-2.56
					c-1.07,0-2,0.64-2.4,1.56l-2.63,0.28v1.44L20.33,47.56z"/>
			</g>
			<g>
				<path d="M23.97,53.34c0.39,0.77,1.19,1.31,2.12,1.31c1.34,0,2.43-1.07,2.43-2.39c0-1.32-1.09-2.39-2.43-2.39
					c-0.97,0-1.81,0.59-2.18,1.43l-6.2,0.21v1.62L23.97,53.34z"/>
			</g>
			<g>
				<path d="M22.78,64.61c0.24,0.5,0.75,0.84,1.33,0.84c0.84,0,1.51-0.67,1.51-1.49s-0.68-1.49-1.51-1.49
					c-0.59,0-1.09,0.35-1.33,0.84l-5.08-0.17v1.63L22.78,64.61z"/>
			</g>
			<g>
				<path d="M19.17,70.35c0.2,0.36,0.58,0.6,1.02,0.6c0.66,0,1.2-0.53,1.2-1.18c0-0.65-0.54-1.18-1.2-1.18
					c-0.44,0-0.82,0.24-1.02,0.6l-1.47-0.16v1.47L19.17,70.35z"/>
			</g>
			<circle className="st4" cx="17.72" cy="75.57" r="2.69"/>
			<path className="st4" d="M17.7,57.16H8.78c-0.37-0.73-1.13-1.23-2.01-1.23c-1.22,0-2.21,0.99-2.21,2.22c0,1.22,0.99,2.22,2.21,2.22
				c0.88,0,1.64-0.5,2.01-1.23h8.92v-0.99V57.16z"/>
			<path className="st4" d="M15.29,45.39c-0.65,0-1.18,0.53-1.18,1.18c0,0.65,0.53,1.18,1.18,1.18c0.45,0,0.83-0.25,1.04-0.6l1.37,0.15
				v-1.44l-1.37,0.15C16.13,45.63,15.74,45.39,15.29,45.39z"/>
			<path className="st4" d="M11.63,50.83c-0.82,0-1.49,0.67-1.49,1.49c0,0.82,0.67,1.49,1.49,1.49c0.59,0,1.1-0.34,1.35-0.83l4.72,0.16
				v-1.62l-4.72,0.16C12.73,51.17,12.22,50.83,11.63,50.83z"/>
			<path className="st4" d="M9.37,61.58c-1.34,0-2.43,1.07-2.43,2.39c0,1.32,1.09,2.39,2.43,2.39c0.95,0,1.76-0.56,2.15-1.37l6.19-0.2
				v-1.63l-6.19-0.2C11.13,62.14,10.32,61.58,9.37,61.58z"/>
			<path className="st4" d="M12.82,67.21c-1.41,0-2.55,1.15-2.55,2.56c0,1.41,1.15,2.56,2.55,2.56c1.07,0,2-0.64,2.4-1.56l2.48-0.26
				v-1.47l-2.48-0.26C14.82,67.85,13.89,67.21,12.82,67.21z"/>
		</g>
		<g>
			<g>
				<path d="M6.8,25.51c0.86,0,1.61-0.5,1.97-1.23h8.92v-1.97H8.77c-0.36-0.73-1.11-1.23-1.97-1.23c-1.24,0-2.26,0.99-2.26,2.22
					C4.54,24.51,5.55,25.51,6.8,25.51z"/>
			</g>
			<g>
				<path d="M15.06,33.87c-0.4-0.91-1.32-1.56-2.4-1.56c-1.41,0-2.55,1.15-2.55,2.56c0,1.41,1.15,2.56,2.55,2.56
					c1.07,0,2-0.64,2.4-1.56l2.63-0.28v-1.44L15.06,33.87z"/>
			</g>
			<g>
				<path d="M11.42,28.1c-0.39-0.77-1.19-1.31-2.12-1.31c-1.34,0-2.43,1.07-2.43,2.39c0,1.32,1.09,2.39,2.43,2.39
					c0.97,0,1.81-0.59,2.18-1.43l6.2-0.21V28.3L11.42,28.1z"/>
			</g>
			<g>
				<path d="M12.61,16.82c-0.24-0.5-0.75-0.84-1.33-0.84c-0.84,0-1.51,0.67-1.51,1.49c0,0.82,0.68,1.49,1.51,1.49
					c0.59,0,1.09-0.35,1.33-0.84l5.08,0.17v-1.63L12.61,16.82z"/>
			</g>
			<g>
				<path d="M16.22,11.09c-0.2-0.36-0.58-0.6-1.02-0.6c-0.66,0-1.2,0.53-1.2,1.18s0.54,1.18,1.2,1.18c0.44,0,0.82-0.24,1.02-0.6
					l1.47,0.16v-1.47L16.22,11.09z"/>
			</g>
			<circle className="st4" cx="17.67" cy="5.87" r="2.69"/>
			<path className="st4" d="M17.69,24.28h8.92c0.37,0.73,1.13,1.23,2.01,1.23c1.22,0,2.21-0.99,2.21-2.22c0-1.22-0.99-2.22-2.21-2.22
				c-0.88,0-1.64,0.5-2.01,1.23h-8.92v0.99V24.28z"/>
			<path className="st4" d="M20.1,36.05c0.65,0,1.18-0.53,1.18-1.18c0-0.65-0.53-1.18-1.18-1.18c-0.45,0-0.83,0.25-1.04,0.6l-1.37-0.15
				v1.44l1.37-0.15C19.26,35.8,19.65,36.05,20.1,36.05z"/>
			<path className="st4" d="M23.76,30.6c0.82,0,1.49-0.67,1.49-1.49c0-0.82-0.67-1.49-1.49-1.49c-0.59,0-1.1,0.34-1.35,0.83l-4.72-0.16
				v1.62l4.72-0.16C22.66,30.26,23.17,30.6,23.76,30.6z"/>
			<path className="st4" d="M26.02,19.85c1.34,0,2.43-1.07,2.43-2.39c0-1.32-1.09-2.39-2.43-2.39c-0.95,0-1.76,0.56-2.15,1.37l-6.19,0.2
				v1.63l6.19,0.2C24.26,19.29,25.07,19.85,26.02,19.85z"/>
			<path className="st4" d="M22.57,14.22c1.41,0,2.55-1.15,2.55-2.56c0-1.41-1.15-2.56-2.55-2.56c-1.07,0-2,0.64-2.4,1.56l-2.48,0.26
				v1.47l2.48,0.26C20.57,13.58,21.5,14.22,22.57,14.22z"/>
		</g>
	</g>
	<g>
		<path d="M55.73,40.49l-9.91-18.45v23.33c0,0.85-0.71,1.57-1.56,1.57c-0.85,0-1.57-0.71-1.57-1.57V15.83
			c0-0.85,0.71-1.57,1.57-1.57c0.71,0,1.19,0.43,1.42,0.9l11.48,21.49l11.52-21.49c0.19-0.33,0.57-0.9,1.42-0.9
			c0.85,0,1.57,0.71,1.57,1.57v29.55c0,0.85-0.71,1.57-1.57,1.57c-0.85,0-1.56-0.71-1.56-1.57V22.04l-9.96,18.45
			c-0.33,0.62-0.85,0.9-1.42,0.9C56.68,41.39,56.06,41.15,55.73,40.49"/>
		<path d="M77.71,18.39c0-1.38,0.66-1.9,1.8-1.9c1.14,0,1.8,0.52,1.8,1.9c0,1.14-0.66,1.8-1.8,1.8
			C78.37,20.19,77.71,19.53,77.71,18.39 M81.03,45.42c0,0.85-0.66,1.52-1.52,1.52c-0.85,0-1.52-0.66-1.52-1.52V26.17
			c0-0.85,0.66-1.52,1.52-1.52c0.85,0,1.52,0.66,1.52,1.52V45.42z"/>
		<path d="M95.54,24.36c4.22,0,6.55,2.23,7.3,3.27c0.24,0.33,0.33,0.57,0.33,0.9c0,0.81-0.62,1.38-1.38,1.38
			c-0.47,0-0.81-0.19-1.14-0.57c-0.71-0.81-1.99-2.23-5.12-2.23c-4.36,0-6.69,2.8-6.69,8.63c0,5.93,2.32,8.68,6.69,8.68
			c2.75,0,4.41-1.23,5.5-2.04c0.33-0.24,0.57-0.33,0.9-0.33c0.76,0,1.38,0.62,1.38,1.38c0,0.43-0.14,0.76-0.62,1.19
			c-1.04,0.85-3.32,2.56-7.16,2.56c-6.12,0-9.77-3.65-9.77-11.43C85.77,27.97,89.42,24.36,95.54,24.36"/>
		<path d="M111.15,28.25c0.95-2.18,3.32-3.79,6.59-3.79c0.81,0,1.47,0.66,1.47,1.47c0,0.81-0.66,1.47-1.47,1.47
			c-4.36,0-6.59,3.04-6.59,7.4v10.62c0,0.85-0.66,1.52-1.52,1.52c-0.85,0-1.52-0.66-1.52-1.52V26.17c0-0.85,0.66-1.52,1.52-1.52
			c0.85,0,1.52,0.66,1.52,1.52V28.25z"/>
		<path d="M139.74,35.75c0,7.78-3.79,11.43-9.96,11.43c-6.12,0-9.96-3.65-9.96-11.43c0-7.78,3.84-11.38,9.96-11.38
			C135.94,24.36,139.74,27.97,139.74,35.75 M136.65,35.75c0-5.98-2.51-8.63-6.88-8.63c-4.36,0-6.88,2.66-6.88,8.63
			c0,6.07,2.51,8.68,6.88,8.68C134.14,44.43,136.65,41.82,136.65,35.75"/>
		<path d="M167.1,40.49v-6.88h-7.92c-0.81,0-1.47-0.66-1.47-1.47c0-0.81,0.66-1.47,1.47-1.47h9.58c0.76,0,1.47,0.66,1.47,1.47v8.3
			c0,0.57-0.19,1.04-0.62,1.57c-2.28,2.66-5.6,5.22-11.33,5.22c-9.2,0-14.8-4.93-14.8-16.6c0-11.24,5.6-16.65,14.8-16.65
			c4.51,0,8.44,1.94,10.67,5.03c0.24,0.33,0.33,0.66,0.33,1c0,0.85-0.66,1.52-1.52,1.52c-0.43,0-0.85-0.14-1.23-0.62
			c-1.61-2.23-4.65-3.98-8.25-3.98c-7.3,0-11.48,4.41-11.48,13.71c0,9.87,4.17,13.66,11.48,13.66
			C162.69,44.28,165.54,42.43,167.1,40.49"/>
		<path d="M184.27,24.36c7.59,0,9.06,6.02,9.06,9.25c0,1.38,0,3.04-1.9,3.04h-13.85c0,4.69,2.7,7.73,7.16,7.73
			c2.75,0,4.36-1.04,5.69-2.04c0.29-0.19,0.47-0.28,0.85-0.28c0.76,0,1.38,0.62,1.38,1.37c0,0.52-0.24,0.81-0.52,1.09
			c-0.71,0.71-3.18,2.66-7.4,2.66c-6.31,0-10.24-3.46-10.24-11.43C174.5,28.44,178.11,24.36,184.27,24.36 M184.27,27.11
			c-4.13,0-6.4,2.66-6.69,6.88h12.76C190.34,30.58,189.16,27.11,184.27,27.11"/>
		<path d="M215.02,32.76v12.66c0,0.85-0.66,1.52-1.52,1.52c-0.85,0-1.52-0.66-1.52-1.52V33.38c0-3.75-1.09-6.31-5.69-6.31
			c-4.69,0-6.31,2.85-6.31,6.64v11.72c0,0.85-0.66,1.52-1.52,1.52s-1.52-0.66-1.52-1.52V26.17c0-0.85,0.66-1.52,1.52-1.52
			s1.52,0.66,1.52,1.52v1.52c0.9-1.8,3.23-3.32,6.31-3.32C213.6,24.36,215.02,28.73,215.02,32.76"/>
		<g>
			<path d="M248.05,38.67c-0.45,0-0.87-0.21-1.14-0.61l-4.42-6.62l-4.42,6.62c-0.27,0.4-0.72,0.61-1.14,0.61
				c-0.72,0-1.38-0.61-1.38-1.38c0-0.27,0.08-0.53,0.24-0.77l5.09-7.47l-5.01-7.34c-0.16-0.24-0.24-0.5-0.24-0.77
				c0-0.72,0.61-1.38,1.38-1.38c0.45,0,0.87,0.21,1.14,0.61l4.35,6.49l4.34-6.49c0.27-0.4,0.72-0.61,1.14-0.61
				c0.72,0,1.35,0.64,1.35,1.38c0,0.27-0.08,0.53-0.24,0.77l-5.01,7.34l5.12,7.47c0.16,0.24,0.24,0.51,0.24,0.77
				C249.43,38.01,248.81,38.67,248.05,38.67"/>
			<path d="M225.51,19.83h-3.5c-0.96,0-1.72,0.77-1.72,1.69v15.18c0,0.93,0.76,1.7,1.72,1.7h3.5c4.35,0,7.29-2.89,7.29-7.21v-4.16
				C232.8,22.71,229.86,19.83,225.51,19.83z M229.99,31.25c0,2.78-1.62,4.48-4.45,4.48h-2.44V22.5h2.44c2.84,0,4.45,1.67,4.45,4.48
				V31.25z"/>
		</g>
		<path className="st4" d="M249.13,44.03h-28.54c-0.66,0-1.19,0.53-1.19,1.19c0,0.66,0.53,1.19,1.19,1.19h28.54
			c0.66,0,1.19-0.53,1.19-1.19C250.32,44.56,249.79,44.03,249.13,44.03z"/>
	</g>
	<g>
		<path d="M42.79,52.92h7.37v1.45h-5.83v3.4h5.42v1.45h-5.42v3.66h6.12v1.45h-7.66V52.92z"/>
		<path d="M55.04,52.92h2.31l3.63,8.65h0.06l3.6-8.65h2.31v11.42H65.4v-9.39h-0.03l-3.86,9.39h-1.03l-3.86-9.39h-0.03v9.39h-1.55
			V52.92z"/>
		<path d="M72.27,52.92h4.02c0.73,0,1.33,0.1,1.81,0.3s0.85,0.45,1.12,0.76s0.46,0.65,0.57,1.03c0.11,0.38,0.16,0.75,0.16,1.1
			s-0.05,0.72-0.16,1.11c-0.11,0.38-0.3,0.73-0.57,1.03c-0.27,0.31-0.65,0.56-1.12,0.76s-1.08,0.3-1.81,0.3h-2.47v5.03h-1.55V52.92z
			 M73.82,57.96h2.03c0.3,0,0.6-0.02,0.9-0.07c0.3-0.05,0.56-0.14,0.79-0.27c0.23-0.13,0.42-0.31,0.56-0.56
			c0.14-0.24,0.21-0.56,0.21-0.94s-0.07-0.7-0.21-0.94s-0.33-0.43-0.56-0.56s-0.49-0.22-0.79-0.27s-0.59-0.07-0.9-0.07h-2.03V57.96z
			"/>
		<path d="M84.34,52.92h1.55v9.97h5.24v1.45h-6.79V52.92z"/>
		<path d="M100.46,64.64c-0.87,0-1.67-0.15-2.4-0.46s-1.36-0.73-1.88-1.27c-0.52-0.54-0.93-1.17-1.23-1.9
			c-0.3-0.73-0.44-1.52-0.44-2.37c0-0.85,0.15-1.64,0.44-2.37c0.3-0.73,0.7-1.37,1.23-1.9c0.52-0.54,1.15-0.96,1.88-1.27
			s1.53-0.46,2.4-0.46c0.87,0,1.67,0.15,2.4,0.46s1.36,0.73,1.88,1.27c0.52,0.54,0.93,1.17,1.23,1.9s0.44,1.52,0.44,2.37
			c0,0.85-0.15,1.64-0.44,2.37s-0.7,1.37-1.23,1.9c-0.52,0.54-1.15,0.96-1.88,1.27S101.33,64.64,100.46,64.64z M100.46,63.18
			c0.66,0,1.25-0.12,1.77-0.36c0.53-0.24,0.98-0.57,1.35-0.98c0.38-0.41,0.67-0.89,0.87-1.44c0.2-0.55,0.31-1.14,0.31-1.77
			c0-0.62-0.1-1.21-0.31-1.77c-0.2-0.55-0.5-1.04-0.87-1.44c-0.38-0.41-0.83-0.73-1.35-0.98c-0.53-0.24-1.12-0.36-1.77-0.36
			c-0.66,0-1.25,0.12-1.77,0.36c-0.53,0.24-0.98,0.57-1.36,0.98c-0.38,0.41-0.67,0.89-0.87,1.44c-0.2,0.55-0.31,1.14-0.31,1.77
			c0,0.62,0.1,1.21,0.31,1.77c0.2,0.55,0.49,1.04,0.87,1.44c0.38,0.41,0.83,0.73,1.36,0.98C99.21,63.06,99.8,63.18,100.46,63.18z"/>
		<path d="M113.83,59.47l-4.32-6.55h1.98l3.11,5.02l3.21-5.02h1.89l-4.32,6.55v4.87h-1.55V59.47z"/>
		<path d="M123.51,52.92h7.37v1.45h-5.83v3.4h5.42v1.45h-5.42v3.66h6.12v1.45h-7.66V52.92z"/>
		<path d="M135.87,52.92h7.37v1.45h-5.83v3.4h5.42v1.45h-5.42v3.66h6.12v1.45h-7.66V52.92z"/>
		<path d="M163.17,55.39c-0.32-0.42-0.73-0.74-1.23-0.97c-0.5-0.23-1.01-0.34-1.53-0.34c-0.65,0-1.23,0.12-1.75,0.36
			c-0.52,0.24-0.97,0.57-1.34,0.99s-0.66,0.91-0.86,1.48c-0.2,0.56-0.31,1.17-0.31,1.81c0,0.6,0.1,1.17,0.29,1.71
			c0.19,0.54,0.47,1.01,0.84,1.42c0.37,0.41,0.81,0.73,1.34,0.97c0.53,0.24,1.12,0.35,1.79,0.35c0.66,0,1.23-0.13,1.73-0.4
			s0.91-0.65,1.26-1.13l1.31,0.98c-0.09,0.12-0.24,0.29-0.45,0.51c-0.22,0.22-0.5,0.44-0.85,0.66c-0.35,0.22-0.78,0.41-1.28,0.58
			c-0.5,0.17-1.08,0.25-1.73,0.25c-0.9,0-1.72-0.17-2.44-0.52c-0.73-0.34-1.34-0.8-1.86-1.35c-0.51-0.56-0.9-1.19-1.17-1.9
			s-0.4-1.42-0.4-2.14c0-0.88,0.15-1.7,0.44-2.44c0.29-0.75,0.7-1.39,1.22-1.94c0.52-0.54,1.15-0.97,1.88-1.27s1.54-0.45,2.42-0.45
			c0.75,0,1.49,0.15,2.22,0.44s1.32,0.74,1.78,1.34L163.17,55.39z"/>
		<path d="M174.32,64.64c-0.87,0-1.67-0.15-2.4-0.46s-1.36-0.73-1.88-1.27c-0.52-0.54-0.93-1.17-1.23-1.9
			c-0.3-0.73-0.44-1.52-0.44-2.37c0-0.85,0.15-1.64,0.44-2.37c0.3-0.73,0.7-1.37,1.23-1.9c0.52-0.54,1.15-0.96,1.88-1.27
			s1.53-0.46,2.4-0.46c0.87,0,1.67,0.15,2.4,0.46s1.36,0.73,1.88,1.27c0.52,0.54,0.93,1.17,1.23,1.9s0.44,1.52,0.44,2.37
			c0,0.85-0.15,1.64-0.44,2.37s-0.7,1.37-1.23,1.9c-0.52,0.54-1.15,0.96-1.88,1.27S175.19,64.64,174.32,64.64z M174.32,63.18
			c0.66,0,1.25-0.12,1.77-0.36c0.53-0.24,0.98-0.57,1.35-0.98c0.38-0.41,0.67-0.89,0.87-1.44c0.2-0.55,0.31-1.14,0.31-1.77
			c0-0.62-0.1-1.21-0.31-1.77c-0.2-0.55-0.5-1.04-0.87-1.44c-0.38-0.41-0.83-0.73-1.35-0.98c-0.53-0.24-1.12-0.36-1.77-0.36
			c-0.66,0-1.25,0.12-1.77,0.36c-0.53,0.24-0.98,0.57-1.36,0.98c-0.38,0.41-0.67,0.89-0.87,1.44c-0.2,0.55-0.31,1.14-0.31,1.77
			c0,0.62,0.1,1.21,0.31,1.77c0.2,0.55,0.49,1.04,0.87,1.44c0.38,0.41,0.83,0.73,1.36,0.98C173.08,63.06,173.67,63.18,174.32,63.18z
			"/>
		<path d="M185,52.92h2.03l6.29,9.39h0.03v-9.39h1.55v11.42h-1.97l-6.36-9.39h-0.03v9.39H185V52.92z"/>
		<path d="M200.35,52.92h2.03l6.29,9.39h0.03v-9.39h1.55v11.42h-1.97l-6.36-9.39h-0.03v9.39h-1.55V52.92z"/>
		<path d="M215.69,52.92h7.37v1.45h-5.83v3.4h5.42v1.45h-5.42v3.66h6.12v1.45h-7.66V52.92z"/>
		<path d="M236.01,55.39c-0.32-0.42-0.73-0.74-1.23-0.97c-0.5-0.23-1.01-0.34-1.53-0.34c-0.65,0-1.23,0.12-1.75,0.36
			c-0.52,0.24-0.97,0.57-1.34,0.99s-0.66,0.91-0.86,1.48c-0.2,0.56-0.31,1.17-0.31,1.81c0,0.6,0.1,1.17,0.29,1.71
			c0.19,0.54,0.47,1.01,0.84,1.42c0.37,0.41,0.81,0.73,1.34,0.97c0.53,0.24,1.12,0.35,1.79,0.35c0.66,0,1.23-0.13,1.73-0.4
			s0.91-0.65,1.26-1.13l1.31,0.98c-0.09,0.12-0.24,0.29-0.45,0.51c-0.22,0.22-0.5,0.44-0.85,0.66c-0.35,0.22-0.78,0.41-1.28,0.58
			c-0.5,0.17-1.08,0.25-1.73,0.25c-0.9,0-1.72-0.17-2.44-0.52c-0.73-0.34-1.34-0.8-1.86-1.35c-0.51-0.56-0.9-1.19-1.17-1.9
			s-0.4-1.42-0.4-2.14c0-0.88,0.15-1.7,0.44-2.44c0.29-0.75,0.7-1.39,1.22-1.94c0.52-0.54,1.15-0.97,1.88-1.27s1.54-0.45,2.42-0.45
			c0.75,0,1.49,0.15,2.22,0.44s1.32,0.74,1.78,1.34L236.01,55.39z"/>
		<path d="M244.3,54.37h-3.68v-1.45h8.91v1.45h-3.68v9.97h-1.55V54.37z"/>
	</g>
</g>
</svg>
